{"glyphs":{"0":{"ha":854,"x_min":58,"x_max":811,"o":"m 69 332 q 60 395 63 368 q 60 461 58 422 q 61 497 60 481 q 65 531 63 514 q 70 568 67 549 q 78 613 74 588 q 151 845 106 764 q 268 950 197 926 q 303 956 283 956 q 349 946 329 956 l 357 943 l 368 950 q 426 978 396 968 q 489 988 456 988 q 601 961 551 988 q 688 892 650 935 q 750 797 725 850 q 786 688 775 743 q 776 418 811 563 q 728 291 763 357 q 646 167 694 225 q 538 67 597 110 q 411 13 478 25 q 393 10 404 11 q 371 8 382 8 q 350 7 360 7 q 335 8 340 7 q 228 46 274 15 q 149 122 182 76 q 97 222 117 167 q 69 332 78 276 m 249 517 q 244 453 244 490 q 247 392 244 415 q 257 335 250 369 q 277 270 264 301 q 310 216 290 239 q 361 193 331 193 q 422 213 392 193 q 472 253 453 233 q 550 349 517 294 q 596 457 583 404 q 610 544 607 501 q 610 622 614 588 q 576 734 600 689 q 515 796 551 779 q 492 803 499 803 q 469 795 481 803 q 440 769 458 788 l 418 749 l 418 728 q 390 666 415 692 q 328 640 365 640 q 294 647 313 640 q 278 653 281 653 q 273 642 276 653 q 265 611 269 631 q 257 567 261 592 q 249 517 253 543 z "},"1":{"ha":431,"x_min":53,"x_max":374,"o":"m 133 785 q 109 795 122 788 q 86 813 96 803 q 58 866 64 835 q 67 925 53 897 q 98 974 79 949 q 140 1021 117 1000 q 191 1055 164 1042 q 247 1068 218 1068 q 277 1063 265 1067 q 301 1049 289 1058 q 313 1039 306 1044 q 326 1029 321 1033 q 369 932 374 994 q 365 899 369 925 q 357 843 361 872 q 347 783 351 808 q 339 736 342 757 q 334 696 336 715 q 329 654 332 676 q 321 555 325 610 q 315 443 317 500 q 311 333 313 386 q 311 238 310 279 l 313 182 l 319 171 q 333 113 335 143 q 308 46 331 78 q 250 7 286 14 q 231 3 236 4 q 214 4 225 3 q 155 31 179 8 q 121 90 131 54 q 113 153 115 111 q 109 250 110 194 q 110 370 108 306 q 115 501 111 435 q 125 631 119 568 q 138 747 131 694 q 141 780 142 776 q 133 785 140 783 z "},"2":{"ha":781,"x_min":38,"x_max":729,"o":"m 125 -7 q 74 22 99 -1 q 42 84 47 50 q 56 154 38 118 q 66 170 60 161 q 88 200 72 179 q 130 256 103 221 q 203 351 157 292 q 259 423 231 386 q 303 478 288 460 q 445 672 388 582 q 521 813 503 761 q 521 842 531 840 q 498 842 514 844 q 468 836 482 840 q 393 800 428 825 q 342 747 358 775 q 310 710 329 724 q 271 692 292 696 q 226 692 247 686 q 188 711 204 697 q 161 745 171 725 q 151 789 151 765 q 185 878 151 835 q 267 957 218 922 q 371 1015 315 992 q 469 1042 426 1038 q 524 1043 493 1044 q 572 1038 554 1042 q 663 990 625 1022 q 715 911 700 958 q 727 832 729 875 q 710 744 725 789 q 664 643 694 697 q 597 535 633 589 q 522 430 560 481 q 451 340 483 379 q 419 299 436 322 q 386 257 401 276 q 360 224 371 238 q 350 211 350 211 q 365 210 350 210 q 401 213 381 211 q 445 217 422 215 q 482 221 468 219 q 528 231 513 225 q 564 238 549 238 q 610 225 588 238 q 643 199 629 217 q 661 160 657 181 q 664 136 664 151 q 661 113 664 121 q 636 65 656 86 q 589 36 617 44 q 549 28 575 32 q 490 19 524 24 q 417 13 456 15 q 338 7 378 10 q 274 3 308 6 q 210 -6 239 0 q 160 -9 182 -8 q 125 -7 138 -10 z "},"3":{"ha":715,"x_min":44,"x_max":665,"o":"m 110 736 q 58 794 72 756 q 64 872 44 833 q 132 943 85 913 q 237 994 179 974 q 354 1026 294 1015 q 458 1038 414 1038 q 532 1029 496 1038 q 597 1002 568 1021 q 643 953 625 983 q 664 882 661 924 q 659 833 665 857 q 636 781 653 810 q 591 715 619 751 q 518 631 563 679 q 489 597 501 611 q 474 581 476 583 q 474 577 472 578 q 482 572 475 576 q 535 535 510 558 q 575 490 561 513 q 594 307 628 406 q 526 192 574 244 q 421 108 478 140 q 315 48 368 76 q 203 -3 261 19 q 174 -7 192 -6 q 150 -7 157 -8 q 99 18 119 -1 q 69 63 78 38 q 65 115 61 88 q 90 165 69 143 q 154 199 114 190 q 197 213 169 201 q 256 244 224 225 q 281 260 267 251 q 304 274 296 268 q 341 297 326 286 q 371 324 356 308 q 399 359 389 342 q 404 383 408 376 q 381 396 394 393 q 354 399 367 399 q 331 398 344 399 q 306 397 317 397 q 283 396 290 396 q 265 399 275 396 q 212 425 233 406 q 181 474 190 444 q 178 503 178 485 q 181 532 178 521 q 190 556 183 544 q 208 583 196 567 q 239 621 219 599 q 289 676 258 643 q 344 736 318 708 q 388 785 369 764 q 417 819 407 807 q 428 833 428 832 q 424 834 428 835 q 397 829 421 833 q 297 803 344 822 q 226 760 250 783 q 182 732 206 739 q 167 728 174 729 q 147 728 161 728 q 126 730 132 729 q 110 736 121 731 z "},"4":{"ha":849,"x_min":35,"x_max":797,"o":"m 60 415 q 58 539 35 467 q 76 583 64 554 q 103 649 88 613 q 138 726 119 686 q 174 801 157 765 q 195 847 185 825 q 208 875 206 868 q 217 897 211 882 q 229 924 224 911 q 242 953 236 938 q 251 978 249 968 q 287 1040 264 1014 q 353 1065 310 1065 q 400 1054 378 1065 q 438 1021 422 1043 q 439 899 467 972 q 426 869 436 892 q 404 819 417 847 q 378 763 392 792 q 354 711 365 733 q 335 669 347 697 q 310 615 322 642 q 288 567 297 588 q 279 544 279 546 q 288 544 279 543 q 299 545 290 544 q 315 547 307 546 q 349 552 322 549 q 404 561 375 556 q 459 569 433 565 q 493 574 485 572 q 506 576 500 575 q 513 578 513 576 q 516 591 514 578 q 521 624 518 604 q 543 749 531 686 q 571 867 556 811 q 583 909 576 886 q 592 946 589 932 q 619 1012 603 986 q 675 1049 635 1038 q 751 1035 715 1060 q 796 969 788 1011 q 797 953 797 961 q 795 931 797 944 q 788 897 793 918 q 772 843 782 876 q 739 706 753 775 q 717 571 725 638 l 714 546 l 718 532 q 722 517 721 524 q 724 500 724 511 q 720 472 724 483 q 710 447 717 460 q 703 433 704 439 q 699 399 701 426 q 690 271 693 336 q 683 125 686 206 q 681 62 682 85 q 679 25 681 39 q 675 4 678 11 q 668 -11 672 -3 q 640 -44 660 -29 q 601 -62 621 -58 q 578 -65 590 -65 q 556 -61 565 -64 q 490 -8 513 -50 q 484 8 486 0 q 481 28 482 15 q 480 64 479 42 q 482 124 481 86 q 487 244 485 199 q 492 332 489 290 q 493 347 493 340 q 493 360 493 354 q 494 371 494 365 q 478 368 488 369 q 460 365 471 367 q 439 361 450 364 q 366 351 397 356 q 310 344 335 346 q 264 341 285 342 q 222 342 243 340 q 176 344 200 342 q 129 356 151 347 q 89 378 107 364 q 60 415 71 392 z "},"5":{"ha":821,"x_min":47,"x_max":769,"o":"m 431 317 q 462 335 446 325 q 492 355 478 346 q 515 371 506 364 q 522 379 524 378 q 506 385 519 382 q 478 390 493 388 q 452 393 468 392 q 419 394 436 394 q 384 394 401 394 q 354 393 367 394 q 326 390 343 392 q 293 386 308 389 q 263 382 276 383 q 236 381 249 381 q 187 389 207 381 q 149 414 167 397 q 115 490 117 447 q 116 523 114 506 q 126 565 118 540 q 149 623 135 589 q 185 706 163 657 q 208 760 196 729 q 229 810 221 790 q 244 848 236 829 q 256 875 253 867 q 264 903 264 892 q 272 938 264 921 q 292 970 279 956 q 321 994 304 985 q 356 1007 338 1004 q 381 1008 367 1010 q 406 1004 396 1007 q 416 1002 413 1001 q 431 1006 419 1003 q 474 1013 447 1008 q 526 1021 500 1018 q 565 1024 542 1022 q 610 1025 588 1025 q 652 1025 633 1025 q 678 1024 671 1025 q 743 990 717 1017 q 769 922 769 963 q 768 901 769 907 q 764 885 767 896 q 739 848 756 864 q 699 825 722 832 q 683 822 689 822 q 665 822 678 821 q 608 823 642 824 q 547 819 574 822 q 519 816 535 818 q 491 812 504 814 q 467 807 478 810 q 453 803 457 804 q 438 785 446 799 q 415 733 431 772 q 395 685 407 713 q 376 642 383 658 q 369 626 372 633 q 363 611 365 618 q 357 597 360 603 q 383 597 357 594 q 463 595 417 600 q 547 582 508 590 q 704 497 651 558 q 740 356 757 436 q 701 273 732 311 q 628 203 669 235 q 540 147 586 172 q 454 106 494 122 q 411 89 433 97 q 362 73 389 81 q 301 58 335 65 q 225 40 268 50 q 163 28 185 32 q 131 28 142 25 q 112 34 124 29 q 93 42 100 39 q 51 99 61 64 q 47 131 47 113 q 53 163 47 150 q 76 198 60 182 q 113 221 93 214 q 139 228 118 224 q 186 239 160 233 q 272 259 236 250 q 334 276 307 268 q 384 294 361 285 q 431 317 407 304 z "},"6":{"ha":889,"x_min":53,"x_max":843,"o":"m 107 92 q 93 124 107 99 q 62 217 71 172 q 54 318 53 261 q 106 538 57 426 q 246 754 156 650 q 275 785 257 767 q 313 824 293 804 q 353 863 333 844 q 383 890 372 881 q 555 998 471 964 q 707 1021 639 1032 q 757 1006 736 1015 q 796 981 778 996 q 835 919 826 953 q 828 854 843 886 q 792 819 815 832 q 744 807 769 807 q 679 833 707 807 l 669 842 l 658 839 q 579 803 621 829 q 498 744 538 778 q 424 674 458 711 q 367 608 390 638 q 308 519 336 569 q 265 424 281 468 q 254 389 254 394 q 262 394 256 388 q 278 411 268 401 q 503 553 376 522 q 601 561 553 565 q 724 512 674 556 q 789 397 775 468 q 790 337 793 374 q 779 274 788 300 q 724 169 761 219 q 636 78 686 119 q 530 9 586 38 q 418 -32 474 -19 q 392 -36 408 -35 q 360 -37 376 -37 q 329 -37 344 -37 q 306 -35 314 -37 q 253 -21 278 -29 q 206 0 229 -12 q 193 6 200 3 q 181 11 186 10 q 131 41 156 18 q 107 92 107 64 m 319 149 l 324 147 q 357 144 338 143 q 396 151 376 144 q 457 179 424 160 q 520 225 490 199 q 572 281 550 251 q 600 339 594 311 q 600 374 607 364 q 571 381 593 383 q 493 353 529 376 q 426 297 457 329 q 369 226 394 264 q 324 156 343 189 l 319 149 z "},"7":{"ha":794,"x_min":46,"x_max":724,"o":"m 190 822 q 154 815 172 815 q 78 847 110 815 q 53 890 60 867 q 50 937 46 914 q 69 980 54 960 q 108 1013 83 1000 q 157 1024 126 1021 q 251 1031 188 1028 q 301 1032 272 1031 q 351 1035 331 1033 q 420 1038 385 1036 q 487 1040 456 1039 q 543 1040 518 1040 q 581 1039 568 1040 q 634 1031 608 1038 q 680 1010 660 1024 q 712 974 700 996 q 724 919 724 951 q 708 856 724 888 q 699 837 704 846 q 683 813 693 828 q 656 774 674 797 q 610 710 639 750 q 533 597 572 658 q 458 466 494 535 q 387 324 421 397 q 324 178 353 251 q 285 78 300 121 q 263 11 269 35 q 258 -7 260 1 q 254 -18 256 -15 q 234 -44 247 -31 q 208 -65 221 -58 q 146 -75 178 -79 q 95 -48 118 -69 q 65 1 72 -26 q 63 29 63 13 q 67 58 64 46 q 82 108 71 76 q 108 181 93 140 q 141 265 124 221 q 176 350 158 308 q 294 588 231 471 q 435 813 357 704 l 453 838 l 442 838 q 417 837 436 838 q 376 833 399 836 q 320 831 353 832 q 263 829 288 829 q 228 828 240 829 q 210 827 217 828 q 199 825 203 826 q 190 822 194 824 z "},"8":{"ha":869,"x_min":50,"x_max":822,"o":"m 60 631 q 51 681 53 654 q 57 731 50 708 q 131 843 75 797 q 257 919 186 889 q 403 966 328 949 q 538 992 479 983 q 585 999 567 996 q 619 1002 604 1001 q 647 1003 633 1003 q 679 1004 660 1004 q 706 1004 696 1004 q 723 1003 717 1004 q 734 1002 729 1003 q 744 999 739 1001 q 817 931 800 981 q 822 897 822 915 q 817 865 822 879 q 782 815 807 836 q 728 788 757 793 q 716 785 718 786 q 713 779 714 783 q 704 741 713 761 q 686 706 696 721 q 667 674 681 694 q 640 631 654 653 q 611 590 625 610 q 589 563 597 571 q 604 551 589 560 q 665 513 636 535 q 715 463 693 490 q 749 403 736 436 q 763 333 763 371 q 724 209 763 265 q 629 111 686 153 q 505 43 572 69 q 381 6 438 17 q 329 1 361 3 q 282 3 297 0 q 208 33 238 13 q 156 93 178 53 q 238 432 94 217 q 246 444 242 439 q 253 454 250 450 q 258 464 256 460 q 252 467 258 465 q 239 472 246 469 q 130 531 181 492 q 60 631 79 571 m 260 685 l 264 682 q 287 672 269 679 q 325 656 304 664 q 364 641 346 647 q 388 635 382 635 q 410 658 393 635 q 439 697 424 676 q 467 736 454 718 q 487 767 479 754 q 494 779 494 779 l 492 779 q 486 778 489 779 q 472 775 481 778 q 423 763 453 772 q 363 743 393 754 q 305 718 332 732 q 265 692 278 704 l 260 685 m 560 335 q 543 351 557 340 q 513 371 529 361 q 481 388 496 381 q 461 396 465 396 q 450 383 460 396 q 428 353 440 371 q 402 316 415 336 q 379 279 389 296 q 360 242 371 265 q 346 210 349 218 q 349 205 344 204 q 374 210 354 206 q 435 232 404 218 q 490 261 467 246 q 543 303 522 281 q 560 335 564 326 z "},"9":{"ha":865,"x_min":46,"x_max":815,"o":"m 281 422 q 140 497 196 442 q 65 625 85 553 q 65 774 46 697 q 126 902 83 844 q 226 1001 168 960 q 354 1066 285 1043 q 494 1092 424 1089 q 674 1056 599 1096 q 786 939 750 1015 q 808 872 801 904 q 815 799 815 839 q 792 662 815 732 q 732 524 768 592 q 653 395 696 457 q 569 285 610 333 q 510 215 538 246 q 454 158 482 185 q 396 105 426 131 q 328 51 365 79 q 294 26 308 36 q 267 12 279 17 q 244 4 256 7 q 221 1 233 1 q 200 2 206 1 q 183 6 194 3 l 185 6 q 137 40 154 17 q 117 94 119 64 q 117 123 115 111 q 126 147 119 135 q 182 199 143 182 q 215 219 193 203 q 263 258 238 236 q 315 303 289 279 q 360 349 342 328 q 378 371 368 358 q 399 395 389 383 q 415 416 408 407 q 422 425 422 425 q 416 424 421 425 q 404 422 411 424 q 377 420 394 421 q 341 419 360 419 q 306 420 322 419 q 281 422 289 421 m 265 738 q 274 651 246 688 q 294 632 282 640 q 319 621 306 624 q 348 619 328 618 q 383 624 368 621 q 434 641 407 629 q 486 668 461 653 q 519 695 503 679 q 538 718 535 711 q 563 758 544 740 q 601 782 581 775 l 614 786 l 614 801 q 608 841 615 822 q 590 869 601 860 q 510 890 568 890 q 435 880 474 890 q 364 850 397 869 q 304 802 331 831 q 265 738 278 774 z "},"\u0000":{"ha":0,"x_min":0,"x_max":0,"o":""},"\r":{"ha":0,"x_min":0,"x_max":0,"o":""}," ":{"ha":436,"x_min":0,"x_max":0,"o":""},"\n":{"ha":0,"x_min":0,"x_max":0,"o":""},"!":{"ha":374,"x_min":61,"x_max":314,"o":"m 308 936 q 313 917 311 926 q 313 892 314 907 q 308 853 311 878 q 297 789 304 829 q 272 592 279 686 q 267 397 264 499 q 268 347 268 365 q 268 320 268 329 q 267 306 268 311 q 264 296 267 301 q 223 243 253 261 q 157 229 193 225 q 103 253 126 232 q 71 307 81 275 q 69 317 69 311 q 67 333 68 322 q 67 363 67 343 q 67 414 67 382 q 67 535 65 485 q 74 629 69 585 q 83 718 76 668 q 96 804 89 768 l 103 849 l 99 867 q 99 906 96 886 q 114 950 101 926 q 208 1014 143 1014 q 273 993 244 1014 q 308 936 301 972 m 176 183 q 241 155 215 181 q 269 90 267 129 q 263 46 272 67 q 236 10 253 25 q 197 -13 219 -6 q 151 -18 175 -21 q 94 10 118 -14 q 67 68 69 35 q 97 153 61 117 q 134 178 115 171 q 176 183 153 185 z "},"\"":{"ha":560,"x_min":42,"x_max":517,"o":"m 188 1046 q 232 1032 213 1044 q 263 1001 251 1019 q 278 959 275 982 q 274 911 282 936 q 260 874 269 894 q 236 836 250 854 q 206 803 222 818 q 172 785 189 789 q 129 782 149 778 q 67 818 92 788 q 44 886 42 849 q 51 915 46 901 q 67 946 56 928 q 77 965 71 953 q 88 985 83 976 q 129 1033 103 1017 q 188 1046 156 1049 m 513 967 q 516 943 515 954 q 513 919 517 932 q 503 891 510 907 q 486 853 497 875 q 414 786 460 799 q 390 783 404 783 q 365 786 375 783 q 328 804 346 790 q 301 838 311 818 q 300 931 279 881 q 308 947 303 938 q 315 963 313 956 q 353 1021 331 997 q 417 1044 375 1044 q 479 1023 453 1044 q 513 967 506 1001 z "},"#":{"ha":1040,"x_min":50,"x_max":1000,"o":"m 997 701 q 981 640 1000 669 q 931 600 963 611 q 917 596 924 597 q 899 594 910 594 q 869 597 888 594 q 818 603 850 599 q 768 609 789 607 q 746 611 747 611 q 742 599 746 610 q 735 574 739 589 l 725 539 l 740 538 q 800 535 776 536 q 831 531 824 533 q 881 494 863 519 q 899 436 899 468 q 881 379 899 404 q 833 340 864 354 q 818 337 826 338 q 778 336 810 336 q 737 337 758 336 q 704 338 715 338 l 676 339 l 668 296 q 656 228 661 261 q 647 172 650 196 q 645 153 644 157 q 650 140 646 150 q 657 81 664 113 q 625 25 650 49 q 546 -10 590 -10 q 521 -7 532 -10 q 474 23 493 3 q 446 71 454 43 q 444 151 439 96 q 465 301 449 207 q 469 319 468 311 q 471 333 469 326 q 474 347 472 342 q 462 349 474 347 q 435 351 450 350 q 408 352 421 351 q 390 353 394 353 l 383 353 l 368 297 q 357 252 361 274 q 351 224 353 231 q 319 163 344 188 q 257 133 294 138 q 201 146 229 131 q 161 188 174 161 q 152 209 156 199 q 149 233 149 219 q 153 264 150 246 q 164 308 157 282 q 169 328 167 319 q 174 344 172 338 q 178 360 176 353 l 171 361 q 164 362 168 361 q 154 363 160 363 q 80 391 110 365 q 50 463 50 417 q 65 514 50 490 q 104 550 79 538 q 117 556 111 554 q 131 559 122 558 q 151 560 139 560 q 182 561 163 561 l 231 561 l 243 601 q 251 631 247 618 q 254 644 254 643 q 249 648 254 647 q 228 650 244 649 q 169 660 186 654 q 136 682 151 667 q 107 751 107 711 q 131 817 107 792 q 192 851 154 843 q 211 853 203 854 q 250 850 219 853 q 285 846 268 847 q 308 844 301 844 l 325 843 l 329 854 q 358 922 344 885 q 382 992 371 960 q 420 1048 394 1025 q 483 1071 446 1071 q 551 1043 522 1071 q 581 971 581 1015 q 576 941 581 956 q 557 885 572 926 q 544 851 549 865 q 539 836 539 838 q 564 832 539 833 q 585 831 575 832 q 597 829 594 831 l 604 829 l 608 839 q 616 860 610 844 q 629 896 622 876 q 642 934 639 922 q 646 951 646 946 q 652 983 646 965 q 667 1016 658 1000 q 689 1046 676 1032 q 714 1067 701 1060 q 740 1076 724 1072 q 819 1063 782 1088 q 863 994 856 1039 q 864 975 864 985 q 860 952 864 965 q 850 919 857 939 q 832 868 843 900 q 816 826 822 843 q 810 807 810 808 q 826 804 817 806 q 843 802 833 803 q 864 799 853 801 q 905 793 886 796 q 929 788 924 790 q 976 756 958 778 q 997 701 994 733 m 522 553 q 527 572 524 558 q 534 598 531 585 q 540 622 538 611 q 543 633 543 633 l 503 636 q 476 637 488 636 q 463 638 464 638 q 458 623 463 636 q 449 594 454 610 q 441 566 444 579 q 438 553 438 553 q 451 551 439 551 q 478 549 463 550 q 493 548 486 549 q 506 547 500 547 l 518 546 q 522 553 519 546 z "},"$":{"ha":742,"x_min":46,"x_max":701,"o":"m 682 539 q 669 429 701 482 q 563 340 638 376 q 479 311 521 322 l 461 306 l 458 275 q 456 245 457 260 q 457 219 456 231 q 458 198 458 206 q 456 183 457 190 q 409 121 444 143 q 333 108 374 99 q 294 128 313 114 q 267 160 276 142 q 256 194 258 176 q 254 243 253 211 l 256 279 l 228 276 q 204 274 217 275 q 186 271 192 272 q 115 277 147 263 q 67 324 82 292 q 66 409 46 367 q 133 465 86 451 q 169 473 149 469 q 233 479 189 476 q 308 487 276 483 q 340 492 339 490 l 336 493 q 332 494 335 493 q 326 494 329 494 q 243 513 288 501 q 160 545 199 525 q 93 597 121 565 q 58 675 65 628 q 87 787 51 733 q 197 885 122 840 q 216 895 208 890 q 226 901 224 900 q 229 910 231 904 q 227 934 228 913 q 225 988 226 956 q 225 1047 225 1031 q 228 1072 225 1063 q 268 1138 236 1114 q 340 1156 300 1161 q 390 1133 368 1151 q 422 1086 413 1114 q 426 1067 425 1076 q 426 1025 426 1058 q 427 983 426 989 q 431 976 428 976 q 440 977 433 976 q 457 981 447 978 q 485 984 469 983 q 517 984 501 985 q 547 983 533 983 q 569 979 561 982 q 654 897 639 960 q 654 857 658 876 q 638 822 650 838 q 609 794 626 806 q 571 781 592 783 q 538 781 557 776 q 483 781 511 785 q 399 758 442 774 q 318 721 357 743 q 300 711 303 714 q 300 707 297 708 q 317 703 303 706 q 353 696 332 700 q 440 677 406 685 q 498 663 475 669 q 536 652 521 657 q 567 642 551 647 q 682 539 660 607 z "},"%":{"ha":893,"x_min":32,"x_max":847,"o":"m 197 775 q 122 799 157 778 q 67 857 86 821 q 45 984 32 915 q 113 1106 58 1053 q 165 1143 140 1132 q 218 1154 189 1154 q 238 1156 231 1154 q 256 1160 244 1157 q 292 1167 271 1167 q 329 1164 314 1168 q 425 1085 392 1151 q 445 979 449 1035 q 411 878 442 924 q 354 821 392 847 q 279 783 317 794 q 197 775 236 771 m 632 793 q 451 469 531 644 q 324 119 371 294 l 313 79 l 314 57 q 313 24 315 35 q 288 -22 306 -3 q 244 -50 269 -42 q 215 -55 233 -54 q 186 -53 197 -56 q 144 -31 163 -46 q 118 3 126 -17 q 109 28 113 15 q 106 58 106 42 q 111 97 107 75 q 124 149 115 118 q 182 339 147 240 q 260 535 217 438 q 354 726 304 633 q 458 897 404 818 q 494 950 472 917 q 535 1011 515 983 q 582 1081 564 1056 q 612 1122 600 1107 q 632 1144 624 1138 q 650 1156 640 1151 q 697 1167 675 1167 q 767 1140 738 1167 q 797 1068 797 1113 q 791 1033 797 1049 q 769 997 785 1018 q 699 896 733 947 q 632 793 665 844 m 210 967 q 206 950 206 958 q 210 939 206 942 q 224 938 213 936 q 243 943 235 939 q 283 992 283 963 l 283 1001 l 272 1001 q 253 997 261 1001 q 244 994 249 996 q 236 992 239 993 q 210 967 219 989 m 824 435 q 844 329 847 385 q 810 228 842 274 q 769 183 794 206 q 715 147 743 161 q 656 127 688 133 q 596 124 624 121 q 520 151 551 131 q 465 207 489 171 q 444 334 431 265 q 513 456 457 403 q 564 492 540 482 q 618 504 588 503 q 649 508 639 504 q 689 517 664 515 q 733 513 714 518 q 824 435 793 499 m 682 351 l 672 351 q 662 350 668 351 q 651 347 656 349 q 635 343 642 343 q 622 335 631 343 q 610 318 614 326 q 605 300 606 308 q 608 289 604 292 q 623 288 613 286 q 643 293 633 289 q 682 342 682 313 l 682 351 z "},"&":{"ha":1017,"x_min":49,"x_max":961,"o":"m 846 286 q 869 258 860 269 q 884 238 878 247 q 896 222 890 229 q 907 206 901 214 q 939 150 931 171 q 947 107 947 129 q 918 35 947 64 q 875 9 900 17 q 824 7 850 1 q 775 34 794 13 q 746 82 756 56 q 738 94 744 85 q 722 117 731 104 q 702 144 713 131 q 683 167 692 157 l 675 178 l 649 165 q 400 89 521 101 q 293 99 343 83 q 208 150 243 115 q 163 239 171 188 q 160 265 160 256 q 163 293 160 274 q 197 390 169 336 q 264 493 224 444 q 269 500 267 497 q 274 506 272 503 q 278 511 276 508 q 265 521 272 515 q 251 531 258 525 q 235 542 244 536 q 170 590 203 565 q 110 646 138 615 q 66 712 83 676 q 49 790 49 747 q 49 818 49 810 q 53 838 50 826 q 129 953 71 903 q 294 1046 188 1003 q 456 1094 381 1079 q 588 1104 531 1110 q 772 1021 713 1093 q 774 792 846 928 q 747 746 761 769 q 710 694 732 722 q 660 632 689 667 q 590 551 631 597 l 582 542 l 586 538 q 603 525 590 535 q 629 504 615 515 q 657 483 643 493 q 678 465 671 472 l 699 446 l 706 454 q 728 487 715 465 q 753 528 742 508 q 775 567 767 554 q 794 589 783 579 q 840 615 815 610 q 910 606 876 625 q 957 550 944 586 q 960 536 960 543 q 961 518 961 529 q 960 502 961 508 q 957 488 960 496 q 948 467 954 479 q 931 435 942 454 q 891 367 908 393 q 847 310 874 340 l 838 299 l 846 286 m 449 696 q 526 785 497 749 q 576 853 554 821 q 595 884 588 871 q 601 899 603 897 q 561 904 590 904 q 497 897 528 904 q 403 871 453 889 q 314 833 354 853 q 272 808 292 822 q 253 789 253 794 q 272 769 253 786 q 311 736 290 751 q 339 717 321 729 q 374 692 357 704 q 405 670 392 679 q 418 661 418 661 q 428 671 422 665 q 449 696 436 682 m 406 293 q 438 301 418 296 q 477 312 458 306 q 510 324 496 318 q 524 331 524 329 q 513 340 524 332 q 474 371 503 347 q 449 389 454 386 q 442 389 444 392 q 427 374 436 385 q 408 349 418 363 q 390 323 399 336 q 376 301 381 310 l 372 290 l 379 290 q 390 291 382 290 q 406 293 397 292 z "},"'":{"ha":319,"x_min":44,"x_max":278,"o":"m 275 965 q 277 937 278 954 q 271 906 276 919 q 260 878 268 894 q 240 844 251 861 q 217 813 229 828 q 193 792 204 799 q 163 781 181 785 q 129 779 144 776 q 53 836 78 788 l 44 853 l 44 878 q 48 910 44 899 q 65 943 51 921 q 76 963 69 951 q 85 981 82 974 q 125 1025 100 1010 q 178 1040 150 1040 q 240 1019 213 1040 q 275 965 267 999 z "},"(":{"ha":553,"x_min":60,"x_max":492,"o":"m 479 1058 q 450 961 492 1006 q 431 937 440 950 q 410 907 421 924 q 388 868 400 890 q 361 814 376 846 q 323 733 339 769 q 296 661 307 696 q 278 592 285 626 q 267 518 271 558 q 264 483 265 504 q 263 438 263 461 q 263 395 263 415 q 265 363 264 375 q 274 313 268 342 q 288 255 279 285 q 308 199 296 225 q 333 157 319 172 q 360 102 357 133 q 347 42 364 71 q 303 -1 332 14 q 242 -8 274 -15 q 194 14 217 -3 q 156 58 171 31 q 124 119 142 79 q 94 196 107 160 q 61 453 60 304 q 71 577 63 519 q 94 690 79 635 q 133 799 110 746 q 185 911 156 853 q 212 964 200 942 q 234 1003 224 986 q 254 1035 244 1021 q 275 1065 264 1050 q 360 1131 318 1121 q 434 1120 399 1142 q 479 1058 469 1099 z "},")":{"ha":414,"x_min":26,"x_max":350,"o":"m 346 629 q 349 589 347 614 q 350 537 350 564 q 350 485 350 510 q 349 449 350 461 q 331 325 343 390 q 301 210 318 260 q 287 163 296 189 q 269 113 278 138 q 253 72 260 89 q 244 50 247 54 q 214 17 233 31 q 172 0 194 3 q 156 -3 161 -3 q 140 0 151 -3 q 78 38 103 7 q 58 108 54 69 q 71 158 58 121 q 101 245 90 211 q 119 306 113 279 q 131 355 126 332 q 140 408 136 378 q 149 475 147 449 q 150 538 151 501 q 140 649 149 586 q 119 778 132 713 q 86 904 106 843 q 43 1010 67 965 q 30 1041 33 1029 q 26 1069 26 1053 q 52 1138 26 1110 q 118 1169 78 1167 q 213 1119 175 1174 q 265 1008 242 1071 q 303 881 288 946 q 330 750 319 815 q 346 629 340 685 z "},"*":{"ha":953,"x_min":49,"x_max":901,"o":"m 899 550 q 900 522 901 539 q 894 493 899 504 q 853 444 879 457 q 790 428 826 431 l 761 426 l 796 396 q 824 369 813 381 q 841 350 835 358 q 851 334 847 342 q 857 315 854 326 q 831 222 871 263 q 760 193 803 193 q 706 208 729 193 q 678 231 701 211 q 624 280 656 251 q 555 341 592 308 q 486 401 518 374 q 480 401 483 404 q 458 375 476 399 q 417 322 440 351 q 374 266 394 293 q 338 219 353 239 q 318 192 322 199 q 254 143 294 154 q 206 143 229 139 q 168 162 186 149 q 140 192 150 175 q 129 240 129 214 q 140 289 129 265 q 165 326 143 296 q 222 400 188 356 l 244 429 l 194 431 q 153 431 167 431 q 132 435 139 432 q 70 479 92 446 q 56 551 49 513 q 73 589 60 571 q 104 618 86 607 q 132 628 119 626 q 182 632 144 631 l 228 633 l 181 676 q 144 710 161 694 q 124 729 126 725 q 99 781 103 750 q 108 842 93 811 q 151 886 124 872 q 176 894 165 893 q 203 896 188 896 q 253 879 229 894 q 276 860 256 878 q 324 818 296 843 q 384 765 351 793 q 446 710 417 736 l 463 693 l 492 728 q 518 763 503 743 q 543 796 533 782 q 597 858 567 829 q 671 886 626 886 q 741 857 713 886 q 769 786 769 828 q 739 715 769 746 q 726 703 729 703 q 708 679 725 703 q 694 659 701 669 q 682 643 686 649 l 672 631 l 719 631 q 759 628 739 629 q 789 628 779 628 q 859 609 828 628 q 899 550 890 590 z "},"+":{"ha":722,"x_min":43,"x_max":679,"o":"m 632 558 q 661 528 650 546 q 676 491 672 511 q 674 450 679 471 q 656 411 669 429 q 617 381 640 392 q 568 369 593 369 q 529 376 550 369 q 439 388 482 388 l 433 388 l 435 340 q 436 301 435 321 q 439 271 438 281 q 440 250 440 256 q 438 233 440 244 q 414 186 432 206 q 368 158 394 165 q 315 157 342 150 q 257 199 279 165 q 246 219 250 208 q 240 244 242 229 q 236 281 238 258 q 235 338 235 303 q 233 387 233 367 q 233 408 233 407 q 219 408 226 408 q 203 409 213 408 q 183 410 194 410 q 147 411 164 410 q 124 414 129 413 q 65 449 88 421 q 43 513 43 476 q 64 574 43 549 q 121 610 85 600 q 140 613 129 613 q 186 611 151 613 l 239 610 l 240 649 q 244 709 242 685 q 249 744 246 733 q 293 810 257 786 q 369 822 329 833 q 406 804 389 817 q 432 776 422 792 q 446 733 442 760 q 446 681 450 706 q 442 626 442 664 l 442 590 l 451 589 q 472 588 454 589 q 508 583 489 586 q 560 578 540 581 q 593 574 581 576 q 615 567 606 571 q 632 558 624 564 z "},",":{"ha":319,"x_min":44,"x_max":276,"o":"m 271 132 q 261 67 276 106 q 253 44 258 58 q 244 19 247 31 q 229 -17 235 -6 q 213 -39 224 -28 q 144 -65 182 -65 q 83 -44 111 -65 q 47 11 54 -24 q 45 42 44 25 q 50 74 46 58 q 58 96 53 82 q 68 124 63 110 q 78 150 74 138 q 86 167 83 163 q 174 217 114 217 q 237 193 210 217 q 271 132 264 169 z "},"-":{"ha":685,"x_min":35,"x_max":647,"o":"m 560 581 q 624 534 601 569 q 636 458 647 499 q 568 388 622 406 q 560 385 564 386 q 547 384 556 385 q 524 383 539 383 q 481 383 508 383 q 412 383 449 383 q 354 382 375 383 q 246 377 290 379 q 168 374 201 375 q 102 382 131 374 q 54 429 74 390 q 53 513 35 471 q 117 568 71 554 q 131 572 124 571 q 155 574 139 574 q 199 577 171 575 q 276 581 228 579 q 355 583 308 582 q 445 583 401 583 q 522 583 489 583 q 560 581 554 582 z "},".":{"ha":292,"x_min":44,"x_max":251,"o":"m 236 140 q 246 81 251 111 q 217 26 240 50 q 124 0 178 -11 q 67 36 90 8 q 44 99 44 64 q 73 169 44 140 q 143 199 101 199 q 199 183 175 199 q 236 140 222 168 z "},"/":{"ha":710,"x_min":40,"x_max":640,"o":"m 540 1176 q 610 1148 581 1176 q 640 1078 639 1119 q 638 1053 640 1065 q 628 1022 636 1040 q 608 976 621 1004 q 572 904 594 949 q 433 616 499 761 q 314 319 367 471 q 267 185 286 238 q 239 114 247 133 q 193 58 219 75 q 156 46 178 49 q 117 47 133 43 q 70 75 90 54 q 44 122 50 96 q 43 160 40 142 q 57 201 46 178 q 81 262 65 219 q 118 368 96 304 q 154 469 138 424 q 188 556 171 514 q 222 638 204 597 q 263 726 240 679 q 290 782 274 747 q 318 843 306 817 q 351 914 331 871 q 390 992 372 957 q 423 1057 408 1026 q 442 1099 438 1088 q 478 1154 454 1132 q 540 1176 503 1176 z "},":":{"ha":308,"x_min":53,"x_max":256,"o":"m 121 578 q 56 653 68 594 q 53 667 53 661 q 54 683 53 672 q 90 749 60 725 q 156 774 119 774 q 192 767 174 774 q 225 744 210 760 q 256 672 256 714 q 226 601 256 631 q 138 572 189 564 q 121 578 135 572 m 154 528 q 226 499 197 528 q 256 426 256 469 q 238 368 256 393 q 189 332 219 343 q 163 326 178 328 q 136 328 147 325 q 84 359 107 335 q 57 414 61 383 q 60 457 54 436 q 80 493 67 478 q 113 518 93 508 q 154 528 132 528 z "},";":{"ha":347,"x_min":51,"x_max":294,"o":"m 169 621 q 118 650 140 628 q 90 700 96 672 q 88 714 89 706 q 89 731 88 722 q 97 767 89 750 q 119 796 106 783 q 151 815 133 808 q 186 822 168 822 q 243 804 217 822 q 276 771 264 790 q 290 729 288 751 q 286 685 293 707 q 263 647 279 664 q 219 621 243 628 q 169 621 194 614 m 194 529 q 240 517 219 529 q 273 488 260 506 q 290 447 286 469 q 288 400 294 424 q 273 372 283 389 q 249 339 263 356 q 222 308 236 322 q 197 288 208 294 q 168 278 186 281 q 135 278 150 275 q 91 297 110 282 q 62 332 72 311 q 51 378 51 353 q 64 425 51 403 q 87 462 74 443 q 116 495 100 481 q 152 519 132 510 q 194 529 172 529 z "},"<":{"ha":506,"x_min":49,"x_max":453,"o":"m 397 381 q 433 349 419 369 q 449 307 446 329 q 446 262 453 285 q 421 221 439 239 q 344 190 390 190 q 326 191 333 190 q 313 194 319 192 q 278 213 294 201 q 233 253 261 225 q 203 281 225 261 q 158 321 182 301 q 112 365 129 347 q 83 395 94 382 q 66 419 72 408 q 56 444 60 431 q 50 463 51 456 q 49 485 49 469 q 50 510 49 499 q 57 535 51 522 q 72 563 63 547 q 94 601 81 579 q 119 640 104 617 q 144 681 133 663 q 173 726 156 699 q 204 772 190 753 q 230 812 218 792 q 246 839 242 832 q 297 892 264 875 q 365 897 329 908 q 418 861 397 890 q 439 800 439 832 q 436 775 439 788 q 426 748 433 763 q 408 714 419 733 q 376 667 396 694 q 348 624 367 651 q 312 567 329 596 q 281 518 294 539 q 268 496 268 497 q 276 488 272 492 q 284 481 279 485 q 294 471 289 476 q 323 444 306 460 q 353 417 340 429 q 379 393 369 401 q 397 381 389 385 z "},"=":{"ha":675,"x_min":53,"x_max":626,"o":"m 567 675 q 610 632 594 661 q 621 571 626 603 q 601 526 617 547 q 564 494 585 506 q 533 484 550 488 q 506 483 517 481 q 492 486 504 485 q 467 488 481 488 q 442 489 454 489 q 428 489 431 489 q 375 491 406 490 q 325 493 344 492 q 271 495 304 494 q 210 497 238 496 q 135 501 146 499 q 81 538 101 511 q 60 600 60 565 q 80 660 60 633 q 133 696 100 688 q 142 698 138 697 q 157 699 147 699 q 183 698 167 699 q 226 697 200 697 q 344 694 286 696 q 482 689 403 692 q 516 688 503 689 q 538 686 529 688 q 553 682 547 685 q 567 675 560 679 m 536 407 q 592 373 571 400 q 614 311 614 346 q 592 247 614 275 q 533 213 569 219 q 516 210 528 211 q 482 209 504 210 q 426 208 460 208 q 344 206 393 207 q 200 201 274 206 l 171 201 q 158 200 164 200 q 154 200 157 200 q 149 201 151 200 q 143 201 146 201 q 78 232 104 204 q 53 299 53 260 q 63 346 53 326 q 89 377 72 365 q 128 395 106 389 q 175 403 150 401 q 200 403 186 403 q 221 404 214 404 q 295 407 251 407 q 417 408 339 407 q 504 410 479 410 q 536 407 529 410 z "},">":{"ha":479,"x_min":57,"x_max":431,"o":"m 422 635 q 428 610 426 619 q 431 585 431 600 q 427 553 431 568 q 415 519 424 539 q 389 474 406 500 q 346 407 372 447 q 287 312 310 351 q 261 258 264 272 q 237 203 257 226 q 186 174 217 181 q 160 170 175 171 q 133 172 144 169 q 87 200 107 179 q 60 249 67 221 q 58 276 57 260 q 61 307 58 292 q 84 361 69 332 q 116 419 99 390 q 151 477 133 449 q 185 528 169 506 q 200 551 192 539 q 213 571 208 564 l 221 585 l 208 603 q 192 622 203 610 q 174 646 182 635 q 132 699 151 672 q 93 754 113 726 q 67 794 74 778 q 60 833 61 810 q 90 913 58 882 q 163 942 121 942 q 215 926 192 942 q 254 882 239 911 q 267 860 258 874 q 285 832 275 846 q 304 805 294 818 q 319 785 314 792 q 385 701 358 740 q 422 635 413 661 z "},"?":{"ha":801,"x_min":57,"x_max":765,"o":"m 717 951 q 760 844 754 903 q 738 728 765 786 q 705 674 724 699 q 657 624 686 650 q 585 569 628 599 q 482 501 543 539 q 420 462 446 479 q 376 430 394 444 q 343 402 357 415 q 317 375 329 389 q 292 340 303 358 q 275 308 281 322 q 264 283 268 292 q 251 265 260 274 q 206 237 232 244 q 153 236 179 229 q 106 264 125 243 q 81 313 86 285 q 79 344 78 325 q 85 375 81 363 q 130 460 99 414 q 201 544 161 506 q 232 573 217 560 q 267 601 247 586 q 313 633 288 615 q 376 672 339 650 q 448 719 418 699 q 498 754 478 739 q 531 781 518 769 q 550 804 543 793 q 557 822 557 815 q 550 833 557 828 q 512 843 539 840 q 458 842 485 846 q 406 830 438 839 q 344 806 375 821 q 286 774 313 792 q 250 736 260 756 q 214 694 238 708 q 161 679 190 679 q 116 690 136 679 q 82 717 96 700 q 63 758 68 735 q 63 806 57 781 q 104 881 71 846 q 182 946 138 917 q 274 996 226 975 q 358 1026 322 1017 q 428 1042 393 1038 q 494 1046 463 1046 q 617 1024 557 1046 q 717 951 678 1003 m 158 174 q 222 151 193 174 q 257 89 250 129 q 244 25 263 56 q 193 -19 226 -6 q 163 -24 182 -24 q 132 -22 143 -25 q 78 15 97 -11 q 60 76 60 42 q 89 145 60 117 q 158 174 118 174 z "},"@":{"ha":1197,"x_min":56,"x_max":1142,"o":"m 1139 575 q 1140 477 1142 517 q 1131 406 1138 438 q 1044 260 1107 317 q 888 203 981 203 q 762 227 817 203 q 665 310 707 251 q 660 308 665 311 q 647 303 654 306 q 606 288 626 293 q 557 283 585 283 q 513 285 531 282 q 472 294 496 288 q 367 356 410 315 q 304 456 324 397 q 322 636 275 546 q 422 750 357 707 q 567 793 488 793 q 666 774 621 793 q 747 711 711 754 q 759 701 753 706 q 769 693 765 696 q 792 674 781 686 q 810 650 803 663 q 820 619 818 633 q 819 572 822 606 q 818 527 818 544 q 819 497 818 510 q 821 474 819 485 q 826 450 822 464 q 839 414 835 418 q 879 404 847 406 q 897 403 893 403 q 907 407 901 404 q 938 463 929 421 q 940 486 940 474 q 940 531 940 499 q 935 598 939 568 q 920 655 931 628 q 892 707 910 682 q 847 758 875 732 q 744 831 797 808 q 619 854 690 854 q 513 849 556 857 q 426 818 469 840 q 398 801 414 813 q 367 778 382 790 q 338 755 351 767 q 318 733 325 743 q 282 670 297 707 q 260 592 267 633 q 325 357 239 456 q 375 315 346 335 q 437 279 404 296 q 503 251 469 263 q 565 235 536 240 q 617 224 604 228 q 642 215 631 221 q 665 197 653 208 q 682 174 676 185 q 692 113 697 143 q 664 58 688 82 q 633 36 649 43 q 594 29 618 29 q 465 52 529 29 q 344 103 401 75 q 155 247 225 161 q 60 464 85 333 q 57 491 58 475 q 56 526 56 507 q 56 562 56 544 q 58 592 57 579 q 142 831 76 735 q 333 996 207 928 q 380 1016 351 1004 q 429 1035 408 1028 q 471 1044 444 1039 q 522 1053 497 1050 q 559 1055 535 1054 q 609 1056 583 1056 q 658 1054 635 1056 q 692 1051 681 1053 q 861 995 782 1038 q 1001 890 940 953 q 1098 747 1061 828 q 1139 575 1135 667 m 603 553 q 601 572 604 565 q 589 588 599 579 q 581 592 583 592 q 568 593 578 593 q 517 567 539 593 q 500 544 507 557 q 493 526 493 532 q 508 499 493 511 q 537 484 521 488 q 564 485 553 481 q 588 513 575 490 q 603 553 600 535 z "},"A":{"ha":854,"x_min":32,"x_max":808,"o":"m 115 576 q 53 619 75 588 q 32 692 32 651 q 50 771 32 733 q 96 840 68 808 q 159 897 124 872 q 229 938 194 922 q 308 960 267 953 q 390 968 349 968 q 541 942 476 968 q 652 871 606 917 q 730 762 699 825 q 782 624 761 699 q 796 549 790 592 q 805 459 801 507 q 808 360 808 411 q 806 261 808 310 q 802 201 803 236 q 801 140 801 165 q 801 92 801 108 q 799 71 800 76 q 762 18 789 39 q 703 -1 735 -3 q 647 15 671 -1 q 610 60 624 32 q 599 81 603 75 q 583 88 594 88 q 567 85 576 88 q 542 81 557 83 q 475 71 504 74 q 406 68 446 68 q 322 74 365 68 q 239 93 279 79 q 163 128 199 107 q 100 183 128 150 q 54 306 56 240 q 96 431 53 371 q 177 508 128 476 q 283 561 226 540 q 400 591 340 582 q 513 600 460 600 q 537 601 528 600 q 550 602 546 601 q 556 603 554 603 q 560 606 558 604 q 568 618 565 610 q 569 627 569 624 q 565 639 568 631 q 551 669 561 650 q 533 701 542 689 q 478 749 508 735 q 406 765 447 764 q 247 707 300 769 l 238 696 l 238 676 q 222 619 238 643 q 174 581 204 592 q 115 576 144 569 m 604 346 q 590 379 604 367 q 526 397 576 393 q 476 397 504 400 q 418 389 447 394 q 361 375 389 383 q 314 356 333 367 q 263 318 279 338 l 257 310 l 263 304 q 299 285 275 293 q 353 274 324 278 q 376 272 363 272 q 406 271 390 271 q 435 271 421 271 q 463 272 450 271 q 515 281 488 275 q 563 293 542 286 q 596 312 588 301 q 604 346 604 322 z "},"B":{"ha":844,"x_min":13,"x_max":815,"o":"m 106 657 q 68 687 86 671 q 40 718 50 703 q 19 762 26 738 q 14 806 13 786 q 28 849 17 828 q 56 886 39 871 q 158 949 94 926 q 304 974 222 971 q 480 951 392 976 q 636 876 568 925 q 722 795 689 839 q 767 703 756 751 q 775 665 774 679 q 774 631 776 650 q 747 545 767 583 q 690 471 728 507 q 672 455 682 464 q 654 440 661 446 q 620 415 625 419 q 615 407 615 410 q 621 397 615 401 q 642 386 626 393 q 703 356 672 374 q 760 313 735 338 q 800 259 785 289 q 815 192 815 229 q 790 106 815 142 q 724 47 764 71 q 638 10 685 22 q 550 -6 592 -3 q 514 -8 528 -8 q 476 -6 500 -8 q 344 29 407 0 q 236 107 281 58 q 153 245 183 165 q 117 435 124 325 q 115 507 114 467 q 119 579 117 547 q 122 620 122 608 q 118 640 122 632 q 106 657 114 651 m 358 804 q 322 807 340 807 q 301 804 304 807 q 315 788 301 801 q 328 774 322 781 q 336 763 333 767 q 352 747 343 751 q 385 742 361 743 q 417 738 407 740 q 442 728 426 735 q 467 710 456 722 q 485 688 479 699 q 490 675 489 681 q 490 657 490 669 q 480 617 490 633 q 453 592 469 601 q 415 577 436 582 q 374 572 394 572 q 345 570 350 571 q 336 564 340 569 q 326 549 328 557 q 322 513 324 540 l 321 481 l 325 479 q 338 478 331 476 q 365 488 344 481 q 474 540 426 511 q 544 596 521 568 q 561 682 579 635 q 527 730 554 704 q 468 772 500 756 q 415 792 446 783 q 358 804 383 801 m 610 196 q 582 220 610 204 q 522 246 554 236 q 477 258 501 253 q 431 266 453 263 q 392 269 408 269 q 369 267 375 269 q 364 262 364 264 q 368 251 364 260 q 427 185 390 208 q 513 161 464 161 q 537 163 521 161 q 569 169 553 165 q 597 181 585 174 q 610 196 610 188 z "},"C":{"ha":838,"x_min":28,"x_max":803,"o":"m 28 464 q 65 649 28 557 q 167 813 103 740 q 316 929 231 885 q 499 974 401 974 q 637 944 569 974 q 747 856 704 914 q 781 798 767 832 q 800 733 796 764 q 802 710 801 725 q 803 678 803 694 q 802 647 803 661 q 800 625 801 632 q 728 550 786 565 q 659 560 693 540 q 613 617 625 581 q 610 634 611 619 q 610 668 610 649 l 608 713 l 601 726 q 574 758 593 744 q 531 776 554 771 q 514 780 522 779 q 490 779 506 781 q 406 758 447 779 q 332 706 365 738 q 274 633 299 674 q 236 553 249 593 q 225 507 228 529 q 222 453 222 485 q 242 362 225 408 q 288 276 258 315 q 359 213 318 238 q 449 189 400 189 q 540 215 501 189 q 596 290 578 242 q 630 337 607 319 q 685 354 653 354 q 742 335 717 354 q 778 285 768 317 q 781 253 782 271 q 776 221 781 236 q 738 142 764 178 q 678 78 713 106 q 603 31 643 50 q 519 3 563 11 q 495 -1 511 1 q 463 -3 479 -3 q 431 -3 446 -4 q 407 -1 415 -3 q 253 53 324 10 q 133 160 183 96 q 56 302 83 224 q 28 464 28 381 z "},"D":{"ha":819,"x_min":11,"x_max":793,"o":"m 83 57 q 14 139 22 83 q 17 180 11 158 q 38 217 24 201 q 106 246 67 246 q 156 233 131 246 q 185 222 167 228 q 214 217 204 217 q 226 222 222 217 q 228 235 229 226 q 225 279 228 243 q 222 312 224 296 q 219 347 221 328 q 217 392 218 367 q 213 457 215 418 q 210 509 211 478 q 209 574 210 540 q 208 641 208 608 q 208 696 208 674 l 208 751 l 203 758 q 195 764 199 763 q 176 767 192 765 q 113 786 140 767 q 79 842 86 806 q 78 868 76 853 q 83 894 79 883 q 107 931 92 918 q 142 949 122 943 q 184 958 163 956 q 226 960 206 960 q 381 948 310 963 q 518 901 453 933 q 721 722 649 836 q 793 464 793 608 q 765 313 793 383 q 688 186 738 242 q 573 92 639 131 q 431 35 507 53 q 408 28 419 32 q 392 22 397 25 q 328 11 354 6 q 318 13 324 11 q 310 15 313 14 q 275 18 303 18 q 227 21 253 18 q 176 29 201 24 q 126 42 150 35 q 83 57 103 49 m 399 686 q 399 632 399 665 q 399 563 399 599 q 401 495 400 528 q 404 440 403 463 q 407 397 406 421 q 408 358 408 372 q 411 326 410 344 q 415 290 413 307 q 418 262 417 274 q 419 247 419 250 q 438 239 424 242 q 465 249 449 239 q 499 272 482 258 q 531 298 517 285 q 553 318 546 311 q 578 356 565 333 q 596 399 590 379 q 603 491 607 442 q 581 581 599 540 q 482 703 544 660 q 463 715 474 708 q 442 726 453 721 q 424 736 432 732 q 414 740 417 740 q 404 735 410 740 q 399 724 400 731 q 399 686 399 718 z "},"E":{"ha":878,"x_min":28,"x_max":864,"o":"m 32 365 q 29 395 31 376 q 28 434 28 414 q 28 473 28 454 q 31 504 29 492 q 84 672 43 593 q 188 813 125 751 q 329 915 250 875 q 496 968 408 956 q 528 970 510 969 q 565 970 546 971 q 601 968 583 969 q 631 964 618 967 q 754 913 701 950 q 835 819 807 875 q 857 690 864 760 q 808 554 850 619 q 716 456 772 499 q 593 382 660 413 q 456 335 526 351 q 321 315 386 318 q 294 313 299 314 q 286 308 289 313 q 293 283 279 297 q 329 253 308 267 q 374 231 350 240 q 421 218 397 222 q 465 217 444 214 q 508 227 489 219 q 561 254 528 235 q 615 268 588 268 q 688 238 658 268 q 718 164 719 206 q 685 90 717 122 q 625 51 665 71 q 544 21 585 32 q 473 10 510 13 q 403 11 436 7 q 359 19 388 13 q 313 32 331 25 q 126 159 199 71 q 32 365 53 247 m 269 579 q 261 561 263 567 q 260 547 260 556 q 262 533 260 536 q 274 526 264 529 q 308 524 282 524 q 354 526 335 524 q 431 542 390 531 q 509 572 471 554 q 581 615 547 590 q 636 669 614 639 q 647 694 643 681 q 651 714 651 707 q 640 739 651 729 q 614 754 629 749 q 582 761 599 760 q 554 763 565 763 q 466 749 508 763 q 387 710 424 735 q 320 651 350 685 q 269 579 290 618 z "},"F":{"ha":725,"x_min":15,"x_max":728,"o":"m 76 325 q 38 353 53 333 q 19 397 24 372 q 29 451 15 425 q 71 493 43 478 q 93 510 88 501 q 99 553 99 519 q 104 664 99 606 q 128 774 110 722 q 183 867 147 826 q 278 922 218 907 q 348 938 303 931 q 443 953 393 946 q 540 965 493 960 q 618 969 588 969 q 668 963 650 969 q 701 939 686 957 q 727 875 728 911 q 701 813 726 839 q 667 791 686 797 q 619 785 647 785 q 563 781 600 785 q 484 772 525 778 q 404 760 443 767 q 344 749 365 754 q 312 733 319 742 q 297 694 304 725 q 292 658 294 681 q 287 612 289 635 q 284 569 285 589 q 283 540 283 549 q 286 528 285 531 q 292 522 288 525 q 297 518 294 519 q 308 516 300 517 q 328 515 315 515 q 367 513 342 514 q 410 510 390 511 q 438 508 431 510 q 485 485 465 503 q 511 444 504 467 q 513 396 518 421 q 488 351 508 371 q 451 329 471 335 q 397 326 432 324 q 369 328 386 328 q 339 328 351 328 q 303 326 311 328 q 292 314 294 324 q 290 292 290 310 q 292 248 290 274 q 297 192 294 222 q 304 135 300 163 q 309 75 310 94 q 300 38 308 56 q 283 15 294 26 q 264 -3 272 3 q 228 -15 249 -12 q 192 -12 208 -18 q 150 13 168 -6 q 128 56 132 32 q 122 93 125 68 q 116 147 119 118 q 110 206 113 176 q 107 257 108 235 q 99 306 104 293 q 76 325 94 318 z "},"G":{"ha":925,"x_min":26,"x_max":904,"o":"m 26 375 q 65 568 26 474 q 170 741 104 663 q 322 876 236 819 q 501 956 408 933 q 555 967 531 964 q 611 968 579 969 q 715 947 668 965 q 800 885 761 929 q 843 738 858 815 q 812 683 836 704 q 756 663 788 663 q 688 693 717 663 q 661 746 665 713 q 658 760 658 757 q 651 765 657 763 q 607 775 636 775 q 470 738 540 775 q 342 643 400 701 q 248 513 285 585 q 211 372 211 442 q 226 292 211 329 q 266 226 240 254 q 327 179 292 197 q 406 158 363 161 q 506 171 451 154 q 547 188 524 178 q 592 215 571 199 q 627 250 613 231 q 642 293 642 269 q 638 313 642 308 q 589 314 632 318 q 565 310 579 311 q 536 307 550 308 q 489 301 515 304 q 442 294 463 297 q 386 304 414 289 q 346 347 358 319 q 335 388 336 367 q 342 426 335 408 q 363 459 349 444 q 399 482 378 474 q 413 487 406 485 q 432 491 419 489 q 463 495 444 493 q 510 500 481 497 q 554 506 532 503 q 588 510 576 508 q 618 513 599 511 q 656 517 638 514 q 731 524 701 521 q 778 528 760 526 q 805 529 796 529 q 821 528 814 529 q 881 491 858 521 q 901 421 904 461 q 857 349 900 376 q 842 337 846 340 q 836 326 839 333 q 831 289 833 317 q 798 165 828 219 q 721 69 768 110 q 613 2 674 28 q 490 -33 553 -24 q 435 -37 468 -36 q 382 -35 401 -37 q 237 11 303 -25 q 124 102 171 47 q 52 226 78 157 q 26 375 26 296 z "},"H":{"ha":767,"x_min":47,"x_max":726,"o":"m 113 32 q 98 51 104 40 q 86 76 92 61 q 76 115 81 92 q 65 171 71 138 q 54 251 58 213 q 49 329 50 290 q 48 408 47 368 q 51 493 49 449 q 60 578 54 532 q 75 673 67 625 q 94 766 83 721 q 118 846 106 811 q 226 921 146 921 q 286 906 258 921 q 329 863 314 890 q 329 789 344 829 q 313 731 322 769 q 296 650 304 693 q 282 568 288 607 q 275 507 276 529 l 274 486 l 279 481 q 283 476 282 478 q 292 474 285 475 q 313 472 299 474 q 356 468 328 471 q 401 464 385 465 q 425 463 417 463 q 436 463 433 463 q 442 465 439 464 q 453 478 451 468 q 458 533 456 489 q 473 690 461 613 q 508 844 485 768 q 513 862 511 851 q 515 881 514 872 q 549 942 522 921 q 617 964 576 964 q 687 940 656 964 q 724 876 718 917 q 724 849 726 867 q 714 808 721 831 q 692 719 700 756 q 678 652 683 683 q 671 589 674 621 q 667 511 668 557 q 667 363 664 436 q 682 197 671 289 q 694 127 689 150 q 706 89 699 104 q 715 63 713 74 q 717 40 718 51 q 701 3 714 21 q 669 -26 689 -15 q 628 -39 651 -36 q 585 -37 604 -42 q 537 -12 557 -31 q 506 36 517 7 q 488 107 496 60 q 472 208 479 154 q 468 238 469 224 q 465 257 467 253 q 440 281 461 276 q 415 283 435 281 q 372 287 394 285 q 331 290 350 289 q 308 292 313 292 q 290 288 300 292 q 276 282 281 285 q 272 276 274 279 q 272 263 271 274 q 275 236 274 253 q 279 201 276 219 q 285 167 282 183 q 294 143 289 151 q 306 119 303 132 q 308 90 308 107 q 271 24 306 49 q 196 -1 236 -1 q 151 8 174 -1 q 113 32 128 17 z "},"I":{"ha":496,"x_min":31,"x_max":488,"o":"m 78 -8 q 42 36 53 8 q 40 90 31 64 q 89 144 54 129 q 108 153 104 151 q 114 160 111 156 q 119 179 119 167 q 113 228 118 192 q 103 733 71 481 q 105 756 104 744 q 106 775 106 768 q 85 814 106 800 q 46 885 46 840 q 47 903 46 899 q 53 919 47 908 q 108 965 69 953 q 232 978 147 978 q 335 973 299 976 q 388 963 371 969 q 431 928 415 951 q 443 878 446 906 q 411 820 440 843 q 342 797 382 797 q 307 782 322 797 q 300 771 301 776 q 296 742 299 765 q 282 596 286 671 q 281 457 278 521 q 290 332 283 393 q 306 226 296 271 q 314 198 310 207 q 326 183 318 189 q 341 177 333 178 q 376 179 349 176 q 460 151 429 183 q 483 110 479 133 q 481 67 488 88 q 455 31 474 47 q 408 8 436 15 q 380 5 401 7 q 335 0 358 3 q 257 -10 294 -6 q 188 -19 219 -14 q 148 -24 172 -22 q 117 -24 124 -25 q 97 -17 110 -22 q 78 -8 85 -12 z "},"J":{"ha":768,"x_min":39,"x_max":744,"o":"m 392 403 q 340 363 368 386 q 289 313 313 340 q 250 254 265 285 q 235 192 235 224 q 235 178 235 181 q 240 176 236 176 q 263 182 249 176 q 294 197 276 188 q 331 218 313 206 q 365 243 349 231 q 490 388 440 301 q 547 571 540 475 q 472 749 551 694 q 426 770 451 764 q 372 776 400 776 q 335 773 357 776 q 291 761 313 769 q 253 740 269 753 q 231 711 236 728 q 220 688 225 696 q 207 669 215 679 q 181 651 196 658 q 151 642 167 644 q 83 659 115 636 q 42 718 50 682 q 39 746 39 729 q 42 774 39 763 q 67 824 49 797 q 110 872 86 851 q 335 968 204 954 q 449 963 393 974 q 552 925 504 951 q 638 859 600 899 q 700 768 676 819 q 738 628 731 704 q 728 474 744 553 q 677 327 714 400 q 588 192 640 254 q 472 81 536 129 q 338 4 407 32 q 194 -15 258 -28 q 81 55 117 -1 q 43 182 46 111 q 43 213 43 199 q 44 235 43 228 q 88 358 54 297 q 174 472 121 419 q 222 517 194 493 q 281 561 250 540 q 346 596 313 582 q 410 610 379 610 q 481 583 450 610 q 511 513 511 556 q 488 451 511 476 q 429 419 465 425 q 412 415 417 417 q 392 403 407 413 z "},"K":{"ha":719,"x_min":58,"x_max":699,"o":"m 257 815 q 249 736 251 771 q 247 669 247 701 q 247 638 246 643 q 257 633 249 633 q 276 649 258 633 q 319 690 293 665 q 373 745 344 715 q 426 803 401 775 q 467 853 451 831 q 483 883 483 875 q 492 902 483 889 q 508 924 500 915 q 578 951 539 951 q 640 928 613 951 q 668 883 661 908 q 665 831 675 858 q 623 756 654 799 q 553 672 592 714 q 476 591 515 629 q 413 529 438 553 q 386 503 396 513 q 372 490 376 494 q 365 482 367 485 q 364 476 364 479 q 367 469 364 472 q 386 460 371 467 q 481 404 442 432 q 561 336 521 376 q 603 291 582 315 q 642 242 624 267 q 674 194 660 217 q 693 156 688 172 q 698 125 699 143 q 693 94 697 107 q 639 43 678 56 q 610 38 626 39 q 581 40 593 38 q 521 89 540 51 q 492 135 510 111 q 456 183 475 160 q 416 226 436 206 q 376 260 396 246 q 350 277 365 268 q 319 294 335 286 q 292 308 304 303 q 274 314 279 314 q 258 303 258 317 q 260 258 257 288 q 267 198 263 229 q 276 140 271 167 q 285 101 281 113 q 291 71 290 88 q 286 42 292 54 q 263 9 279 24 q 228 -12 247 -6 q 199 -16 217 -15 q 171 -14 181 -17 q 99 65 113 3 q 92 103 96 81 q 84 151 88 125 q 78 201 81 176 q 74 247 75 226 q 65 390 68 317 q 60 533 61 464 q 59 662 58 603 q 63 758 60 721 q 67 803 65 779 q 72 846 69 826 q 75 880 74 865 q 76 897 76 894 q 120 953 86 933 q 192 963 154 972 q 242 931 224 954 q 261 876 261 907 q 260 853 261 871 q 257 815 258 836 z "},"L":{"ha":663,"x_min":54,"x_max":665,"o":"m 257 581 q 255 534 256 557 q 253 484 254 511 q 251 424 253 457 q 247 349 250 392 q 251 192 240 232 q 256 183 254 185 q 267 176 258 181 l 278 171 l 326 172 q 413 178 369 175 q 497 188 456 181 q 527 190 513 189 q 549 193 542 192 q 590 193 569 199 q 628 174 611 188 q 664 96 665 146 q 642 40 661 64 q 590 10 622 17 q 575 8 588 8 q 547 6 563 7 q 508 2 533 4 q 458 -3 482 0 q 410 -8 435 -6 q 375 -11 386 -10 q 349 -12 365 -11 q 315 -12 332 -12 q 283 -12 299 -12 q 261 -11 268 -11 q 161 19 201 -6 q 97 81 121 43 q 64 167 74 118 q 54 269 54 215 q 54 291 54 281 q 56 319 54 301 q 58 367 57 338 q 61 444 60 397 q 64 509 63 471 q 67 576 65 547 q 69 643 68 604 q 71 708 69 682 q 81 847 74 799 q 103 921 89 896 q 146 959 118 946 q 201 968 174 972 q 254 943 231 964 q 275 842 299 900 q 268 820 271 832 q 264 782 265 808 q 261 708 263 756 q 257 581 260 661 z "},"M":{"ha":954,"x_min":54,"x_max":932,"o":"m 892 775 q 867 628 876 700 q 853 494 857 556 q 851 459 851 482 q 851 411 851 436 q 852 363 851 386 q 854 328 853 340 q 859 282 856 314 q 867 215 863 250 q 879 149 872 179 q 894 108 886 119 q 897 4 932 56 q 852 -31 882 -19 q 794 -35 822 -42 q 733 10 750 -24 q 704 83 715 43 q 678 213 688 150 q 665 347 668 276 q 665 376 665 363 q 664 408 664 389 q 665 453 664 426 q 667 519 665 479 q 663 531 667 529 q 653 525 660 533 q 629 491 646 518 q 586 419 613 464 q 565 383 575 400 q 550 361 554 367 q 506 319 532 335 q 447 303 479 303 q 410 308 425 303 q 374 327 390 315 q 340 359 357 339 q 304 410 322 379 q 265 485 286 442 q 258 499 263 493 q 251 511 254 506 q 246 522 249 517 q 242 506 243 521 q 242 457 240 492 q 247 389 243 435 q 258 294 251 343 q 272 203 264 244 q 286 149 279 163 q 294 80 303 117 q 256 24 285 43 q 201 7 231 7 q 149 23 174 7 q 113 68 124 39 q 103 99 108 78 q 93 147 99 119 q 82 208 88 175 q 72 275 76 242 q 60 375 64 329 q 55 470 56 421 q 56 577 54 519 q 61 711 57 635 q 69 824 65 785 q 75 879 72 863 q 120 942 86 922 q 194 961 154 961 q 215 958 206 961 q 235 950 224 956 q 261 931 249 943 q 289 890 274 918 q 326 814 304 863 q 379 686 347 765 q 397 644 388 665 q 415 605 407 622 q 428 576 422 588 q 435 563 433 564 q 444 558 438 558 q 453 560 451 558 q 460 571 454 563 q 493 622 471 589 q 544 693 515 654 q 606 774 574 732 q 670 851 639 815 q 728 911 701 886 q 774 943 756 936 q 807 949 789 949 q 858 935 835 949 q 894 896 882 921 q 902 878 900 886 q 904 857 904 869 q 901 825 904 844 q 892 775 897 806 z "},"N":{"ha":856,"x_min":53,"x_max":811,"o":"m 304 842 q 315 816 310 828 q 328 785 319 804 q 353 733 338 765 q 396 647 369 701 q 445 549 426 586 q 477 488 464 513 q 503 442 490 463 q 535 392 517 421 q 553 363 547 371 q 563 354 560 356 q 569 356 568 354 q 572 457 572 358 q 573 523 572 497 q 575 572 574 549 q 580 622 576 594 q 589 692 583 649 q 597 752 592 717 q 608 821 603 788 q 619 880 614 854 q 626 910 625 906 q 653 949 635 933 q 694 969 671 965 q 708 972 700 971 q 724 971 717 972 q 740 969 735 971 q 756 963 746 968 q 792 935 778 953 q 810 893 807 917 q 811 881 811 888 q 810 863 811 874 q 807 837 810 853 q 800 797 804 821 q 784 703 790 746 q 774 622 778 660 q 767 551 769 585 q 764 482 764 517 q 764 435 764 456 q 765 394 764 415 q 767 347 765 372 q 774 281 769 321 q 781 179 781 218 q 776 122 781 140 q 689 33 757 51 q 658 31 678 31 q 626 33 639 31 q 556 69 592 42 q 487 134 521 96 q 421 217 453 172 q 362 307 389 263 q 313 392 335 351 q 275 463 290 433 q 257 496 263 486 q 250 504 251 506 q 247 479 247 501 q 244 410 246 457 q 254 254 244 335 q 279 114 264 174 q 286 60 288 81 q 272 21 285 40 q 214 -19 251 -11 q 171 -19 193 -25 q 128 3 147 -14 q 100 43 110 19 q 88 83 94 58 q 76 141 82 108 q 66 210 71 174 q 57 286 61 247 q 54 331 56 303 q 53 389 53 358 q 53 449 53 419 q 54 500 53 479 q 60 597 57 553 q 69 681 64 640 q 81 760 75 722 q 96 839 88 799 q 126 909 104 879 q 196 939 149 939 q 267 910 244 939 q 304 842 290 882 z "},"O":{"ha":908,"x_min":31,"x_max":875,"o":"m 872 550 q 874 515 874 538 q 875 469 875 493 q 874 425 875 446 q 872 393 874 404 q 828 253 860 318 q 742 126 796 188 q 588 14 675 51 q 411 -14 500 -24 q 271 25 335 -7 q 158 108 207 57 q 78 224 110 158 q 35 363 46 289 q 32 396 33 375 q 31 438 31 417 q 32 481 31 460 q 35 514 33 501 q 60 621 43 567 q 105 725 78 675 q 169 818 132 775 q 253 890 207 861 q 357 949 307 926 q 475 971 407 971 q 632 935 557 971 q 731 866 689 907 q 801 775 772 825 q 848 667 831 725 q 872 550 865 610 m 699 435 q 700 490 701 460 q 694 551 699 521 q 681 611 689 582 q 663 663 674 640 q 521 782 615 758 q 476 785 501 786 q 435 779 450 785 q 422 774 425 776 q 414 764 418 771 q 394 742 404 749 q 368 728 383 735 q 353 722 357 724 q 346 713 350 719 q 336 683 338 699 q 342 640 335 668 q 351 611 346 621 q 363 596 356 601 q 378 576 369 589 q 390 550 388 563 q 394 517 396 535 q 386 485 393 499 q 354 447 375 461 q 310 433 333 433 q 274 441 293 433 q 239 463 254 449 q 213 468 218 479 q 210 455 211 465 q 210 431 210 444 q 210 405 210 418 q 213 383 211 392 q 289 231 229 288 q 375 179 326 194 q 472 172 424 164 l 471 172 q 554 206 515 181 q 623 269 593 232 q 673 349 653 306 q 699 435 693 392 z "},"P":{"ha":801,"x_min":17,"x_max":789,"o":"m 431 257 q 404 243 415 250 q 392 235 393 236 q 388 228 389 232 q 388 213 388 224 q 396 162 388 190 q 413 114 404 133 q 419 96 418 101 q 419 75 419 90 q 419 54 419 60 q 413 38 418 49 q 349 -15 393 0 q 322 -19 339 -18 q 296 -19 304 -21 q 227 18 247 -12 q 194 90 207 49 q 188 116 192 103 q 182 135 183 129 q 151 169 175 161 q 92 208 114 181 q 76 268 71 236 q 125 335 82 307 q 140 344 135 340 q 147 354 144 347 q 149 374 149 361 q 147 411 149 388 q 148 540 144 467 q 160 682 151 613 q 164 717 163 704 q 165 735 165 729 q 165 744 165 742 q 163 747 164 746 q 147 749 158 751 q 115 747 133 746 q 82 751 96 747 q 24 801 39 765 q 17 816 18 811 q 17 835 17 821 q 26 873 17 857 q 49 901 35 889 q 83 923 64 914 q 119 938 101 932 q 155 947 135 942 q 198 957 175 953 q 244 965 221 961 q 285 969 267 968 q 318 972 297 971 q 361 972 339 972 q 403 972 383 972 q 436 969 424 971 q 559 941 501 963 q 662 888 617 919 q 738 815 707 856 q 781 726 768 774 q 788 681 786 707 q 786 635 789 654 q 738 516 775 572 q 649 411 700 460 q 541 324 599 363 q 431 257 483 285 m 551 606 q 572 661 571 636 q 557 710 574 686 q 507 753 542 733 q 432 781 472 772 q 410 782 417 783 q 394 771 404 781 l 386 763 l 381 722 q 367 606 372 671 q 361 492 361 540 q 362 460 361 474 q 363 444 363 447 q 369 442 365 440 q 386 451 374 443 q 485 527 439 485 q 551 606 531 569 z "},"Q":{"ha":889,"x_min":32,"x_max":851,"o":"m 285 10 q 141 85 201 29 q 53 222 81 142 q 37 292 42 260 q 32 375 32 325 q 78 639 32 511 q 219 867 125 767 q 261 906 238 886 q 312 940 285 925 q 368 965 339 956 q 425 975 397 975 q 521 936 483 975 q 540 913 531 926 q 553 892 550 899 q 567 883 556 885 q 739 801 671 869 q 833 633 807 732 q 845 538 844 593 q 838 433 846 482 q 825 377 835 411 q 806 319 815 343 q 797 296 800 306 q 794 278 794 286 q 796 260 793 269 q 803 235 799 250 q 843 86 842 104 q 818 8 851 42 q 732 -15 781 -29 q 689 10 707 -8 q 674 32 679 21 q 663 67 669 43 q 656 85 658 78 q 653 94 653 93 q 624 86 644 101 q 507 24 568 46 q 383 0 446 3 q 333 1 354 -1 q 285 10 313 3 m 492 703 q 504 685 488 697 q 574 631 540 663 q 636 564 608 600 q 653 540 649 546 q 661 533 658 533 q 663 544 663 533 q 655 593 663 564 q 636 642 647 622 q 603 676 624 661 q 560 699 583 692 q 543 701 554 700 q 521 703 532 703 q 501 704 510 704 q 492 703 493 704 m 214 378 q 214 351 214 361 q 215 333 214 340 q 217 320 215 326 q 219 307 218 314 q 272 212 233 242 q 376 182 311 182 q 557 268 479 190 q 572 284 567 278 q 577 297 576 290 q 575 313 578 304 q 565 333 572 321 q 527 403 547 371 q 483 463 507 436 q 431 513 460 490 q 363 554 401 536 q 320 573 336 567 q 293 579 304 579 q 267 571 282 579 q 247 557 251 564 q 236 535 242 550 q 219 460 225 494 q 214 378 214 425 z "},"R":{"ha":835,"x_min":-3,"x_max":821,"o":"m 54 758 q 29 775 39 765 q 13 800 19 785 q 9 862 -3 829 q 53 915 21 894 q 110 941 74 931 q 188 958 147 951 q 269 969 229 965 q 339 972 310 972 q 469 958 400 972 q 599 914 539 944 q 701 834 658 883 q 754 714 744 785 q 676 533 764 621 q 608 476 644 503 q 515 418 571 450 q 492 402 496 407 q 494 392 489 397 q 508 381 497 389 q 532 363 518 372 q 596 313 553 347 q 683 240 639 279 q 765 165 728 201 q 811 107 801 128 q 820 69 819 89 q 815 33 821 50 q 795 3 808 17 q 763 -17 782 -10 q 739 -22 753 -21 q 715 -21 725 -24 q 687 -10 700 -18 q 656 17 674 -1 q 628 44 647 25 q 585 83 608 63 q 541 124 563 104 q 507 153 519 143 q 479 176 501 158 q 431 212 457 193 q 384 245 406 231 q 356 260 363 260 q 350 256 353 260 q 349 226 347 253 q 356 167 351 199 q 360 145 358 151 q 364 132 361 139 q 378 74 382 104 q 351 21 375 43 q 285 -7 324 -7 q 237 6 260 -7 q 200 46 214 19 q 183 96 189 65 q 171 189 178 126 q 166 244 168 222 q 163 297 164 267 q 160 374 161 326 q 156 506 158 422 q 152 627 154 582 q 149 696 150 672 q 147 728 149 719 q 143 743 146 738 q 135 753 140 751 q 115 751 129 754 q 54 758 86 743 m 339 789 q 330 775 332 783 q 329 744 328 767 q 331 703 329 736 q 333 635 332 671 q 336 572 335 600 q 339 540 338 543 q 348 537 342 536 q 375 549 354 538 q 465 598 419 569 q 538 651 510 626 q 563 676 553 663 q 574 696 574 689 q 562 719 574 706 q 531 746 550 733 q 459 776 503 765 q 371 790 415 788 q 348 792 354 792 q 339 789 342 792 z "},"S":{"ha":661,"x_min":-15,"x_max":649,"o":"m 78 721 q 175 825 114 774 q 306 908 236 876 q 369 935 335 922 q 435 957 403 947 q 497 972 468 967 q 546 978 526 978 q 615 954 586 978 q 647 876 649 922 q 628 824 644 847 q 585 789 613 800 q 571 785 578 786 q 544 783 564 785 q 456 767 506 783 q 360 724 407 751 q 275 662 313 697 q 221 589 238 626 q 215 565 215 578 q 219 543 214 551 q 264 498 231 522 q 364 438 297 474 q 522 335 471 382 q 586 233 572 289 q 591 194 590 217 q 588 157 592 172 q 545 84 576 114 q 473 36 514 54 q 387 10 432 18 q 304 -1 342 1 q 272 -2 292 -1 q 233 -3 253 -3 q 198 -2 214 -3 q 176 -1 182 -1 q 116 31 140 6 q 89 89 92 56 q 142 181 85 151 q 158 188 153 188 q 178 189 163 189 q 199 188 186 189 q 221 186 211 188 q 260 186 238 185 q 305 190 283 188 q 343 194 326 192 q 364 200 360 197 q 372 212 374 207 q 351 228 369 217 q 323 244 342 233 q 286 265 304 254 q 216 304 244 288 q 167 335 188 321 q 131 361 146 349 q 101 389 115 374 q 74 420 85 404 q 53 453 63 436 q 78 721 -15 582 z "},"T":{"ha":565,"x_min":8,"x_max":564,"o":"m 107 650 q 28 692 53 653 q 11 751 8 719 q 36 806 14 782 q 74 832 51 822 q 90 835 81 835 q 125 838 100 836 l 165 839 l 171 844 q 176 853 175 849 q 179 874 176 858 q 185 907 182 894 q 196 932 189 919 q 235 967 210 956 q 288 975 261 979 q 348 940 328 968 q 368 874 368 911 l 368 851 l 385 833 l 418 826 q 465 818 446 822 q 496 810 483 814 q 517 800 508 806 q 533 786 526 794 q 556 752 549 772 q 561 714 564 732 q 532 653 557 678 q 469 628 507 628 q 425 635 456 628 q 399 640 414 638 q 376 643 385 642 q 358 645 361 646 q 353 640 356 644 q 341 625 343 633 q 336 585 339 617 q 331 487 332 531 q 329 382 329 443 q 332 218 329 286 q 342 131 335 150 q 347 105 346 115 q 346 82 347 94 q 324 34 340 54 q 282 4 307 14 q 254 -1 269 0 q 228 1 239 -1 q 183 28 201 8 q 158 75 165 47 q 153 110 156 86 q 147 161 150 135 q 143 251 144 199 q 142 358 142 303 q 142 466 142 414 q 146 553 143 518 q 148 592 147 578 q 149 613 149 606 q 147 625 149 621 q 143 633 146 629 q 131 646 138 643 q 107 650 124 649 z "},"U":{"ha":858,"x_min":49,"x_max":824,"o":"m 783 849 q 785 819 786 838 q 776 754 783 801 q 761 612 767 679 q 757 481 756 544 q 765 356 758 418 q 783 226 771 293 q 796 172 790 190 q 808 142 801 154 q 824 90 824 117 q 796 23 824 50 q 729 -4 768 -4 q 656 28 688 -4 q 618 97 633 49 q 588 233 603 146 q 582 265 585 250 q 579 283 579 279 q 575 293 578 293 q 567 283 571 292 q 546 239 563 275 q 506 155 528 197 q 455 78 485 113 q 387 22 425 44 q 297 -4 349 -1 q 179 34 225 -4 q 107 129 133 72 q 69 252 81 186 q 53 374 57 318 q 50 428 51 394 q 49 499 49 463 q 50 573 49 536 q 53 636 51 610 q 77 812 61 740 q 115 918 93 883 q 156 958 131 944 q 207 971 181 971 q 267 951 242 971 q 298 910 288 936 q 303 857 308 885 q 293 833 300 846 q 279 813 286 819 q 260 753 268 797 q 249 658 253 710 q 242 560 244 607 q 240 494 240 514 q 249 335 242 399 q 274 226 257 271 q 296 196 286 196 q 319 217 306 196 q 372 317 339 244 q 457 526 404 389 q 494 624 479 583 q 524 698 510 664 q 552 765 538 732 q 585 839 567 797 q 613 889 600 872 q 646 915 626 906 q 688 926 668 926 q 749 904 722 926 q 783 849 775 882 z "},"V":{"ha":724,"x_min":40,"x_max":721,"o":"m 507 875 q 527 913 517 894 q 551 945 538 931 q 581 969 564 960 q 622 978 599 978 q 660 970 642 978 q 692 949 678 963 q 713 915 706 935 q 719 874 721 896 q 715 847 718 858 q 704 824 711 836 q 678 776 694 808 q 644 704 663 744 q 607 620 626 664 q 572 538 588 576 q 540 453 554 492 q 514 378 526 414 q 491 309 501 343 q 469 239 481 275 q 449 166 457 194 q 434 119 440 138 q 423 88 428 100 q 411 65 418 76 q 385 33 401 50 q 357 10 369 17 q 309 -8 335 -3 q 261 -6 283 -12 q 151 94 194 13 q 85 331 108 175 q 67 472 74 390 q 54 653 60 553 q 49 781 51 735 q 43 843 46 828 q 44 890 40 871 q 61 928 47 908 q 96 958 75 947 q 140 969 117 969 q 203 945 176 969 q 238 885 231 921 q 243 828 240 874 q 249 714 246 783 q 260 542 254 624 q 271 415 265 460 q 275 391 272 406 q 280 363 278 376 q 284 340 282 350 q 286 329 286 331 q 290 331 289 326 q 297 351 292 335 q 341 482 317 414 q 392 618 365 550 q 449 752 419 686 q 507 875 478 818 z "},"W":{"ha":985,"x_min":29,"x_max":979,"o":"m 210 913 q 213 892 213 901 q 210 851 213 883 q 215 796 208 840 q 229 703 221 751 q 237 661 232 689 q 246 606 242 633 q 258 531 253 560 q 265 487 263 503 q 269 465 268 471 q 272 457 271 458 q 278 458 276 453 q 294 501 285 472 q 313 564 303 531 q 330 628 322 597 q 342 676 338 660 q 365 761 356 729 q 380 812 374 793 q 392 841 386 831 q 404 863 397 851 q 483 904 435 904 q 537 889 517 904 q 567 849 557 874 q 582 797 578 825 q 589 743 586 768 q 594 694 592 719 q 599 657 597 668 q 601 644 600 654 q 604 624 601 635 q 612 575 607 603 q 623 517 617 547 q 635 458 629 486 q 646 406 640 429 q 653 392 650 392 q 656 390 654 390 q 660 400 657 390 q 668 432 663 410 q 683 499 674 454 q 692 538 688 517 q 700 574 697 560 q 731 701 718 651 q 755 783 744 751 q 775 832 765 814 q 797 864 785 850 q 843 894 817 885 q 894 897 869 904 q 957 858 935 890 q 972 790 979 826 q 958 756 969 772 q 932 731 947 739 q 924 724 926 728 q 919 711 922 721 q 882 559 900 635 q 846 407 864 483 q 827 324 836 367 q 808 242 818 282 q 791 156 797 188 q 781 107 785 125 q 774 81 776 89 q 767 64 771 72 q 694 -4 742 8 q 669 -7 685 -7 q 644 -4 654 -7 q 571 57 600 7 q 551 103 563 72 q 526 172 539 133 q 500 255 513 211 q 478 339 488 299 q 469 376 474 358 q 463 399 465 393 q 450 407 457 425 q 444 385 449 401 q 433 349 439 369 q 422 309 428 329 q 411 275 415 289 q 371 163 388 199 q 332 108 354 126 q 308 95 322 101 q 281 86 293 89 q 265 85 271 85 q 249 88 260 85 q 196 113 217 93 q 161 161 175 133 q 140 211 150 183 q 122 276 131 239 q 104 360 113 313 q 86 469 96 408 q 82 494 85 478 q 76 527 79 510 q 70 560 72 544 q 68 583 68 575 q 65 603 67 590 q 60 626 63 615 q 42 735 49 692 q 33 808 36 779 q 29 856 29 838 q 32 888 29 874 q 64 951 39 928 q 125 974 89 974 q 177 957 156 974 q 210 913 199 940 z "},"X":{"ha":717,"x_min":19,"x_max":708,"o":"m 65 742 q 35 792 44 775 q 24 824 26 810 q 19 849 19 839 q 22 871 19 858 q 60 926 31 906 q 124 940 89 947 q 194 875 176 932 q 203 857 196 871 q 221 828 211 843 q 244 790 231 813 q 267 753 257 768 q 285 724 278 736 q 294 710 292 711 q 313 708 300 706 q 335 735 317 711 q 385 801 353 760 q 458 883 418 843 q 538 951 497 922 q 613 981 579 981 q 670 960 644 981 q 703 906 696 939 q 690 844 708 874 q 642 803 672 814 q 590 765 621 796 q 528 694 560 733 q 471 619 497 656 q 433 563 444 582 q 414 529 417 536 q 413 508 411 522 l 414 490 l 432 458 q 494 353 463 406 q 556 256 526 301 q 610 178 586 211 q 649 132 635 146 q 671 102 664 115 q 679 69 678 89 q 665 15 682 38 q 650 -3 658 4 q 628 -17 642 -10 q 597 -24 614 -24 q 567 -21 579 -25 q 530 -1 544 -14 q 493 39 515 11 q 460 83 481 54 q 418 144 440 111 q 374 213 396 178 q 335 275 351 247 q 315 297 321 297 q 301 274 310 297 q 285 220 293 250 q 270 161 276 190 q 263 119 264 132 q 238 53 260 81 q 174 26 215 26 q 128 40 150 26 q 94 78 107 53 l 88 93 l 88 126 q 96 199 88 160 q 116 279 104 239 q 142 358 128 319 q 169 426 157 396 q 178 449 174 436 q 188 468 183 461 q 196 491 193 482 q 197 508 199 500 q 190 528 196 517 q 175 558 185 540 q 147 608 160 586 q 120 652 133 631 q 94 695 107 674 q 65 742 81 717 z "},"Y":{"ha":699,"x_min":14,"x_max":701,"o":"m 61 707 q 51 747 58 722 q 36 793 43 771 q 18 855 22 839 q 14 886 14 871 q 38 949 14 924 q 101 975 63 975 q 161 952 138 975 q 189 894 185 929 q 194 873 190 888 q 203 844 199 858 q 210 821 207 832 q 218 795 214 810 q 228 760 222 781 q 244 704 235 739 q 266 633 256 667 q 286 572 276 599 q 298 553 292 558 q 308 553 304 547 q 313 561 310 556 q 319 574 317 567 q 469 813 385 696 q 501 859 485 835 q 525 894 518 883 q 542 917 533 906 q 554 932 550 929 q 613 956 581 956 q 674 929 647 956 q 697 882 693 910 q 689 828 701 854 q 665 790 683 817 q 618 722 647 763 q 549 621 581 669 q 490 523 517 572 q 438 422 463 474 q 390 313 414 371 q 368 253 379 286 q 349 191 357 221 q 335 138 340 161 q 331 107 329 115 q 332 96 332 104 q 333 81 332 88 q 334 63 335 69 q 331 49 333 57 q 296 4 319 21 q 240 -11 272 -12 q 215 -8 226 -11 q 154 58 167 10 q 196 289 140 115 q 203 314 203 308 q 203 329 204 319 q 198 344 201 336 q 188 365 194 353 q 159 423 174 390 q 131 490 144 456 q 106 560 118 525 q 85 628 93 596 q 79 647 82 636 q 75 661 76 657 q 69 680 72 667 q 61 707 65 693 z "},"Z":{"ha":724,"x_min":7,"x_max":696,"o":"m 206 794 q 163 783 183 783 q 104 808 129 783 q 79 851 85 828 q 81 898 74 875 q 106 940 88 921 q 153 967 125 958 q 196 976 168 971 q 258 984 224 981 q 328 990 292 988 q 397 992 365 992 q 483 988 439 992 q 568 971 528 985 q 641 931 608 957 q 690 861 674 906 q 694 843 693 850 q 696 815 696 836 q 685 754 696 782 q 656 699 675 726 q 638 674 647 686 q 615 647 629 663 q 581 608 601 631 q 529 551 561 586 q 491 509 517 538 q 434 444 465 481 q 369 368 403 408 q 308 292 336 328 q 260 226 279 256 q 238 185 240 197 q 242 174 238 176 q 331 179 250 167 q 421 192 371 186 q 508 203 471 199 q 552 207 531 206 q 583 210 574 208 q 615 211 603 213 q 642 203 628 210 q 680 165 667 190 q 689 113 693 140 q 672 71 685 86 q 642 47 660 56 q 603 36 625 39 q 561 31 582 33 q 471 22 514 26 q 400 13 428 17 q 346 3 367 7 q 307 -2 325 0 q 272 -5 289 -4 q 228 -6 254 -6 q 178 -5 200 -6 q 149 -4 156 -4 q 53 39 86 6 q 19 149 7 83 q 33 193 24 169 q 58 245 42 217 q 101 309 75 274 q 164 392 126 344 q 226 472 200 439 q 281 537 253 504 q 343 608 308 569 q 432 706 378 647 q 499 782 485 763 q 506 807 514 801 q 466 814 497 811 q 396 817 435 817 q 353 816 379 817 q 298 813 326 815 q 244 806 269 811 q 206 794 218 801 z "},"[":{"ha":597,"x_min":46,"x_max":585,"o":"m 572 135 q 567 60 585 96 q 522 13 550 24 q 458 1 494 1 q 431 1 446 0 q 410 1 417 1 q 274 47 331 10 q 192 163 218 85 q 183 192 186 179 q 177 221 179 206 q 174 259 175 236 q 174 318 174 282 q 173 372 174 351 q 171 403 172 392 q 167 419 169 414 q 161 431 165 425 q 154 438 157 436 q 143 442 151 439 q 61 490 88 451 q 46 547 46 517 q 60 599 46 578 q 111 649 74 621 q 128 664 122 657 q 139 682 135 671 q 146 710 143 693 q 151 753 149 726 q 166 867 156 806 q 197 988 176 929 q 252 1095 218 1046 q 339 1171 286 1144 q 365 1180 351 1178 q 390 1182 378 1182 q 431 1174 411 1182 q 467 1150 451 1167 q 478 1138 474 1144 q 486 1126 483 1131 q 499 1081 499 1104 q 492 1036 500 1057 q 467 1000 483 1015 q 426 978 450 985 q 413 973 417 975 q 406 964 410 971 q 370 861 381 917 q 354 753 360 806 q 347 696 350 719 q 340 653 344 672 q 331 620 336 635 q 318 589 325 606 l 308 569 l 319 554 q 350 501 338 532 q 368 442 363 471 q 372 423 371 432 q 373 401 372 414 q 374 369 374 389 q 376 319 375 350 q 377 276 376 292 q 378 251 378 260 q 381 239 379 243 q 383 229 382 235 q 388 217 386 222 q 392 211 389 213 q 409 206 397 207 q 453 203 421 204 q 486 201 471 201 q 504 199 501 200 q 547 175 528 192 q 572 135 565 158 z "},"\\":{"ha":713,"x_min":69,"x_max":674,"o":"m 651 204 q 669 165 664 179 q 674 133 674 150 q 656 76 674 101 q 606 39 638 50 q 592 35 599 36 q 575 35 586 35 q 560 35 567 35 q 551 36 554 35 q 543 38 549 36 q 532 43 538 40 q 482 93 501 58 q 464 128 476 104 q 439 181 451 153 q 415 236 426 210 q 397 278 403 263 q 372 340 388 303 q 340 416 357 376 q 308 493 324 456 q 281 556 292 531 q 213 715 246 635 q 146 888 181 796 q 124 944 135 915 q 107 985 113 972 q 90 1023 97 1008 q 80 1047 83 1038 q 75 1062 76 1056 q 72 1074 74 1068 q 69 1091 69 1085 q 71 1108 69 1097 q 100 1167 76 1143 q 157 1197 124 1190 q 226 1182 194 1204 q 269 1122 258 1160 q 279 1093 272 1110 q 315 1010 294 1061 q 356 903 335 960 q 376 849 364 882 q 404 780 389 817 q 436 705 419 743 q 467 633 453 667 q 508 539 488 586 q 547 443 528 492 q 572 385 561 415 q 594 325 583 356 q 605 302 597 318 q 622 267 613 286 q 639 231 631 249 q 651 204 647 214 z "},"]":{"ha":494,"x_min":29,"x_max":439,"o":"m 435 500 q 438 476 438 490 q 436 451 439 463 q 420 417 432 435 q 393 390 408 400 q 379 378 389 388 q 360 359 369 369 q 343 339 351 349 q 332 324 335 329 q 325 297 325 314 q 325 284 325 290 q 326 267 325 278 q 331 240 328 257 q 338 197 333 224 q 347 126 346 151 q 346 81 349 101 q 219 -75 329 -28 q 173 -92 192 -87 q 135 -93 154 -96 q 97 -81 115 -90 q 69 -57 79 -71 q 47 10 46 -25 q 75 74 49 46 q 97 91 86 85 q 128 106 107 97 q 146 115 143 111 q 146 124 146 117 q 143 139 146 131 q 132 209 136 182 q 126 255 128 236 q 123 288 124 274 q 124 315 122 301 q 182 461 132 399 l 194 476 l 186 493 q 158 661 151 564 q 164 714 161 689 q 172 766 167 739 q 186 824 178 793 q 206 896 194 856 q 219 950 214 925 q 222 979 225 975 q 212 985 221 982 q 197 988 203 988 q 181 982 194 988 q 155 972 167 975 q 126 971 143 969 q 65 997 90 971 q 35 1057 40 1024 q 47 1124 29 1092 q 96 1174 64 1157 q 132 1186 115 1183 q 183 1189 149 1189 q 222 1189 211 1190 q 247 1185 232 1188 q 374 1117 326 1165 q 424 988 421 1069 q 423 955 424 971 q 419 920 422 939 q 409 877 415 901 q 393 818 403 853 q 381 778 386 799 q 374 747 376 758 q 360 666 364 707 q 361 606 357 625 q 369 581 364 589 q 386 564 374 574 q 417 534 407 549 q 435 500 428 519 z "},"^":{"ha":650,"x_min":39,"x_max":606,"o":"m 588 432 q 606 379 606 401 q 583 322 606 346 q 526 297 561 297 q 465 324 490 297 q 403 422 447 347 q 387 453 393 440 q 374 478 381 467 q 363 502 368 490 q 349 531 357 514 q 317 601 332 571 q 301 629 303 631 q 296 614 301 629 q 283 574 290 599 q 265 521 275 550 q 247 464 256 492 q 233 422 240 443 q 222 390 226 400 q 217 371 219 381 q 211 354 214 361 q 179 303 206 322 q 148 290 165 293 q 115 289 131 286 q 65 319 83 296 q 57 411 39 357 q 67 441 60 419 q 84 491 75 463 q 103 551 93 519 q 124 613 114 583 q 177 764 150 696 q 222 860 204 832 q 258 895 238 883 q 301 907 279 907 q 350 892 326 907 q 389 847 374 878 q 399 828 393 840 q 408 804 404 815 q 419 774 413 792 q 435 737 426 756 q 451 701 443 718 q 463 675 458 685 q 476 647 467 667 q 493 608 485 628 q 588 432 535 511 z "},"_":{"ha":1008,"x_min":46,"x_max":963,"o":"m 885 186 q 941 151 919 178 q 963 89 963 125 q 941 27 961 53 q 882 -10 921 1 q 824 -15 867 -15 q 725 -11 782 -15 q 675 -8 701 -10 q 633 -4 649 -7 q 558 0 599 -1 q 463 4 518 1 q 357 7 400 6 q 286 11 314 8 q 247 16 274 14 q 193 21 219 18 q 140 28 167 24 q 93 42 114 32 q 59 73 72 53 q 46 128 46 93 q 64 185 46 160 q 114 221 82 210 q 146 226 128 226 q 200 222 164 226 q 283 214 251 217 q 341 209 315 211 q 392 206 367 207 q 458 206 418 206 q 523 203 499 204 q 565 202 547 203 q 600 201 583 201 q 639 197 617 200 q 774 188 721 190 q 851 188 828 185 q 869 189 863 189 q 885 186 875 189 z "},"`":{"ha":306,"x_min":28,"x_max":264,"o":"m 257 963 q 263 944 263 950 q 264 921 264 939 q 263 899 264 904 q 258 883 261 893 q 233 848 250 864 q 197 826 217 832 q 169 822 188 824 q 142 824 150 821 l 143 824 q 108 840 125 828 q 82 867 92 851 q 69 891 76 875 q 53 925 61 907 q 40 961 46 943 q 31 992 33 979 q 28 1018 28 1003 q 31 1043 28 1033 q 56 1090 36 1069 q 103 1118 76 1111 q 131 1120 114 1121 q 160 1115 147 1119 q 228 1036 211 1097 q 236 1012 231 1025 q 257 963 242 999 z "},"a":{"ha":854,"x_min":32,"x_max":808,"o":"m 115 576 q 53 619 75 588 q 32 692 32 651 q 50 771 32 733 q 96 840 68 808 q 159 897 124 872 q 229 938 194 922 q 308 960 267 953 q 390 968 349 968 q 541 942 476 968 q 652 871 606 917 q 730 762 699 825 q 782 624 761 699 q 796 549 790 592 q 805 459 801 507 q 808 360 808 411 q 806 261 808 310 q 802 201 803 236 q 801 140 801 165 q 801 92 801 108 q 799 71 800 76 q 762 18 789 39 q 703 -1 735 -3 q 647 15 671 -1 q 610 60 624 32 q 599 81 603 75 q 583 88 594 88 q 567 85 576 88 q 542 81 557 83 q 475 71 504 74 q 406 68 446 68 q 322 74 365 68 q 239 93 279 79 q 163 128 199 107 q 100 183 128 150 q 54 306 56 240 q 96 431 53 371 q 177 508 128 476 q 283 561 226 540 q 400 591 340 582 q 513 600 460 600 q 537 601 528 600 q 550 602 546 601 q 556 603 554 603 q 560 606 558 604 q 568 618 565 610 q 569 627 569 624 q 565 639 568 631 q 551 669 561 650 q 533 701 542 689 q 478 749 508 735 q 406 765 447 764 q 247 707 300 769 l 238 696 l 238 676 q 222 619 238 643 q 174 581 204 592 q 115 576 144 569 m 604 346 q 590 379 604 367 q 526 397 576 393 q 476 397 504 400 q 418 389 447 394 q 361 375 389 383 q 314 356 333 367 q 263 318 279 338 l 257 310 l 263 304 q 299 285 275 293 q 353 274 324 278 q 376 272 363 272 q 406 271 390 271 q 435 271 421 271 q 463 272 450 271 q 515 281 488 275 q 563 293 542 286 q 596 312 588 301 q 604 346 604 322 z "},"b":{"ha":844,"x_min":13,"x_max":815,"o":"m 106 657 q 68 687 86 671 q 40 718 50 703 q 19 762 26 738 q 14 806 13 786 q 28 849 17 828 q 56 886 39 871 q 158 949 94 926 q 304 974 222 971 q 480 951 392 976 q 636 876 568 925 q 722 795 689 839 q 767 703 756 751 q 775 665 774 679 q 774 631 776 650 q 747 545 767 583 q 690 471 728 507 q 672 455 682 464 q 654 440 661 446 q 620 415 625 419 q 615 407 615 410 q 621 397 615 401 q 642 386 626 393 q 703 356 672 374 q 760 313 735 338 q 800 259 785 289 q 815 192 815 229 q 790 106 815 142 q 724 47 764 71 q 638 10 685 22 q 550 -6 592 -3 q 514 -8 528 -8 q 476 -6 500 -8 q 344 29 407 0 q 236 107 281 58 q 153 245 183 165 q 117 435 124 325 q 115 507 114 467 q 119 579 117 547 q 122 620 122 608 q 118 640 122 632 q 106 657 114 651 m 358 804 q 322 807 340 807 q 301 804 304 807 q 315 788 301 801 q 328 774 322 781 q 336 763 333 767 q 352 747 343 751 q 385 742 361 743 q 417 738 407 740 q 442 728 426 735 q 467 710 456 722 q 485 688 479 699 q 490 675 489 681 q 490 657 490 669 q 480 617 490 633 q 453 592 469 601 q 415 577 436 582 q 374 572 394 572 q 345 570 350 571 q 336 564 340 569 q 326 549 328 557 q 322 513 324 540 l 321 481 l 325 479 q 338 478 331 476 q 365 488 344 481 q 474 540 426 511 q 544 596 521 568 q 561 682 579 635 q 527 730 554 704 q 468 772 500 756 q 415 792 446 783 q 358 804 383 801 m 610 196 q 582 220 610 204 q 522 246 554 236 q 477 258 501 253 q 431 266 453 263 q 392 269 408 269 q 369 267 375 269 q 364 262 364 264 q 368 251 364 260 q 427 185 390 208 q 513 161 464 161 q 537 163 521 161 q 569 169 553 165 q 597 181 585 174 q 610 196 610 188 z "},"c":{"ha":839,"x_min":28,"x_max":803,"o":"m 28 464 q 65 649 28 557 q 167 813 103 740 q 316 929 231 885 q 499 974 401 974 q 637 944 569 974 q 747 856 704 914 q 781 798 767 832 q 800 733 796 764 q 802 710 801 725 q 803 678 803 694 q 802 647 803 661 q 800 625 801 632 q 728 550 786 565 q 659 560 693 540 q 613 617 625 581 q 610 634 611 619 q 610 668 610 649 l 608 713 l 601 726 q 574 758 593 744 q 531 776 554 771 q 514 780 522 779 q 490 779 506 781 q 406 758 447 779 q 332 706 365 738 q 274 633 299 674 q 236 553 249 593 q 225 507 228 529 q 222 453 222 485 q 242 362 225 408 q 288 276 258 315 q 359 213 318 238 q 449 189 400 189 q 540 215 501 189 q 596 290 578 242 q 630 337 607 319 q 685 354 653 354 q 742 335 717 354 q 778 285 768 317 q 781 253 782 271 q 776 221 781 236 q 738 142 764 178 q 678 78 713 106 q 603 31 643 50 q 519 3 563 11 q 495 -1 511 1 q 463 -3 479 -3 q 431 -3 446 -4 q 407 -1 415 -3 q 253 53 324 10 q 133 160 183 96 q 56 302 83 224 q 28 464 28 381 z "},"d":{"ha":821,"x_min":11,"x_max":793,"o":"m 83 57 q 14 139 22 83 q 17 180 11 158 q 38 217 24 201 q 106 246 67 246 q 156 233 131 246 q 185 222 167 228 q 214 217 204 217 q 226 222 222 217 q 228 235 229 226 q 225 279 228 243 q 222 312 224 296 q 219 347 221 328 q 217 392 218 367 q 213 457 215 418 q 210 509 211 478 q 209 574 210 540 q 208 641 208 608 q 208 696 208 674 l 208 751 l 203 758 q 195 764 199 763 q 176 767 192 765 q 113 786 140 767 q 79 842 86 806 q 78 868 76 853 q 83 894 79 883 q 107 931 92 918 q 142 949 122 943 q 184 958 163 956 q 226 960 206 960 q 381 948 310 963 q 518 901 453 933 q 721 722 649 836 q 793 464 793 608 q 765 313 793 383 q 688 186 738 242 q 573 92 639 131 q 431 35 507 53 q 408 28 419 32 q 392 22 397 25 q 328 11 354 6 q 318 13 324 11 q 310 15 313 14 q 275 18 303 18 q 227 21 253 18 q 176 29 201 24 q 126 42 150 35 q 83 57 103 49 m 399 686 q 399 632 399 665 q 399 563 399 599 q 401 495 400 528 q 404 440 403 463 q 407 397 406 421 q 408 358 408 372 q 411 326 410 344 q 415 290 413 307 q 418 262 417 274 q 419 247 419 250 q 438 239 424 242 q 465 249 449 239 q 499 272 482 258 q 531 298 517 285 q 553 318 546 311 q 578 356 565 333 q 596 399 590 379 q 603 491 607 442 q 581 581 599 540 q 482 703 544 660 q 463 715 474 708 q 442 726 453 721 q 424 736 432 732 q 414 740 417 740 q 404 735 410 740 q 399 724 400 731 q 399 686 399 718 z "},"e":{"ha":878,"x_min":28,"x_max":864,"o":"m 32 365 q 29 395 31 376 q 28 434 28 414 q 28 473 28 454 q 31 504 29 492 q 84 672 43 593 q 188 813 125 751 q 329 915 250 875 q 496 968 408 956 q 528 970 510 969 q 565 970 546 971 q 601 968 583 969 q 631 964 618 967 q 754 913 701 950 q 835 819 807 875 q 857 690 864 760 q 808 554 850 619 q 716 456 772 499 q 593 382 660 413 q 456 335 526 351 q 321 315 386 318 q 294 313 299 314 q 286 308 289 313 q 293 283 279 297 q 329 253 308 267 q 374 231 350 240 q 421 218 397 222 q 465 217 444 214 q 508 227 489 219 q 561 254 528 235 q 615 268 588 268 q 688 238 658 268 q 718 164 719 206 q 685 90 717 122 q 625 51 665 71 q 544 21 585 32 q 473 10 510 13 q 403 11 436 7 q 359 19 388 13 q 313 32 331 25 q 126 159 199 71 q 32 365 53 247 m 269 579 q 261 561 263 567 q 260 547 260 556 q 262 533 260 536 q 274 526 264 529 q 308 524 282 524 q 354 526 335 524 q 431 542 390 531 q 509 572 471 554 q 581 615 547 590 q 636 669 614 639 q 647 694 643 681 q 651 714 651 707 q 640 739 651 729 q 614 754 629 749 q 582 761 599 760 q 554 763 565 763 q 466 749 508 763 q 387 710 424 735 q 320 651 350 685 q 269 579 290 618 z "},"f":{"ha":725,"x_min":15,"x_max":728,"o":"m 76 325 q 38 353 53 333 q 19 397 24 372 q 29 451 15 425 q 71 493 43 478 q 93 510 88 501 q 99 553 99 519 q 104 664 99 606 q 128 774 110 722 q 183 867 147 826 q 278 922 218 907 q 348 938 303 931 q 443 953 393 946 q 540 965 493 960 q 618 969 588 969 q 668 963 650 969 q 701 939 686 957 q 727 875 728 911 q 701 813 726 839 q 667 791 686 797 q 619 785 647 785 q 563 781 600 785 q 484 772 525 778 q 404 760 443 767 q 344 749 365 754 q 312 733 319 742 q 297 694 304 725 q 292 658 294 681 q 287 612 289 635 q 284 569 285 589 q 283 540 283 549 q 286 528 285 531 q 292 522 288 525 q 297 518 294 519 q 308 516 300 517 q 328 515 315 515 q 367 513 342 514 q 410 510 390 511 q 438 508 431 510 q 485 485 465 503 q 511 444 504 467 q 513 396 518 421 q 488 351 508 371 q 451 329 471 335 q 397 326 432 324 q 369 328 386 328 q 339 328 351 328 q 303 326 311 328 q 292 314 294 324 q 290 292 290 310 q 292 248 290 274 q 297 192 294 222 q 304 135 300 163 q 309 75 310 94 q 300 38 308 56 q 283 15 294 26 q 264 -3 272 3 q 228 -15 249 -12 q 192 -12 208 -18 q 150 13 168 -6 q 128 56 132 32 q 122 93 125 68 q 116 147 119 118 q 110 206 113 176 q 107 257 108 235 q 99 306 104 293 q 76 325 94 318 z "},"g":{"ha":928,"x_min":28,"x_max":906,"o":"m 28 375 q 67 568 28 474 q 172 741 106 663 q 324 876 238 819 q 503 956 410 933 q 556 967 532 964 q 613 968 581 969 q 716 947 669 965 q 801 885 763 929 q 844 738 860 815 q 813 683 838 704 q 757 663 789 663 q 689 693 718 663 q 663 746 667 713 q 659 760 660 757 q 653 765 658 763 q 608 775 638 775 q 472 738 542 775 q 344 643 401 701 q 249 513 286 585 q 213 372 213 442 q 227 292 213 329 q 267 226 242 254 q 328 179 293 197 q 407 158 364 161 q 507 171 453 154 q 549 188 525 178 q 593 215 572 199 q 628 250 614 231 q 643 293 643 269 q 639 313 643 308 q 590 314 633 318 q 566 310 581 311 q 538 307 551 308 q 490 301 517 304 q 443 294 464 297 q 388 304 415 289 q 347 347 360 319 q 337 388 338 367 q 343 426 336 408 q 365 459 350 444 q 400 482 379 474 q 414 487 407 485 q 433 491 421 489 q 464 495 446 493 q 511 500 482 497 q 556 506 533 503 q 589 510 578 508 q 619 513 600 511 q 657 517 639 514 q 732 524 703 521 q 779 528 761 526 q 806 529 797 529 q 822 528 815 529 q 883 491 860 521 q 903 421 906 461 q 858 349 901 376 q 844 337 847 340 q 838 326 840 333 q 832 289 835 317 q 799 165 829 219 q 722 69 769 110 q 615 2 675 28 q 492 -33 554 -24 q 436 -37 469 -36 q 383 -35 403 -37 q 238 11 304 -25 q 126 102 172 47 q 53 226 79 157 q 28 375 28 296 z "},"h":{"ha":767,"x_min":47,"x_max":726,"o":"m 113 32 q 98 51 104 40 q 86 76 92 61 q 76 115 81 92 q 65 171 71 138 q 54 251 58 213 q 49 329 50 290 q 48 408 47 368 q 51 493 49 449 q 60 578 54 532 q 75 673 67 625 q 94 766 83 721 q 118 846 106 811 q 226 921 146 921 q 286 906 258 921 q 329 863 314 890 q 329 789 344 829 q 313 731 322 769 q 296 650 304 693 q 282 568 288 607 q 275 507 276 529 l 274 486 l 279 481 q 283 476 282 478 q 292 474 285 475 q 313 472 299 474 q 356 468 328 471 q 401 464 385 465 q 425 463 417 463 q 436 463 433 463 q 442 465 439 464 q 453 478 451 468 q 458 533 456 489 q 473 690 461 613 q 508 844 485 768 q 513 862 511 851 q 515 881 514 872 q 549 942 522 921 q 617 964 576 964 q 687 940 656 964 q 724 876 718 917 q 724 849 726 867 q 714 808 721 831 q 692 719 700 756 q 678 652 683 683 q 671 589 674 621 q 667 511 668 557 q 667 363 664 436 q 682 197 671 289 q 694 127 689 150 q 706 89 699 104 q 715 63 713 74 q 717 40 718 51 q 701 3 714 21 q 669 -26 689 -15 q 628 -39 651 -36 q 585 -37 604 -42 q 537 -12 557 -31 q 506 36 517 7 q 488 107 496 60 q 472 208 479 154 q 468 238 469 224 q 465 257 467 253 q 440 281 461 276 q 415 283 435 281 q 372 287 394 285 q 331 290 350 289 q 308 292 313 292 q 290 288 300 292 q 276 282 281 285 q 272 276 274 279 q 272 263 271 274 q 275 236 274 253 q 279 201 276 219 q 285 167 282 183 q 294 143 289 151 q 306 119 303 132 q 308 90 308 107 q 271 24 306 49 q 196 -1 236 -1 q 151 8 174 -1 q 113 32 128 17 z "},"i":{"ha":499,"x_min":32,"x_max":489,"o":"m 79 -8 q 43 36 54 8 q 42 90 32 64 q 90 144 56 129 q 109 153 106 151 q 115 160 113 156 q 120 179 121 167 q 114 228 119 192 q 104 733 72 481 q 106 756 106 744 q 107 775 107 768 q 86 814 107 800 q 47 885 47 840 q 48 903 47 899 q 54 919 49 908 q 110 965 71 953 q 233 978 149 978 q 336 973 300 976 q 389 963 372 969 q 432 928 417 951 q 444 878 447 906 q 413 820 442 843 q 343 797 383 797 q 308 782 324 797 q 301 771 303 776 q 297 742 300 765 q 283 596 288 671 q 282 457 279 521 q 291 332 285 393 q 307 226 297 271 q 315 198 311 207 q 328 183 319 189 q 342 177 335 178 q 378 179 350 176 q 461 151 431 183 q 485 110 481 133 q 482 67 489 88 q 456 31 475 47 q 410 8 438 15 q 381 5 403 7 q 336 0 360 3 q 258 -10 296 -6 q 189 -19 221 -14 q 149 -24 174 -22 q 118 -24 125 -25 q 99 -17 111 -22 q 79 -8 86 -12 z "},"j":{"ha":768,"x_min":39,"x_max":744,"o":"m 392 403 q 340 363 368 386 q 289 313 313 340 q 250 254 265 285 q 235 192 235 224 q 235 178 235 181 q 240 176 236 176 q 263 182 249 176 q 294 197 276 188 q 331 218 313 206 q 365 243 349 231 q 490 388 440 301 q 547 571 540 475 q 472 749 551 694 q 426 770 451 764 q 372 776 400 776 q 335 773 357 776 q 291 761 313 769 q 253 740 269 753 q 231 711 236 728 q 220 688 225 696 q 207 669 215 679 q 181 651 196 658 q 151 642 167 644 q 83 659 115 636 q 42 718 50 682 q 39 746 39 729 q 42 774 39 763 q 67 824 49 797 q 110 872 86 851 q 335 968 204 954 q 449 963 393 974 q 552 925 504 951 q 638 859 600 899 q 700 768 676 819 q 738 628 731 704 q 728 474 744 553 q 677 327 714 400 q 588 192 640 254 q 472 81 536 129 q 338 4 407 32 q 194 -15 258 -28 q 81 55 117 -1 q 43 182 46 111 q 43 213 43 199 q 44 235 43 228 q 88 358 54 297 q 174 472 121 419 q 222 517 194 493 q 281 561 250 540 q 346 596 313 582 q 410 610 379 610 q 481 583 450 610 q 511 513 511 556 q 488 451 511 476 q 429 419 465 425 q 412 415 417 417 q 392 403 407 413 z "},"k":{"ha":719,"x_min":58,"x_max":699,"o":"m 257 815 q 249 736 251 771 q 247 669 247 701 q 247 638 246 643 q 257 633 249 633 q 276 649 258 633 q 319 690 293 665 q 373 745 344 715 q 426 803 401 775 q 467 853 451 831 q 483 883 483 875 q 492 902 483 889 q 508 924 500 915 q 578 951 539 951 q 640 928 613 951 q 668 883 661 908 q 665 831 675 858 q 623 756 654 799 q 553 672 592 714 q 476 591 515 629 q 413 529 438 553 q 386 503 396 513 q 372 490 376 494 q 365 482 367 485 q 364 476 364 479 q 367 469 364 472 q 386 460 371 467 q 481 404 442 432 q 561 336 521 376 q 603 291 582 315 q 642 242 624 267 q 674 194 660 217 q 693 156 688 172 q 698 125 699 143 q 693 94 697 107 q 639 43 678 56 q 610 38 626 39 q 581 40 593 38 q 521 89 540 51 q 492 135 510 111 q 456 183 475 160 q 416 226 436 206 q 376 260 396 246 q 350 277 365 268 q 319 294 335 286 q 292 308 304 303 q 274 314 279 314 q 258 303 258 317 q 260 258 257 288 q 267 198 263 229 q 276 140 271 167 q 285 101 281 113 q 291 71 290 88 q 286 42 292 54 q 263 9 279 24 q 228 -12 247 -6 q 199 -16 217 -15 q 171 -14 181 -17 q 99 65 113 3 q 92 103 96 81 q 84 151 88 125 q 78 201 81 176 q 74 247 75 226 q 65 390 68 317 q 60 533 61 464 q 59 662 58 603 q 63 758 60 721 q 67 803 65 779 q 72 846 69 826 q 75 880 74 865 q 76 897 76 894 q 120 953 86 933 q 192 963 154 972 q 242 931 224 954 q 261 876 261 907 q 260 853 261 871 q 257 815 258 836 z "},"l":{"ha":663,"x_min":54,"x_max":665,"o":"m 257 581 q 255 534 256 557 q 253 484 254 511 q 251 424 253 457 q 247 349 250 392 q 251 192 240 232 q 256 183 254 185 q 267 176 258 181 l 278 171 l 326 172 q 413 178 369 175 q 497 188 456 181 q 527 190 513 189 q 549 193 542 192 q 590 193 569 199 q 628 174 611 188 q 664 96 665 146 q 642 40 661 64 q 590 10 622 17 q 575 8 588 8 q 547 6 563 7 q 508 2 533 4 q 458 -3 482 0 q 410 -8 435 -6 q 375 -11 386 -10 q 349 -12 365 -11 q 315 -12 332 -12 q 283 -12 299 -12 q 261 -11 268 -11 q 161 19 201 -6 q 97 81 121 43 q 64 167 74 118 q 54 269 54 215 q 54 291 54 281 q 56 319 54 301 q 58 367 57 338 q 61 444 60 397 q 64 509 63 471 q 67 576 65 547 q 69 643 68 604 q 71 708 69 682 q 81 847 74 799 q 103 921 89 896 q 146 959 118 946 q 201 968 174 972 q 254 943 231 964 q 275 842 299 900 q 268 820 271 832 q 264 782 265 808 q 261 708 263 756 q 257 581 260 661 z "},"m":{"ha":956,"x_min":54,"x_max":932,"o":"m 892 775 q 867 628 876 700 q 853 494 857 556 q 851 459 851 482 q 851 411 851 436 q 852 363 851 386 q 854 328 853 340 q 859 282 856 314 q 867 215 863 250 q 879 149 872 179 q 894 108 886 119 q 897 4 932 56 q 852 -31 882 -19 q 794 -35 822 -42 q 733 10 750 -24 q 704 83 715 43 q 678 213 688 150 q 665 347 668 276 q 665 376 665 363 q 664 408 664 389 q 665 453 664 426 q 667 519 665 479 q 663 531 667 529 q 653 525 660 533 q 629 491 646 518 q 586 419 613 464 q 565 383 575 400 q 550 361 554 367 q 506 319 532 335 q 447 303 479 303 q 410 308 425 303 q 374 327 390 315 q 340 359 357 339 q 304 410 322 379 q 265 485 286 442 q 258 499 263 493 q 251 511 254 506 q 246 522 249 517 q 242 506 243 521 q 242 457 240 492 q 247 389 243 435 q 258 294 251 343 q 272 203 264 244 q 286 149 279 163 q 294 80 303 117 q 256 24 285 43 q 201 7 231 7 q 149 23 174 7 q 113 68 124 39 q 103 99 108 78 q 93 147 99 119 q 82 208 88 175 q 72 275 76 242 q 60 375 64 329 q 55 470 56 421 q 56 577 54 519 q 61 711 57 635 q 69 824 65 785 q 75 879 72 863 q 120 942 86 922 q 194 961 154 961 q 215 958 206 961 q 235 950 224 956 q 261 931 249 943 q 289 890 274 918 q 326 814 304 863 q 379 686 347 765 q 397 644 388 665 q 415 605 407 622 q 428 576 422 588 q 435 563 433 564 q 444 558 438 558 q 453 560 451 558 q 460 571 454 563 q 493 622 471 589 q 544 693 515 654 q 606 774 574 732 q 670 851 639 815 q 728 911 701 886 q 774 943 756 936 q 807 949 789 949 q 858 935 835 949 q 894 896 882 921 q 902 878 900 886 q 904 857 904 869 q 901 825 904 844 q 892 775 897 806 z "},"n":{"ha":856,"x_min":53,"x_max":811,"o":"m 304 842 q 315 816 310 828 q 328 785 319 804 q 353 733 338 765 q 396 647 369 701 q 445 549 426 586 q 477 488 464 513 q 503 442 490 463 q 535 392 517 421 q 553 363 547 371 q 563 354 560 356 q 569 356 568 354 q 572 457 572 358 q 573 523 572 497 q 575 572 574 549 q 580 622 576 594 q 589 692 583 649 q 597 752 592 717 q 608 821 603 788 q 619 880 614 854 q 626 910 625 906 q 653 949 635 933 q 694 969 671 965 q 708 972 700 971 q 724 971 717 972 q 740 969 735 971 q 756 963 746 968 q 792 935 778 953 q 810 893 807 917 q 811 881 811 888 q 810 863 811 874 q 807 837 810 853 q 800 797 804 821 q 784 703 790 746 q 774 622 778 660 q 767 551 769 585 q 764 482 764 517 q 764 435 764 456 q 765 394 764 415 q 767 347 765 372 q 774 281 769 321 q 781 179 781 218 q 776 122 781 140 q 689 33 757 51 q 658 31 678 31 q 626 33 639 31 q 556 69 592 42 q 487 134 521 96 q 421 217 453 172 q 362 307 389 263 q 313 392 335 351 q 275 463 290 433 q 257 496 263 486 q 250 504 251 506 q 247 479 247 501 q 244 410 246 457 q 254 254 244 335 q 279 114 264 174 q 286 60 288 81 q 272 21 285 40 q 214 -19 251 -11 q 171 -19 193 -25 q 128 3 147 -14 q 100 43 110 19 q 88 83 94 58 q 76 141 82 108 q 66 210 71 174 q 57 286 61 247 q 54 331 56 303 q 53 389 53 358 q 53 449 53 419 q 54 500 53 479 q 60 597 57 553 q 69 681 64 640 q 81 760 75 722 q 96 839 88 799 q 126 909 104 879 q 196 939 149 939 q 267 910 244 939 q 304 842 290 882 z "},"o":{"ha":908,"x_min":31,"x_max":875,"o":"m 872 550 q 874 515 874 538 q 875 469 875 493 q 874 425 875 446 q 872 393 874 404 q 828 253 860 318 q 742 126 796 188 q 588 14 675 51 q 411 -14 500 -24 q 271 25 335 -7 q 158 108 207 57 q 78 224 110 158 q 35 363 46 289 q 32 396 33 375 q 31 438 31 417 q 32 481 31 460 q 35 514 33 501 q 60 621 43 567 q 105 725 78 675 q 169 818 132 775 q 253 890 207 861 q 357 949 307 926 q 475 971 407 971 q 632 935 557 971 q 731 866 689 907 q 801 775 772 825 q 848 667 831 725 q 872 550 865 610 m 699 435 q 700 490 701 460 q 694 551 699 521 q 681 611 689 582 q 663 663 674 640 q 521 782 615 758 q 476 785 501 786 q 435 779 450 785 q 422 774 425 776 q 414 764 418 771 q 394 742 404 749 q 368 728 383 735 q 353 722 357 724 q 346 713 350 719 q 336 683 338 699 q 342 640 335 668 q 351 611 346 621 q 363 596 356 601 q 378 576 369 589 q 390 550 388 563 q 394 517 396 535 q 386 485 393 499 q 354 447 375 461 q 310 433 333 433 q 274 441 293 433 q 239 463 254 449 q 213 468 218 479 q 210 455 211 465 q 210 431 210 444 q 210 405 210 418 q 213 383 211 392 q 289 231 229 288 q 375 179 326 194 q 472 172 424 164 l 471 172 q 554 206 515 181 q 623 269 593 232 q 673 349 653 306 q 699 435 693 392 z "},"p":{"ha":803,"x_min":17,"x_max":789,"o":"m 431 257 q 404 243 415 250 q 392 235 393 236 q 388 228 389 232 q 388 213 388 224 q 396 162 388 190 q 413 114 404 133 q 419 96 418 101 q 419 75 419 90 q 419 54 419 60 q 413 38 418 49 q 349 -15 393 0 q 322 -19 339 -18 q 296 -19 304 -21 q 227 18 247 -12 q 194 90 207 49 q 188 116 192 103 q 182 135 183 129 q 151 169 175 161 q 92 208 114 181 q 76 268 71 236 q 125 335 82 307 q 140 344 135 340 q 147 354 144 347 q 149 374 149 361 q 147 411 149 388 q 148 540 144 467 q 160 682 151 613 q 164 717 163 704 q 165 735 165 729 q 165 744 165 742 q 163 747 164 746 q 147 749 158 751 q 115 747 133 746 q 82 751 96 747 q 24 801 39 765 q 17 816 18 811 q 17 835 17 821 q 26 873 17 857 q 49 901 35 889 q 83 923 64 914 q 119 938 101 932 q 155 947 135 942 q 198 957 175 953 q 244 965 221 961 q 285 969 267 968 q 318 972 297 971 q 361 972 339 972 q 403 972 383 972 q 436 969 424 971 q 559 941 501 963 q 662 888 617 919 q 738 815 707 856 q 781 726 768 774 q 788 681 786 707 q 786 635 789 654 q 738 516 775 572 q 649 411 700 460 q 541 324 599 363 q 431 257 483 285 m 551 606 q 572 661 571 636 q 557 710 574 686 q 507 753 542 733 q 432 781 472 772 q 410 782 417 783 q 394 771 404 781 l 386 763 l 381 722 q 367 606 372 671 q 361 492 361 540 q 362 460 361 474 q 363 444 363 447 q 369 442 365 440 q 386 451 374 443 q 485 527 439 485 q 551 606 531 569 z "},"q":{"ha":890,"x_min":33,"x_max":853,"o":"m 286 10 q 142 85 203 29 q 54 222 82 142 q 38 292 43 260 q 33 375 33 325 q 80 639 33 511 q 221 867 126 767 q 263 906 239 886 q 313 940 286 925 q 369 965 340 956 q 426 975 399 975 q 522 936 485 975 q 542 913 532 926 q 554 892 551 899 q 568 883 557 885 q 740 801 672 869 q 835 633 808 732 q 847 538 846 593 q 839 433 847 482 q 826 377 836 411 q 807 319 817 343 q 799 296 801 306 q 795 278 796 286 q 797 260 794 269 q 804 235 800 250 q 844 86 843 104 q 819 8 853 42 q 733 -15 782 -29 q 690 10 708 -8 q 676 32 681 21 q 664 67 671 43 q 657 85 660 78 q 654 94 654 93 q 625 86 646 101 q 508 24 569 46 q 385 0 447 3 q 335 1 356 -1 q 286 10 314 3 m 493 703 q 506 685 489 697 q 576 631 542 663 q 638 564 610 600 q 655 540 650 546 q 663 533 660 533 q 664 544 664 533 q 656 593 664 564 q 638 642 649 622 q 605 676 625 661 q 561 699 585 692 q 544 701 556 700 q 522 703 533 703 q 503 704 511 704 q 493 703 494 704 m 215 378 q 215 351 215 361 q 216 333 215 340 q 218 320 217 326 q 221 307 219 314 q 274 212 235 242 q 378 182 313 182 q 558 268 481 190 q 573 284 568 278 q 578 297 578 290 q 576 313 579 304 q 567 333 574 321 q 528 403 549 371 q 485 463 508 436 q 432 513 461 490 q 364 554 403 536 q 322 573 338 567 q 294 579 306 579 q 268 571 283 579 q 248 557 253 564 q 238 535 243 550 q 221 460 226 494 q 215 378 215 425 z "},"r":{"ha":836,"x_min":-1,"x_max":822,"o":"m 56 758 q 31 775 40 765 q 14 800 21 785 q 10 862 -1 829 q 54 915 22 894 q 112 941 75 931 q 190 958 149 951 q 271 969 231 965 q 340 972 311 972 q 471 958 401 972 q 600 914 540 944 q 703 834 660 883 q 756 714 746 785 q 678 533 765 621 q 609 476 646 503 q 517 418 572 450 q 494 402 497 407 q 496 392 490 397 q 509 381 499 389 q 533 363 519 372 q 597 313 554 347 q 685 240 640 279 q 766 165 729 201 q 813 107 803 128 q 822 69 821 89 q 816 33 822 50 q 797 3 810 17 q 764 -17 783 -10 q 740 -22 754 -21 q 717 -21 726 -24 q 688 -10 701 -18 q 657 17 675 -1 q 629 44 649 25 q 587 83 610 63 q 542 124 564 104 q 508 153 521 143 q 481 176 503 158 q 433 212 458 193 q 385 245 407 231 q 357 260 364 260 q 351 256 354 260 q 351 226 349 253 q 357 167 353 199 q 361 145 360 151 q 365 132 363 139 q 380 74 383 104 q 353 21 376 43 q 286 -7 325 -7 q 238 6 261 -7 q 201 46 215 19 q 185 96 190 65 q 172 189 179 126 q 167 244 169 222 q 164 297 165 267 q 161 374 163 326 q 157 506 160 422 q 153 627 156 582 q 151 696 151 672 q 149 728 150 719 q 144 743 147 738 q 136 753 142 751 q 117 751 131 754 q 56 758 88 743 m 340 789 q 331 775 333 783 q 331 744 329 767 q 332 703 331 736 q 335 635 333 671 q 338 572 336 600 q 340 540 339 543 q 349 537 343 536 q 376 549 356 538 q 466 598 421 569 q 539 651 511 626 q 565 676 554 663 q 575 696 575 689 q 563 719 575 706 q 532 746 551 733 q 460 776 504 765 q 372 790 417 788 q 349 792 356 792 q 340 789 343 792 z "},"s":{"ha":663,"x_min":-15,"x_max":649,"o":"m 78 721 q 175 825 114 774 q 306 908 236 876 q 369 935 335 922 q 435 957 403 947 q 497 972 468 967 q 546 978 526 978 q 615 954 586 978 q 647 876 649 922 q 628 824 644 847 q 585 789 613 800 q 571 785 578 786 q 544 783 564 785 q 456 767 506 783 q 360 724 407 751 q 275 662 313 697 q 221 589 238 626 q 215 565 215 578 q 219 543 214 551 q 264 498 231 522 q 364 438 297 474 q 522 335 471 382 q 586 233 572 289 q 591 194 590 217 q 588 157 592 172 q 545 84 576 114 q 473 36 514 54 q 387 10 432 18 q 304 -1 342 1 q 272 -2 292 -1 q 233 -3 253 -3 q 198 -2 214 -3 q 176 -1 182 -1 q 116 31 140 6 q 89 89 92 56 q 142 181 85 151 q 158 188 153 188 q 178 189 163 189 q 199 188 186 189 q 221 186 211 188 q 260 186 238 185 q 305 190 283 188 q 343 194 326 192 q 364 200 360 197 q 372 212 374 207 q 351 228 369 217 q 323 244 342 233 q 286 265 304 254 q 216 304 244 288 q 167 335 188 321 q 131 361 146 349 q 101 389 115 374 q 74 420 85 404 q 53 453 63 436 q 78 721 -15 582 z "},"t":{"ha":567,"x_min":10,"x_max":565,"o":"m 108 650 q 29 692 54 653 q 13 751 10 719 q 38 806 15 782 q 75 832 53 822 q 92 835 82 835 q 126 838 101 836 l 167 839 l 172 844 q 177 853 176 849 q 181 874 178 858 q 187 907 183 894 q 197 932 190 919 q 237 967 211 956 q 289 975 263 979 q 349 940 329 968 q 369 874 369 911 l 369 851 l 386 833 l 419 826 q 466 818 447 822 q 497 810 485 814 q 519 800 510 806 q 535 786 528 794 q 558 752 550 772 q 563 714 565 732 q 533 653 558 678 q 471 628 508 628 q 426 635 457 628 q 401 640 415 638 q 378 643 386 642 q 360 645 363 646 q 354 640 357 644 q 342 625 344 633 q 338 585 340 617 q 332 487 333 531 q 331 382 331 443 q 333 218 331 286 q 343 131 336 150 q 348 105 347 115 q 347 82 349 94 q 325 34 342 54 q 283 4 308 14 q 256 -1 271 0 q 229 1 240 -1 q 185 28 203 8 q 160 75 167 47 q 154 110 157 86 q 149 161 151 135 q 144 251 146 199 q 143 358 143 303 q 144 466 143 414 q 147 553 144 518 q 149 592 149 578 q 150 613 150 606 q 149 625 150 621 q 144 633 147 629 q 132 646 139 643 q 108 650 125 649 z "},"u":{"ha":861,"x_min":50,"x_max":825,"o":"m 785 849 q 786 819 788 838 q 778 754 785 801 q 763 612 768 679 q 758 481 757 544 q 766 356 760 418 q 785 226 772 293 q 797 172 792 190 q 810 142 803 154 q 825 90 825 117 q 797 23 825 50 q 731 -4 769 -4 q 657 28 689 -4 q 619 97 635 49 q 589 233 604 146 q 583 265 586 250 q 581 283 581 279 q 576 293 579 293 q 568 283 572 292 q 547 239 564 275 q 508 155 529 197 q 456 78 486 113 q 388 22 426 44 q 299 -4 350 -1 q 181 34 226 -4 q 108 129 135 72 q 70 252 82 186 q 54 374 58 318 q 51 428 53 394 q 50 499 50 463 q 51 573 50 536 q 54 636 53 610 q 78 812 63 740 q 117 918 94 883 q 157 958 132 944 q 208 971 182 971 q 268 951 243 971 q 299 910 289 936 q 304 857 310 885 q 294 833 301 846 q 281 813 288 819 q 262 753 269 797 q 250 658 254 710 q 244 560 246 607 q 242 494 242 514 q 251 335 243 399 q 275 226 258 271 q 297 196 288 196 q 321 217 307 196 q 373 317 340 244 q 458 526 406 389 q 496 624 481 583 q 525 698 511 664 q 553 765 539 732 q 586 839 568 797 q 615 889 601 872 q 647 915 628 906 q 689 926 669 926 q 750 904 724 926 q 785 849 776 882 z "},"v":{"ha":726,"x_min":42,"x_max":722,"o":"m 508 875 q 528 913 518 894 q 552 945 539 931 q 583 969 565 960 q 624 978 600 978 q 661 970 643 978 q 693 949 679 963 q 715 915 707 935 q 721 874 722 896 q 716 847 719 858 q 706 824 713 836 q 680 776 696 808 q 646 704 664 744 q 608 620 628 664 q 574 538 589 576 q 542 453 556 492 q 515 378 528 414 q 492 309 503 343 q 471 239 482 275 q 450 166 458 194 q 435 119 442 138 q 424 88 429 100 q 413 65 419 76 q 387 33 403 50 q 358 10 371 17 q 310 -8 336 -3 q 263 -6 285 -12 q 153 94 196 13 q 86 331 110 175 q 68 472 75 390 q 56 653 61 553 q 50 781 53 735 q 44 843 47 828 q 45 890 42 871 q 63 928 49 908 q 97 958 76 947 q 142 969 118 969 q 205 945 178 969 q 239 885 232 921 q 244 828 242 874 q 250 714 247 783 q 261 542 256 624 q 272 415 267 460 q 276 391 274 406 q 281 363 279 376 q 285 340 283 350 q 288 329 288 331 q 292 331 290 326 q 299 351 293 335 q 342 482 318 414 q 394 618 367 550 q 450 752 421 686 q 508 875 479 818 z "},"w":{"ha":988,"x_min":31,"x_max":981,"o":"m 211 913 q 214 892 214 901 q 211 851 214 883 q 216 796 210 840 q 231 703 222 751 q 238 661 233 689 q 247 606 243 633 q 259 531 254 560 q 267 487 264 503 q 271 465 269 471 q 274 457 272 458 q 279 458 278 453 q 295 501 286 472 q 314 564 304 531 q 331 628 324 597 q 343 676 339 660 q 366 761 357 729 q 381 812 375 793 q 393 841 388 831 q 406 863 399 851 q 485 904 436 904 q 538 889 518 904 q 569 849 558 874 q 583 797 579 825 q 590 743 588 768 q 596 694 593 719 q 600 657 599 668 q 602 644 601 654 q 606 624 603 635 q 613 575 608 603 q 624 517 618 547 q 636 458 631 486 q 647 406 642 429 q 654 392 651 392 q 657 390 656 390 q 661 400 658 390 q 669 432 664 410 q 685 499 675 454 q 694 538 689 517 q 701 574 699 560 q 733 701 719 651 q 756 783 746 751 q 776 832 767 814 q 799 864 786 850 q 844 894 818 885 q 896 897 871 904 q 958 858 936 890 q 974 790 981 826 q 960 756 971 772 q 933 731 949 739 q 926 724 928 728 q 921 711 924 721 q 883 559 901 635 q 847 407 865 483 q 828 324 838 367 q 810 242 819 282 q 792 156 799 188 q 782 107 786 125 q 775 81 778 89 q 768 64 772 72 q 696 -4 743 8 q 671 -7 686 -7 q 646 -4 656 -7 q 572 57 601 7 q 552 103 564 72 q 527 172 540 133 q 501 255 514 211 q 479 339 489 299 q 471 376 475 358 q 464 399 467 393 q 451 407 458 425 q 445 385 450 401 q 435 349 440 369 q 423 309 429 329 q 413 275 417 289 q 372 163 389 199 q 333 108 356 126 q 309 95 324 101 q 282 86 294 89 q 267 85 272 85 q 250 88 261 85 q 197 113 218 93 q 163 161 176 133 q 142 211 151 183 q 123 276 132 239 q 106 360 114 313 q 88 469 97 408 q 83 494 86 478 q 77 527 81 510 q 72 560 74 544 q 69 583 69 575 q 66 603 68 590 q 61 626 64 615 q 44 735 50 692 q 34 808 38 779 q 31 856 31 838 q 33 888 31 874 q 65 951 40 928 q 126 974 90 974 q 178 957 157 974 q 211 913 200 940 z "},"x":{"ha":719,"x_min":21,"x_max":710,"o":"m 67 742 q 37 792 46 775 q 25 824 28 810 q 21 849 21 839 q 24 871 21 858 q 61 926 32 906 q 125 940 90 947 q 196 875 178 932 q 205 857 197 871 q 222 828 213 843 q 245 790 232 813 q 268 753 258 768 q 286 724 279 736 q 296 710 293 711 q 314 708 301 706 q 336 735 318 711 q 387 801 354 760 q 459 883 419 843 q 540 951 499 922 q 614 981 581 981 q 672 960 646 981 q 704 906 697 939 q 692 844 710 874 q 643 803 674 814 q 592 765 622 796 q 530 694 561 733 q 472 619 499 656 q 435 563 446 582 q 415 529 418 536 q 414 508 413 522 l 415 490 l 433 458 q 496 353 464 406 q 558 256 528 301 q 612 178 588 211 q 650 132 636 146 q 672 102 665 115 q 681 69 679 89 q 667 15 683 38 q 651 -3 660 4 q 629 -17 643 -10 q 598 -24 615 -24 q 568 -21 581 -25 q 531 -1 546 -14 q 494 39 517 11 q 462 83 482 54 q 419 144 442 111 q 375 213 397 178 q 336 275 353 247 q 317 297 322 297 q 303 274 311 297 q 286 220 294 250 q 272 161 278 190 q 264 119 265 132 q 239 53 261 81 q 175 26 217 26 q 130 40 151 26 q 96 78 108 53 l 89 93 l 89 126 q 97 199 89 160 q 117 279 106 239 q 144 358 129 319 q 171 426 158 396 q 180 449 175 436 q 189 468 185 461 q 197 491 194 482 q 199 508 200 500 q 192 528 197 517 q 176 558 186 540 q 148 608 161 586 q 122 652 135 631 q 95 695 108 674 q 67 742 82 717 z "},"y":{"ha":701,"x_min":15,"x_max":703,"o":"m 63 707 q 52 747 60 722 q 38 793 44 771 q 19 855 24 839 q 15 886 15 871 q 40 949 15 924 q 103 975 64 975 q 163 952 139 975 q 190 894 186 929 q 196 873 192 888 q 204 844 200 858 q 212 821 208 832 q 219 795 215 810 q 230 760 224 781 q 246 704 236 739 q 267 633 257 667 q 288 572 278 599 q 299 553 293 558 q 310 553 306 547 q 315 561 311 556 q 321 574 318 567 q 471 813 386 696 q 503 859 486 835 q 526 894 519 883 q 543 917 535 906 q 556 932 551 929 q 614 956 582 956 q 675 929 649 956 q 699 882 694 910 q 690 828 703 854 q 667 790 685 817 q 619 722 649 763 q 550 621 582 669 q 491 523 518 572 q 440 422 464 474 q 392 313 415 371 q 369 253 381 286 q 350 191 358 221 q 336 138 342 161 q 332 107 331 115 q 333 96 333 104 q 335 81 333 88 q 335 63 336 69 q 332 49 335 57 q 297 4 321 21 q 242 -11 274 -12 q 217 -8 228 -11 q 156 58 168 10 q 197 289 142 115 q 205 314 204 308 q 204 329 206 319 q 199 344 203 336 q 189 365 196 353 q 160 423 175 390 q 133 490 146 456 q 107 560 119 525 q 86 628 94 596 q 81 647 83 636 q 76 661 78 657 q 70 680 74 667 q 63 707 67 693 z "},"z":{"ha":726,"x_min":8,"x_max":697,"o":"m 207 794 q 164 783 185 783 q 106 808 131 783 q 81 851 86 828 q 82 898 75 875 q 108 940 89 921 q 154 967 126 958 q 197 976 169 971 q 259 984 225 981 q 330 990 293 988 q 399 992 367 992 q 485 988 440 992 q 569 971 529 985 q 642 931 610 957 q 692 861 675 906 q 696 843 694 850 q 697 815 697 836 q 687 754 697 782 q 657 699 676 726 q 640 674 649 686 q 617 647 631 663 q 583 608 603 631 q 531 551 563 586 q 492 509 518 538 q 435 444 467 481 q 371 368 404 408 q 309 292 338 328 q 261 226 281 256 q 239 185 242 197 q 243 174 239 176 q 332 179 251 167 q 422 192 372 186 q 510 203 472 199 q 553 207 532 206 q 585 210 575 208 q 617 211 604 213 q 643 203 629 210 q 681 165 668 190 q 690 113 694 140 q 674 71 686 86 q 644 47 661 56 q 605 36 626 39 q 563 31 583 33 q 472 22 515 26 q 401 13 429 17 q 347 3 368 7 q 308 -2 326 0 q 273 -5 290 -4 q 229 -6 256 -6 q 179 -5 201 -6 q 150 -4 157 -4 q 54 39 88 6 q 21 149 8 83 q 34 193 25 169 q 60 245 43 217 q 102 309 76 274 q 165 392 128 344 q 228 472 201 439 q 282 537 254 504 q 344 608 310 569 q 433 706 379 647 q 501 782 486 763 q 507 807 515 801 q 467 814 499 811 q 397 817 436 817 q 354 816 381 817 q 299 813 328 815 q 245 806 271 811 q 207 794 219 801 z "},"{":{"ha":457,"x_min":67,"x_max":481,"o":"m 279 574 q 276 484 278 532 q 272 410 275 436 q 270 340 271 382 q 269 257 269 299 q 268 182 268 215 q 269 136 268 149 l 271 114 l 279 111 q 294 106 282 110 q 321 99 307 103 q 349 90 336 94 q 368 83 363 86 q 410 44 396 69 q 424 -8 424 19 q 409 -59 424 -35 q 365 -97 394 -83 q 349 -103 354 -103 q 326 -106 343 -104 q 309 -106 317 -106 q 299 -104 301 -106 q 217 -79 253 -92 q 158 -56 181 -67 q 98 -3 118 -36 q 71 79 78 29 q 68 137 69 99 q 67 225 67 175 q 69 334 67 275 q 74 456 71 393 q 81 659 76 558 q 97 861 86 760 q 103 930 100 894 q 108 982 107 965 q 117 1047 111 1026 q 135 1088 124 1068 q 178 1129 151 1111 q 247 1161 206 1147 q 340 1184 297 1178 q 406 1183 382 1190 q 460 1148 439 1175 q 481 1088 481 1121 q 456 1022 481 1049 q 394 989 431 996 q 347 979 361 982 q 324 974 333 976 l 310 969 l 310 961 q 308 941 310 958 q 303 898 306 924 q 298 841 301 872 q 292 779 294 810 q 288 738 290 757 q 285 697 286 719 q 283 644 285 674 q 279 574 282 615 z "},"|":{"ha":354,"x_min":68,"x_max":303,"o":"m 289 1221 q 299 1193 296 1208 q 302 1153 301 1178 q 300 1089 303 1128 q 292 990 297 1050 q 274 718 278 853 q 271 444 271 583 q 271 349 271 399 q 272 253 271 299 q 272 169 272 207 q 272 107 272 131 q 272 36 272 61 q 272 -3 272 11 q 269 -23 271 -17 q 264 -37 267 -29 q 219 -85 250 -69 q 154 -96 188 -101 q 115 -78 135 -92 q 86 -44 96 -64 q 79 -30 82 -36 q 75 -12 76 -24 q 73 21 74 0 q 72 79 72 42 q 72 158 72 118 q 69 218 71 199 q 69 252 69 229 q 68 307 68 275 q 68 378 68 339 q 68 458 68 417 q 74 758 69 610 q 94 1056 79 906 q 99 1103 97 1081 q 100 1139 100 1125 q 100 1169 100 1158 q 100 1187 100 1181 q 101 1197 100 1193 q 101 1203 101 1200 q 146 1264 113 1242 q 183 1277 161 1274 q 225 1275 206 1281 q 262 1255 244 1269 q 289 1221 279 1240 z "},"}":{"ha":515,"x_min":58,"x_max":447,"o":"m 447 622 q 447 503 447 558 q 444 417 446 447 q 444 380 444 403 q 442 329 443 357 q 441 270 442 301 q 440 210 440 239 q 440 131 440 160 q 440 85 440 101 q 438 60 439 68 q 436 44 438 53 q 419 -15 429 10 q 392 -56 408 -39 q 351 -83 375 -72 q 290 -100 326 -93 q 265 -107 281 -103 q 239 -114 250 -111 q 212 -121 221 -119 q 189 -124 203 -122 q 172 -124 179 -124 q 164 -122 165 -124 q 100 -79 124 -112 q 83 -6 76 -46 q 110 49 88 26 q 167 78 133 71 q 185 81 174 79 q 206 86 196 83 q 223 91 215 89 q 233 94 231 93 l 239 94 l 240 250 q 240 314 240 282 q 241 374 240 346 q 242 423 242 401 q 243 454 243 444 q 245 531 244 485 q 246 628 246 578 q 245 724 246 678 q 243 797 244 769 q 240 848 242 817 q 238 910 239 879 q 235 965 236 942 q 233 990 233 988 q 223 992 233 992 q 196 992 213 992 q 163 991 172 990 q 144 994 154 992 q 97 1021 118 1000 q 74 1115 58 1061 q 100 1162 81 1143 q 149 1190 119 1181 q 189 1194 161 1194 q 249 1192 217 1194 q 310 1186 281 1190 q 354 1176 340 1182 q 414 1128 394 1161 q 419 1117 417 1124 q 425 1103 422 1110 q 429 1090 428 1097 q 431 1069 431 1082 q 433 1034 432 1056 q 436 976 435 1013 q 444 799 440 888 q 447 622 447 711 z "},"~":{"ha":1061,"x_min":46,"x_max":1013,"o":"m 1007 722 q 1012 705 1011 711 q 1011 682 1013 699 q 962 550 1008 607 q 849 465 915 493 q 715 442 793 442 q 613 454 661 442 q 566 468 596 458 q 475 501 536 478 q 385 528 418 521 q 328 532 351 535 q 268 509 293 528 q 221 465 243 490 q 206 450 211 454 q 189 440 200 446 q 132 431 163 426 q 71 463 96 435 q 46 529 46 492 q 63 586 46 560 q 103 635 79 613 q 156 676 128 658 q 208 704 185 693 q 267 726 240 719 q 333 733 293 732 q 383 731 360 733 q 435 723 407 729 q 499 706 463 717 q 586 675 535 694 q 630 660 613 665 q 660 651 647 654 q 683 645 672 647 q 706 643 693 643 q 762 648 740 642 q 799 669 783 654 q 808 682 806 678 q 813 701 810 686 q 846 766 819 740 q 914 792 872 792 q 972 773 946 792 q 1007 722 997 754 z "},"":{"ha":436,"x_min":0,"x_max":0,"o":""},"":{"ha":375,"x_min":61,"x_max":311,"o":"m 181 822 q 131 852 151 829 q 106 906 110 875 q 109 950 101 929 q 131 987 117 971 q 166 1013 146 1003 q 210 1022 186 1022 q 259 1010 238 1022 q 294 977 281 997 q 309 932 307 957 q 300 882 311 907 q 271 845 289 861 q 229 822 253 829 q 204 819 219 819 q 181 822 189 819 m 303 697 q 305 688 304 693 q 306 671 306 682 q 308 640 307 660 q 308 588 308 621 q 307 487 308 535 q 302 392 306 439 q 293 299 299 346 q 279 200 288 253 l 271 156 l 275 138 q 276 97 279 117 q 261 53 272 78 q 196 -7 240 8 q 167 -10 185 -10 q 138 -8 149 -11 q 102 10 118 -3 q 76 40 86 24 q 65 68 69 51 q 61 101 61 85 q 62 115 61 108 q 64 134 63 122 q 69 165 65 146 q 78 214 72 183 q 96 349 89 281 q 106 475 103 417 q 108 523 107 496 q 108 577 108 550 q 108 626 108 604 q 106 658 107 649 q 108 702 103 685 q 125 736 113 719 q 204 776 157 776 q 267 753 240 776 q 303 697 293 731 z "},"":{"ha":735,"x_min":40,"x_max":683,"o":"m 544 518 q 561 522 553 521 q 576 524 569 524 q 628 509 604 524 q 665 468 653 494 q 676 424 676 446 q 665 381 675 401 q 638 346 656 361 q 594 322 619 331 q 570 317 588 321 q 533 312 553 314 q 494 308 513 310 q 468 306 476 306 l 460 306 l 460 254 q 460 209 460 218 q 463 194 460 200 q 474 156 471 178 q 471 119 476 135 q 401 46 453 64 q 371 41 389 42 q 340 43 353 40 q 264 133 276 63 q 260 184 261 144 q 257 297 258 224 q 254 302 257 301 q 240 306 251 303 q 100 369 150 318 q 47 476 53 415 q 74 606 40 538 q 133 692 94 646 q 214 771 172 738 q 228 784 225 781 q 232 790 232 788 q 230 819 231 793 q 228 878 229 846 q 228 940 228 910 q 228 982 228 971 q 237 1038 229 1017 q 261 1076 244 1058 q 306 1102 281 1094 q 356 1103 331 1110 q 415 1062 393 1094 q 431 992 438 1029 q 429 967 429 985 q 429 933 429 950 l 429 893 l 446 897 q 489 906 465 904 q 535 908 513 908 q 613 890 578 908 q 668 832 649 872 q 678 768 683 800 q 650 713 674 736 q 617 690 635 697 q 579 683 599 683 q 522 701 546 683 q 511 706 518 706 q 448 686 486 706 q 372 638 410 667 q 301 576 333 608 q 257 519 269 544 l 250 508 l 260 506 q 304 501 276 503 q 363 500 332 499 q 418 503 390 501 q 471 508 446 506 q 515 513 496 510 q 544 518 535 515 z "},"":{"ha":889,"x_min":44,"x_max":871,"o":"m 850 203 q 847 111 871 158 q 764 36 822 64 q 651 3 721 17 q 497 -15 582 -11 q 471 -16 481 -15 q 454 -17 461 -17 q 439 -16 447 -17 q 415 -15 431 -15 q 325 -6 375 -12 q 226 13 275 1 q 174 18 194 21 q 140 17 154 15 q 108 28 125 19 q 58 85 71 46 q 64 161 44 124 q 74 178 68 171 q 99 204 81 186 q 131 240 121 226 q 149 272 140 253 q 162 304 156 285 q 174 345 168 324 q 186 390 181 367 q 196 433 192 413 q 199 453 199 444 q 201 463 200 461 l 203 468 l 181 467 q 97 490 129 463 q 65 551 69 515 q 79 619 60 588 q 127 660 99 651 q 190 668 156 668 q 215 669 204 669 q 225 671 225 669 q 228 689 226 679 q 235 733 233 708 q 247 801 242 772 q 259 852 253 829 q 273 895 265 875 q 292 938 281 915 q 395 1071 335 1024 q 513 1110 456 1118 q 557 1091 538 1106 q 588 1057 576 1076 q 600 1014 599 1038 q 590 967 601 990 q 531 915 572 929 q 492 883 508 907 q 465 830 476 860 q 447 770 454 800 q 438 721 440 740 q 433 692 435 701 q 432 678 431 682 q 438 673 433 674 q 450 672 442 672 q 540 657 514 671 q 573 630 560 647 q 592 593 586 613 q 595 553 597 574 q 581 514 593 532 q 563 493 574 503 q 540 478 551 483 q 511 469 525 471 q 475 469 497 467 q 451 471 464 471 q 428 471 438 471 l 406 471 l 401 447 q 378 320 394 385 q 338 197 363 256 q 358 194 340 196 q 396 190 375 192 q 435 187 417 188 q 457 186 453 186 q 555 192 506 186 q 644 207 604 197 q 671 216 665 213 q 688 231 676 219 q 763 261 719 261 q 814 246 790 261 q 850 203 838 231 z "},"":{"ha":865,"x_min":6,"x_max":822,"o":"m 531 636 q 514 628 518 632 q 513 618 511 625 l 513 610 l 546 610 q 615 604 592 608 q 657 589 639 600 q 691 548 681 572 q 699 499 701 524 q 683 451 697 474 q 644 417 669 429 q 617 408 631 410 q 565 407 603 406 l 518 408 l 518 376 l 533 375 q 560 374 542 375 q 601 372 579 374 q 640 369 622 371 q 664 367 658 368 q 729 333 704 361 q 754 267 754 306 q 753 253 754 260 q 750 242 753 246 q 724 197 743 215 q 679 171 706 178 q 635 168 667 168 q 547 172 604 168 l 533 174 l 533 158 q 522 115 533 135 q 494 83 511 96 q 455 65 476 69 q 410 65 433 60 q 353 106 375 76 q 331 171 331 135 q 326 183 331 182 q 289 183 321 185 q 246 183 257 182 q 219 192 235 185 q 196 209 208 197 q 176 232 183 221 q 176 328 150 281 q 225 372 192 360 q 290 385 258 385 q 314 385 310 385 q 317 388 318 385 l 317 401 l 317 413 l 292 413 q 244 415 269 413 q 204 422 218 418 q 191 428 199 425 q 179 435 183 432 q 147 471 158 450 q 135 515 136 492 q 143 560 133 538 q 174 597 153 582 q 212 615 192 611 q 264 615 232 618 q 285 614 275 614 q 300 614 294 614 l 310 614 l 310 643 l 294 650 q 238 691 267 665 q 181 747 208 717 q 131 807 154 776 q 89 863 107 838 q 69 888 78 876 q 58 903 61 900 q 35 938 47 918 q 19 967 22 958 q 19 1038 6 1003 q 67 1090 33 1074 q 88 1099 79 1097 q 113 1101 97 1101 q 167 1085 142 1101 q 189 1067 179 1078 q 214 1033 199 1057 q 251 982 226 1015 q 303 915 275 949 q 358 855 331 882 q 403 822 385 828 q 426 818 414 818 q 513 860 467 818 q 539 887 524 871 q 571 922 554 903 q 603 958 588 940 q 629 988 619 975 q 667 1026 646 1011 q 718 1040 689 1040 q 771 1025 744 1040 q 799 998 786 1017 q 817 960 813 979 q 815 910 822 933 q 783 858 807 886 q 748 816 769 840 q 703 768 726 792 q 660 724 681 744 q 628 693 640 703 q 531 636 583 656 z "},"":{"ha":1171,"x_min":51,"x_max":1115,"o":"m 1110 583 q 1113 556 1113 574 q 1115 520 1114 539 q 1115 484 1115 501 q 1113 456 1114 467 q 1063 303 1101 372 q 968 182 1025 233 q 839 97 911 131 q 686 51 767 64 q 656 49 674 50 q 618 47 638 47 q 581 46 599 46 q 551 47 563 46 q 425 73 488 53 q 306 126 363 93 q 203 206 250 160 q 122 307 156 251 q 68 436 85 369 q 56 569 51 503 q 84 701 60 636 q 153 822 108 765 q 338 963 228 914 q 567 1011 449 1011 q 752 981 661 1011 q 917 894 843 950 q 1042 758 990 838 q 1110 583 1093 679 m 914 513 q 883 635 914 579 q 802 729 851 690 q 691 790 753 768 q 567 811 629 811 q 453 793 508 811 q 353 740 397 775 q 283 656 310 706 q 256 544 256 607 q 282 432 256 483 q 351 342 308 381 q 448 278 393 303 q 560 247 503 254 q 583 247 568 247 q 613 247 597 247 q 643 248 629 247 q 664 250 657 249 q 760 281 715 260 q 840 336 806 303 q 894 414 874 369 q 914 513 914 458 m 772 660 q 749 595 772 622 q 688 561 725 568 q 667 560 676 560 q 643 565 658 561 q 628 567 632 568 q 608 564 624 567 q 578 554 592 560 q 561 543 564 549 q 576 525 558 536 q 618 510 594 514 q 635 507 625 508 q 651 504 644 506 q 722 457 699 494 q 732 375 746 419 q 706 334 725 351 q 663 310 688 317 q 589 311 636 303 q 505 338 546 319 q 431 385 464 356 q 378 452 399 414 q 358 538 358 490 q 363 583 358 564 q 382 629 368 603 q 428 691 400 665 q 489 733 456 717 q 560 758 522 750 q 635 767 597 767 q 684 760 660 767 q 728 742 708 754 q 760 709 747 729 q 772 660 772 689 z "},"":{"ha":0,"x_min":0,"x_max":0,"o":""},"":{"ha":569,"x_min":51,"x_max":517,"o":"m 517 718 q 516 689 517 697 q 511 667 515 681 q 472 588 499 624 q 410 528 446 553 q 331 491 374 503 q 242 483 288 479 q 138 519 183 488 q 68 599 92 550 q 55 638 58 622 q 51 685 51 654 q 52 718 51 710 q 57 739 53 726 q 94 813 69 779 q 151 869 118 846 q 224 906 185 893 q 304 919 263 919 q 388 905 349 919 q 455 864 426 890 q 500 800 483 838 q 517 718 517 763 m 457 711 q 449 767 458 743 q 418 814 440 792 q 391 835 403 828 q 361 850 379 843 q 269 857 317 865 q 211 837 239 851 q 161 800 183 822 q 126 750 139 778 q 111 690 113 722 q 113 655 110 668 q 125 622 115 642 q 181 564 144 582 q 260 542 218 546 q 267 542 261 542 q 282 543 274 543 q 346 561 315 547 q 401 597 376 575 q 440 647 425 618 q 457 711 456 676 m 342 689 q 371 668 357 679 q 388 650 385 657 q 387 620 394 635 q 363 606 379 606 q 349 608 354 606 q 329 622 343 611 q 315 632 325 626 q 295 644 306 638 q 276 654 285 650 q 265 658 268 658 l 265 647 q 267 626 267 633 q 268 615 268 618 q 267 609 268 611 q 264 604 267 607 q 232 590 251 585 q 213 602 218 593 q 206 635 208 611 q 204 669 206 646 q 202 716 203 692 q 201 760 201 740 q 200 783 200 779 q 281 825 200 825 q 328 815 308 825 q 356 776 349 806 q 336 708 364 744 l 328 697 q 333 694 329 696 q 342 689 336 692 m 289 749 q 272 765 306 767 l 261 764 l 261 757 q 263 740 263 754 l 263 729 l 274 735 q 282 742 278 738 q 289 749 286 746 z "},"":{"ha":804,"x_min":44,"x_max":747,"o":"m 621 833 q 584 852 600 839 q 558 883 568 865 q 547 920 549 900 q 551 960 544 940 q 579 1003 560 985 q 622 1026 599 1021 q 670 1025 646 1032 q 713 1001 694 1018 q 737 969 729 986 q 744 929 744 953 q 715 860 744 889 q 671 833 696 840 q 621 833 646 826 m 643 324 q 711 297 683 325 q 739 252 731 278 q 742 199 747 226 q 690 110 732 151 q 592 39 647 69 q 478 -11 538 8 q 374 -37 418 -31 q 350 -40 364 -39 q 322 -42 336 -42 q 294 -42 307 -42 q 274 -42 282 -42 q 185 -19 226 -36 q 112 26 143 -3 q 63 92 81 54 q 44 181 44 131 q 56 249 44 217 q 86 313 67 282 q 119 353 101 333 q 164 395 138 374 q 227 442 190 417 q 314 497 264 467 q 432 576 401 554 q 458 599 443 585 q 488 631 474 614 q 513 664 501 647 q 528 694 524 681 q 600 768 549 754 q 647 769 624 775 q 688 750 669 764 q 716 715 706 736 q 726 669 726 694 q 713 615 726 644 q 681 556 700 585 q 641 501 663 526 q 603 460 619 476 q 572 431 588 444 q 537 403 557 418 q 491 372 517 389 q 428 332 465 356 q 356 285 386 306 q 306 250 326 265 q 274 222 286 235 q 253 199 261 210 q 253 171 239 179 q 292 161 264 164 q 346 163 319 158 q 397 174 365 165 q 460 197 428 183 q 518 229 492 211 q 553 268 544 247 q 643 324 581 324 z "},"":{"ha":854,"x_min":32,"x_max":808,"o":"m 343 1167 q 327 1179 336 1171 q 309 1197 318 1188 q 294 1215 300 1206 q 288 1232 288 1225 q 294 1256 288 1246 q 339 1276 308 1279 q 349 1272 342 1276 q 365 1261 357 1267 q 381 1251 374 1256 q 390 1244 388 1246 q 431 1215 408 1235 q 454 1172 454 1196 q 451 1160 454 1168 q 446 1149 449 1153 q 431 1137 440 1142 q 410 1132 421 1132 q 402 1131 406 1131 q 392 1135 399 1132 q 381 1139 383 1138 q 374 1144 379 1140 q 353 1160 358 1156 q 343 1167 347 1164 m 782 624 q 796 549 790 592 q 805 459 801 507 q 808 360 808 411 q 806 261 808 310 q 802 201 803 236 q 801 140 801 165 q 801 92 801 108 q 799 71 800 76 q 762 19 789 39 q 703 -1 735 -1 q 647 15 671 -1 q 610 60 624 32 q 599 81 603 75 q 583 88 594 88 q 567 85 576 88 q 542 81 557 83 q 475 71 504 74 q 406 68 446 68 q 322 74 365 68 q 239 93 279 79 q 163 128 199 107 q 100 183 128 150 q 54 306 56 240 q 96 431 53 371 q 177 508 128 476 q 283 561 226 540 q 400 591 340 582 q 513 600 460 600 q 537 601 528 600 q 550 602 546 601 q 556 603 554 603 q 560 606 558 604 q 568 618 565 610 q 569 627 569 624 q 565 639 568 631 q 551 669 561 650 q 533 701 542 689 q 478 749 508 735 q 406 765 447 764 q 247 707 300 769 l 238 696 l 238 676 q 222 619 238 643 q 174 581 204 592 q 115 576 144 569 q 53 619 75 588 q 32 692 32 651 q 50 771 32 733 q 96 840 68 808 q 159 897 124 872 q 229 938 194 922 q 308 960 267 953 q 390 968 349 968 q 541 942 476 968 q 652 871 606 917 q 730 762 699 825 q 782 624 761 699 m 563 293 q 596 312 588 301 q 604 346 604 322 q 590 379 604 367 q 526 397 576 393 q 476 397 504 400 q 418 389 447 394 q 361 375 389 383 q 314 356 333 367 q 263 318 279 338 l 257 310 l 263 304 q 299 285 275 293 q 353 274 324 278 q 376 272 363 272 q 406 271 390 271 q 435 271 421 271 q 463 272 450 271 q 515 281 488 275 q 563 293 542 286 z "},"":{"ha":854,"x_min":32,"x_max":808,"o":"m 411 1132 q 392 1137 401 1132 q 376 1149 382 1142 q 371 1160 374 1153 q 368 1172 368 1168 q 371 1188 368 1179 q 381 1204 374 1197 q 404 1224 388 1211 q 432 1244 421 1238 q 442 1251 435 1246 q 458 1261 450 1256 q 474 1272 467 1267 q 483 1276 481 1276 q 508 1272 496 1278 q 528 1256 521 1267 q 535 1232 535 1246 q 528 1215 535 1225 q 513 1197 522 1206 q 495 1179 504 1188 q 479 1167 486 1171 q 469 1160 474 1164 q 449 1144 464 1156 q 441 1139 443 1140 q 431 1135 439 1138 q 419 1131 422 1132 q 411 1132 417 1131 m 782 624 q 796 549 790 592 q 805 459 801 507 q 808 360 808 411 q 806 261 808 310 q 802 201 803 236 q 801 140 801 165 q 801 92 801 108 q 799 71 800 76 q 762 19 789 39 q 703 -1 735 -1 q 647 15 671 -1 q 610 60 624 32 q 599 81 603 75 q 583 88 594 88 q 567 85 576 88 q 542 81 557 83 q 475 71 504 74 q 406 68 446 68 q 322 74 365 68 q 239 93 279 79 q 163 128 199 107 q 100 183 128 150 q 54 306 56 240 q 96 431 53 371 q 177 508 128 476 q 283 561 226 540 q 400 591 340 582 q 513 600 460 600 q 537 601 528 600 q 550 602 546 601 q 556 603 554 603 q 560 606 558 604 q 568 618 565 610 q 569 627 569 624 q 565 639 568 631 q 551 669 561 650 q 533 701 542 689 q 478 749 508 735 q 406 765 447 764 q 247 707 300 769 l 238 696 l 238 676 q 222 619 238 643 q 174 581 204 592 q 115 576 144 569 q 53 619 75 588 q 32 692 32 651 q 50 771 32 733 q 96 840 68 808 q 159 897 124 872 q 229 938 194 922 q 308 960 267 953 q 390 968 349 968 q 541 942 476 968 q 652 871 606 917 q 730 762 699 825 q 782 624 761 699 m 563 293 q 596 312 588 301 q 604 346 604 322 q 590 379 604 367 q 526 397 576 393 q 476 397 504 400 q 418 389 447 394 q 361 375 389 383 q 314 356 333 367 q 263 318 279 338 l 257 310 l 263 304 q 299 285 275 293 q 353 274 324 278 q 376 272 363 272 q 406 271 390 271 q 435 271 421 271 q 463 272 450 271 q 515 281 488 275 q 563 293 542 286 z "},"":{"ha":854,"x_min":32,"x_max":808,"o":"m 254 1131 q 250 1158 239 1142 q 265 1183 253 1164 q 288 1221 276 1203 q 317 1267 303 1246 q 343 1297 332 1288 q 386 1311 358 1311 q 447 1279 425 1311 q 463 1259 453 1272 q 478 1240 472 1246 q 510 1200 492 1219 q 547 1165 528 1181 q 557 1149 557 1156 q 546 1131 558 1139 q 513 1124 529 1124 q 458 1149 483 1124 q 414 1196 432 1174 q 396 1217 404 1207 q 388 1225 388 1226 q 376 1208 386 1225 q 357 1175 367 1192 q 349 1161 353 1168 q 343 1151 346 1154 q 338 1140 338 1146 q 318 1125 333 1132 q 283 1121 303 1118 q 256 1131 263 1124 l 254 1131 m 782 624 q 796 549 790 592 q 805 459 801 507 q 808 360 808 411 q 806 261 808 310 q 802 201 803 236 q 801 140 801 165 q 801 92 801 108 q 799 71 800 76 q 762 19 789 39 q 703 -1 735 -1 q 647 15 671 -1 q 610 60 624 32 q 599 81 603 75 q 583 88 594 88 q 567 85 576 88 q 542 81 557 83 q 475 71 504 74 q 406 68 446 68 q 322 74 365 68 q 239 93 279 79 q 163 128 199 107 q 100 183 128 150 q 54 306 56 240 q 96 431 53 371 q 177 508 128 476 q 283 561 226 540 q 400 591 340 582 q 513 600 460 600 q 537 601 528 600 q 550 602 546 601 q 556 603 554 603 q 560 606 558 604 q 568 618 565 610 q 569 627 569 624 q 565 639 568 631 q 551 669 561 650 q 533 701 542 689 q 478 749 508 735 q 406 765 447 764 q 247 707 300 769 l 238 696 l 238 676 q 222 619 238 643 q 174 581 204 592 q 115 576 144 569 q 53 619 75 588 q 32 692 32 651 q 50 771 32 733 q 96 840 68 808 q 159 897 124 872 q 229 938 194 922 q 308 960 267 953 q 390 968 349 968 q 541 942 476 968 q 652 871 606 917 q 730 762 699 825 q 782 624 761 699 m 563 293 q 596 312 588 301 q 604 346 604 322 q 590 379 604 367 q 526 397 576 393 q 476 397 504 400 q 418 389 447 394 q 361 375 389 383 q 314 356 333 367 q 263 318 279 338 l 257 310 l 263 304 q 299 285 275 293 q 353 274 324 278 q 376 272 363 272 q 406 271 390 271 q 435 271 421 271 q 463 272 450 271 q 515 281 488 275 q 563 293 542 286 z "},"":{"ha":854,"x_min":32,"x_max":808,"o":"m 281 1144 q 258 1157 267 1147 q 249 1181 249 1167 q 260 1210 249 1196 q 289 1233 272 1224 q 324 1249 306 1243 q 357 1254 343 1254 q 395 1251 376 1256 q 453 1233 414 1247 q 480 1224 472 1226 q 497 1222 488 1222 q 532 1232 521 1221 q 538 1243 536 1236 q 549 1265 539 1256 q 592 1272 567 1283 q 610 1251 606 1265 q 611 1236 613 1246 q 600 1199 611 1214 q 558 1160 585 1171 q 501 1149 531 1149 q 461 1153 481 1149 q 444 1159 456 1156 q 410 1171 433 1163 q 376 1181 389 1178 q 356 1182 364 1183 q 345 1179 349 1181 q 335 1175 342 1178 q 326 1169 329 1172 q 315 1157 322 1165 q 309 1153 311 1154 q 303 1149 307 1151 q 292 1145 297 1146 q 281 1144 288 1144 m 782 624 q 796 549 790 592 q 805 459 801 507 q 808 360 808 411 q 806 261 808 310 q 802 201 803 236 q 801 140 801 165 q 801 92 801 108 q 799 71 800 76 q 762 19 789 39 q 703 -1 735 -1 q 647 15 671 -1 q 610 60 624 32 q 599 81 603 75 q 583 88 594 88 q 567 85 576 88 q 542 81 557 83 q 475 71 504 74 q 406 68 446 68 q 322 74 365 68 q 239 93 279 79 q 163 128 199 107 q 100 183 128 150 q 54 306 56 240 q 96 431 53 371 q 177 508 128 476 q 283 561 226 540 q 400 591 340 582 q 513 600 460 600 q 537 601 528 600 q 550 602 546 601 q 556 603 554 603 q 560 606 558 604 q 568 618 565 610 q 569 627 569 624 q 565 639 568 631 q 551 669 561 650 q 533 701 542 689 q 478 749 508 735 q 406 765 447 764 q 247 707 300 769 l 238 696 l 238 676 q 222 619 238 643 q 174 581 204 592 q 115 576 144 569 q 53 619 75 588 q 32 692 32 651 q 50 771 32 733 q 96 840 68 808 q 159 897 124 872 q 229 938 194 922 q 308 960 267 953 q 390 968 349 968 q 541 942 476 968 q 652 871 606 917 q 730 762 699 825 q 782 624 761 699 m 563 293 q 596 312 588 301 q 604 346 604 322 q 590 379 604 367 q 526 397 576 393 q 476 397 504 400 q 418 389 447 394 q 361 375 389 383 q 314 356 333 367 q 263 318 279 338 l 257 310 l 263 304 q 299 285 275 293 q 353 274 324 278 q 376 272 363 272 q 406 271 390 271 q 435 271 421 271 q 463 272 450 271 q 515 281 488 275 q 563 293 542 286 z "},"":{"ha":854,"x_min":32,"x_max":808,"o":"m 493 1167 q 463 1187 474 1172 q 451 1221 451 1201 q 467 1260 451 1244 q 507 1276 483 1276 q 541 1265 526 1276 q 561 1233 556 1253 q 555 1192 567 1211 q 521 1167 543 1174 q 493 1167 506 1161 m 338 1161 q 310 1178 322 1165 q 296 1207 299 1192 q 302 1242 293 1225 q 326 1265 311 1258 q 351 1271 338 1271 q 390 1256 372 1271 q 400 1189 418 1226 q 390 1176 397 1183 q 378 1167 383 1169 q 338 1161 358 1157 m 782 624 q 796 549 790 592 q 805 459 801 507 q 808 360 808 411 q 806 261 808 310 q 802 201 803 236 q 801 140 801 165 q 801 92 801 108 q 799 71 800 76 q 762 19 789 39 q 703 -1 735 -1 q 647 15 671 -1 q 610 60 624 32 q 599 81 603 75 q 583 88 594 88 q 567 85 576 88 q 542 81 557 83 q 475 71 504 74 q 406 68 446 68 q 322 74 365 68 q 239 93 279 79 q 163 128 199 107 q 100 183 128 150 q 54 306 56 240 q 96 431 53 371 q 177 508 128 476 q 283 561 226 540 q 400 591 340 582 q 513 600 460 600 q 537 601 528 600 q 550 602 546 601 q 556 603 554 603 q 560 606 558 604 q 568 618 565 610 q 569 627 569 624 q 565 639 568 631 q 551 669 561 650 q 533 701 542 689 q 478 749 508 735 q 406 765 447 764 q 247 707 300 769 l 238 696 l 238 676 q 222 619 238 643 q 174 581 204 592 q 115 576 144 569 q 53 619 75 588 q 32 692 32 651 q 50 771 32 733 q 96 840 68 808 q 159 897 124 872 q 229 938 194 922 q 308 960 267 953 q 390 968 349 968 q 541 942 476 968 q 652 871 606 917 q 730 762 699 825 q 782 624 761 699 m 563 293 q 596 312 588 301 q 604 346 604 322 q 590 379 604 367 q 526 397 576 393 q 476 397 504 400 q 418 389 447 394 q 361 375 389 383 q 314 356 333 367 q 263 318 279 338 l 257 310 l 263 304 q 299 285 275 293 q 353 274 324 278 q 376 272 363 272 q 406 271 390 271 q 435 271 421 271 q 463 272 450 271 q 515 281 488 275 q 563 293 542 286 z "},"":{"ha":854,"x_min":32,"x_max":808,"o":"m 433 1071 q 359 1113 390 1078 q 319 1196 328 1147 q 318 1219 318 1206 q 319 1243 318 1233 q 364 1319 328 1292 q 395 1334 376 1329 q 426 1336 414 1339 q 433 1335 429 1336 q 440 1335 438 1335 q 503 1299 475 1331 q 540 1238 531 1268 q 548 1167 553 1201 q 524 1108 543 1133 q 472 1074 503 1082 q 453 1070 465 1071 q 433 1071 440 1069 m 400 1225 q 408 1196 393 1215 q 433 1178 418 1183 q 460 1176 447 1172 q 469 1188 469 1181 q 457 1213 469 1203 q 433 1231 444 1224 q 426 1233 428 1232 q 417 1232 424 1233 q 400 1225 404 1232 m 782 624 q 796 549 790 592 q 805 459 801 507 q 808 360 808 411 q 806 261 808 310 q 802 201 803 236 q 801 140 801 165 q 801 92 801 108 q 799 71 800 76 q 762 19 789 39 q 703 -1 735 -1 q 647 15 671 -1 q 610 60 624 32 q 599 81 603 75 q 583 88 594 88 q 567 85 576 88 q 542 81 557 83 q 475 71 504 74 q 406 68 446 68 q 322 74 365 68 q 239 93 279 79 q 163 128 199 107 q 100 183 128 150 q 54 306 56 240 q 96 431 53 371 q 177 508 128 476 q 283 561 226 540 q 400 591 340 582 q 513 600 460 600 q 537 601 528 600 q 550 602 546 601 q 556 603 554 603 q 560 606 558 604 q 568 618 565 610 q 569 627 569 624 q 565 639 568 631 q 551 669 561 650 q 533 701 542 689 q 478 749 508 735 q 406 765 447 764 q 247 707 300 769 l 238 696 l 238 676 q 222 619 238 643 q 174 581 204 592 q 115 576 144 569 q 53 619 75 588 q 32 692 32 651 q 50 771 32 733 q 96 840 68 808 q 159 897 124 872 q 229 938 194 922 q 308 960 267 953 q 390 968 349 968 q 541 942 476 968 q 652 871 606 917 q 730 762 699 825 q 782 624 761 699 m 563 293 q 596 312 588 301 q 604 346 604 322 q 590 379 604 367 q 526 397 576 393 q 476 397 504 400 q 418 389 447 394 q 361 375 389 383 q 314 356 333 367 q 263 318 279 338 l 257 310 l 263 304 q 299 285 275 293 q 353 274 324 278 q 376 272 363 272 q 406 271 390 271 q 435 271 421 271 q 463 272 450 271 q 515 281 488 275 q 563 293 542 286 z "},"":{"ha":1425,"x_min":32,"x_max":1413,"o":"m 1383 819 q 1406 690 1413 760 q 1357 554 1399 619 q 1265 456 1321 499 q 1142 382 1208 413 q 1005 335 1075 351 q 869 315 935 318 q 842 313 847 314 q 835 308 838 313 q 840 283 828 297 q 877 253 856 267 q 922 231 899 240 q 969 218 946 222 q 1014 217 993 214 q 1056 227 1038 219 q 1110 254 1075 235 q 1164 268 1136 268 q 1236 238 1207 268 q 1267 164 1268 206 q 1232 90 1265 122 q 1173 51 1213 71 q 1093 21 1133 32 q 1021 10 1058 13 q 951 11 983 7 q 871 28 911 14 q 794 61 831 43 q 758 16 783 33 q 703 -1 733 -1 q 647 15 671 -1 q 610 60 624 32 q 599 81 603 75 q 583 88 594 88 q 567 85 576 88 q 542 81 557 83 q 475 71 504 74 q 406 68 446 68 q 322 74 365 68 q 239 93 279 79 q 163 128 199 107 q 100 183 128 150 q 54 306 56 240 q 96 431 53 371 q 177 508 128 476 q 283 561 226 540 q 400 591 340 582 q 513 600 460 600 q 537 601 528 600 q 550 602 546 601 q 556 603 554 603 q 560 606 558 604 q 568 618 565 610 q 569 627 569 624 q 565 639 568 631 q 551 669 561 650 q 533 701 542 689 q 478 749 508 735 q 406 765 447 764 q 247 707 300 769 l 238 696 l 238 676 q 222 619 238 643 q 174 581 204 592 q 115 576 144 569 q 53 619 75 588 q 32 692 32 651 q 50 771 32 733 q 96 840 68 808 q 159 897 124 872 q 229 938 194 922 q 308 960 267 953 q 390 968 349 968 q 578 925 501 968 q 715 792 656 882 q 865 908 778 861 q 1044 968 953 956 q 1076 970 1058 969 q 1113 970 1094 971 q 1149 968 1132 969 q 1179 964 1167 967 q 1303 913 1250 950 q 1383 819 1356 875 m 1185 669 q 1196 694 1192 681 q 1200 714 1200 707 q 1189 739 1200 729 q 1163 754 1178 749 q 1131 761 1147 760 q 1103 763 1114 763 q 1015 749 1057 763 q 935 710 972 735 q 869 651 899 685 q 818 579 839 618 q 810 561 811 567 q 808 547 808 556 q 810 533 808 536 q 822 526 813 529 q 857 524 831 524 q 903 526 883 524 q 979 542 939 531 q 1058 572 1019 554 q 1129 615 1096 590 q 1185 669 1163 639 m 563 293 q 594 310 586 301 q 587 337 590 324 q 581 365 583 350 q 580 375 581 369 q 579 388 579 381 q 558 393 569 390 q 526 397 546 396 q 476 397 504 400 q 418 389 447 394 q 361 375 389 383 q 314 356 333 367 q 263 318 279 338 l 257 310 l 263 304 q 299 285 275 293 q 353 274 324 278 q 376 272 363 272 q 406 271 390 271 q 435 271 421 271 q 463 272 450 271 q 515 281 488 275 q 563 293 542 286 z "},"":{"ha":838,"x_min":28,"x_max":803,"o":"m 222 453 q 242 362 225 408 q 288 276 258 315 q 359 213 318 238 q 449 189 400 189 q 540 215 501 189 q 596 290 578 242 q 630 337 607 319 q 685 354 653 354 q 742 335 717 354 q 778 285 768 317 q 781 253 782 271 q 776 221 781 236 q 738 142 764 178 q 678 78 713 106 q 603 31 643 50 q 519 3 563 11 q 495 -1 511 1 q 463 -3 479 -3 q 431 -3 446 -4 q 407 -1 415 -3 q 399 0 401 -1 q 399 -19 399 -10 q 400 -37 399 -28 l 400 -40 q 413 -47 408 -46 q 447 -73 432 -60 q 469 -94 463 -86 q 480 -133 481 -110 q 465 -171 479 -157 q 461 -174 464 -172 q 456 -179 458 -176 q 439 -191 449 -183 q 425 -203 429 -199 q 418 -210 422 -206 q 410 -217 414 -214 q 388 -237 399 -226 q 368 -260 378 -249 q 356 -268 360 -268 q 342 -258 347 -268 q 336 -231 336 -247 q 343 -204 336 -215 q 365 -177 349 -193 q 392 -151 381 -161 q 408 -137 401 -143 q 415 -129 415 -131 l 378 -104 q 367 -98 372 -101 q 360 -93 363 -94 q 351 -87 354 -87 q 340 -72 344 -83 q 339 -68 339 -71 q 333 -56 336 -64 q 330 -30 331 -47 q 331 -1 329 -12 l 331 17 q 206 88 263 42 q 110 192 150 133 q 49 322 71 251 q 28 464 28 392 q 65 649 28 557 q 167 813 103 740 q 316 929 231 885 q 499 974 401 974 q 637 944 569 974 q 747 856 704 914 q 781 798 767 832 q 800 733 796 764 q 802 710 801 725 q 803 678 803 694 q 802 647 803 661 q 800 625 801 632 q 728 550 786 565 q 659 560 693 540 q 613 617 625 581 q 610 634 611 619 q 610 668 610 649 l 608 713 l 601 726 q 574 758 593 744 q 531 776 554 771 q 514 780 522 779 q 490 779 506 781 q 403 755 446 779 q 328 703 360 731 q 249 589 275 657 q 222 453 222 521 z "},"":{"ha":878,"x_min":28,"x_max":864,"o":"m 392 1167 q 376 1179 385 1171 q 358 1197 367 1188 q 344 1215 350 1206 q 338 1232 338 1225 q 343 1256 335 1244 q 389 1276 360 1279 q 408 1265 393 1275 q 441 1243 424 1256 q 473 1219 458 1231 q 492 1204 488 1208 q 504 1172 504 1189 q 490 1144 500 1156 q 460 1132 479 1132 q 451 1131 454 1131 q 442 1135 449 1132 q 431 1139 433 1138 q 422 1144 428 1140 q 402 1160 407 1156 q 392 1167 397 1164 m 835 819 q 857 690 864 760 q 808 554 850 619 q 716 456 772 499 q 593 382 660 413 q 456 335 526 351 q 321 315 386 318 q 294 313 299 314 q 286 308 289 313 q 293 283 279 297 q 329 253 308 267 q 374 231 350 240 q 421 218 397 222 q 465 217 444 214 q 508 227 489 219 q 561 254 528 235 q 615 268 588 268 q 688 238 658 268 q 718 164 719 206 q 685 90 717 122 q 625 51 665 71 q 544 21 585 32 q 473 10 510 13 q 403 11 436 7 q 321 28 363 14 q 240 65 279 42 q 169 116 201 88 q 113 176 136 144 q 63 263 83 214 q 32 365 42 313 q 29 395 31 376 q 28 434 28 414 q 28 473 28 454 q 31 504 29 492 q 84 672 43 593 q 188 813 125 751 q 329 915 250 875 q 496 968 408 956 q 528 970 510 969 q 565 970 546 971 q 601 968 583 969 q 631 964 618 967 q 754 913 701 950 q 835 819 807 875 m 636 669 q 647 694 643 681 q 651 714 651 707 q 640 739 651 729 q 614 754 629 749 q 582 761 599 760 q 554 763 565 763 q 466 749 508 763 q 387 710 424 735 q 320 651 350 685 q 269 579 290 618 q 261 561 263 567 q 260 547 260 556 q 262 533 260 536 q 274 526 264 529 q 308 524 282 524 q 354 526 335 524 q 431 542 390 531 q 509 572 471 554 q 581 615 547 590 q 636 669 614 639 z "},"":{"ha":878,"x_min":28,"x_max":864,"o":"m 494 1132 q 474 1137 483 1132 q 460 1149 464 1142 q 453 1160 457 1153 q 450 1172 450 1168 q 457 1196 450 1185 q 474 1216 464 1207 q 495 1233 483 1225 q 515 1244 507 1240 q 525 1251 518 1246 q 540 1261 532 1256 q 556 1272 549 1267 q 565 1276 564 1276 q 611 1256 594 1279 q 617 1232 617 1244 q 610 1215 617 1225 q 596 1197 604 1206 q 578 1179 588 1188 q 563 1167 569 1171 q 551 1160 557 1164 q 531 1144 546 1156 q 523 1139 525 1140 q 513 1135 521 1138 q 502 1131 506 1132 q 494 1132 499 1131 m 835 819 q 857 690 864 760 q 808 554 850 619 q 716 456 772 499 q 593 382 660 413 q 456 335 526 351 q 321 315 386 318 q 294 313 299 314 q 286 308 289 313 q 293 283 279 297 q 329 253 308 267 q 374 231 350 240 q 421 218 397 222 q 465 217 444 214 q 508 227 489 219 q 561 254 528 235 q 615 268 588 268 q 688 238 658 268 q 718 164 719 206 q 685 90 717 122 q 625 51 665 71 q 544 21 585 32 q 473 10 510 13 q 403 11 436 7 q 321 28 363 14 q 240 65 279 42 q 169 116 201 88 q 113 176 136 144 q 63 263 83 214 q 32 365 42 313 q 29 395 31 376 q 28 434 28 414 q 28 473 28 454 q 31 504 29 492 q 84 672 43 593 q 188 813 125 751 q 329 915 250 875 q 496 968 408 956 q 528 970 510 969 q 565 970 546 971 q 601 968 583 969 q 631 964 618 967 q 754 913 701 950 q 835 819 807 875 m 636 669 q 647 694 643 681 q 651 714 651 707 q 640 739 651 729 q 614 754 629 749 q 582 761 599 760 q 554 763 565 763 q 466 749 508 763 q 387 710 424 735 q 320 651 350 685 q 269 579 290 618 q 261 561 263 567 q 260 547 260 556 q 262 533 260 536 q 274 526 264 529 q 308 524 282 524 q 354 526 335 524 q 431 542 390 531 q 509 572 471 554 q 581 615 547 590 q 636 669 614 639 z "},"":{"ha":878,"x_min":28,"x_max":864,"o":"m 321 1131 q 317 1158 304 1142 q 331 1183 319 1164 q 354 1221 343 1203 q 384 1267 369 1246 q 410 1297 399 1288 q 453 1311 425 1311 q 488 1303 475 1311 q 513 1279 501 1296 q 528 1259 518 1272 q 543 1240 538 1246 q 551 1232 546 1238 q 561 1219 556 1226 q 585 1190 572 1204 q 614 1165 599 1176 q 624 1149 624 1156 q 611 1131 624 1139 q 579 1124 597 1124 q 551 1131 565 1124 q 524 1148 536 1138 q 500 1172 511 1158 q 481 1196 489 1185 q 462 1217 469 1207 q 453 1225 454 1226 q 443 1208 449 1217 q 434 1192 439 1201 q 424 1175 429 1183 q 415 1161 419 1168 q 410 1151 411 1154 q 406 1146 407 1149 q 403 1140 404 1143 q 385 1125 399 1131 q 367 1121 378 1122 q 349 1121 357 1119 q 321 1131 331 1124 m 835 819 q 857 690 864 760 q 808 554 850 619 q 716 456 772 499 q 593 382 660 413 q 456 335 526 351 q 321 315 386 318 q 294 313 299 314 q 286 308 289 313 q 293 283 279 297 q 329 253 308 267 q 374 231 350 240 q 421 218 397 222 q 465 217 444 214 q 508 227 489 219 q 561 254 528 235 q 615 268 588 268 q 688 238 658 268 q 718 164 719 206 q 685 90 717 122 q 625 51 665 71 q 544 21 585 32 q 473 10 510 13 q 403 11 436 7 q 321 28 363 14 q 240 65 279 42 q 169 116 201 88 q 113 176 136 144 q 63 263 83 214 q 32 365 42 313 q 29 395 31 376 q 28 434 28 414 q 28 473 28 454 q 31 504 29 492 q 84 672 43 593 q 188 813 125 751 q 329 915 250 875 q 496 968 408 956 q 528 970 510 969 q 565 970 546 971 q 601 968 583 969 q 631 964 618 967 q 754 913 701 950 q 835 819 807 875 m 636 669 q 647 694 643 681 q 651 714 651 707 q 640 739 651 729 q 614 754 629 749 q 582 761 599 760 q 554 763 565 763 q 466 749 508 763 q 387 710 424 735 q 320 651 350 685 q 269 579 290 618 q 261 561 263 567 q 260 547 260 556 q 262 533 260 536 q 274 526 264 529 q 308 524 282 524 q 354 526 335 524 q 431 542 390 531 q 509 572 471 554 q 581 615 547 590 q 636 669 614 639 z "},"":{"ha":878,"x_min":28,"x_max":864,"o":"m 526 1167 q 496 1187 507 1172 q 485 1221 485 1201 q 501 1260 485 1244 q 540 1276 517 1276 q 574 1265 560 1276 q 594 1233 589 1253 q 588 1192 600 1211 q 554 1167 576 1174 q 526 1167 539 1161 m 371 1161 q 344 1178 356 1165 q 329 1207 332 1192 q 335 1242 326 1225 q 358 1265 343 1258 q 385 1271 369 1271 q 424 1256 406 1271 q 433 1189 451 1226 q 424 1176 431 1183 q 411 1167 417 1169 q 371 1161 392 1157 m 835 819 q 857 690 864 760 q 808 554 850 619 q 716 456 772 499 q 593 382 660 413 q 456 335 526 351 q 321 315 386 318 q 294 313 299 314 q 286 308 289 313 q 293 283 279 297 q 329 253 308 267 q 374 231 350 240 q 421 218 397 222 q 465 217 444 214 q 508 227 489 219 q 561 254 528 235 q 615 268 588 268 q 688 238 658 268 q 718 164 719 206 q 685 90 717 122 q 625 51 665 71 q 544 21 585 32 q 473 10 510 13 q 403 11 436 7 q 321 28 363 14 q 240 65 279 42 q 169 116 201 88 q 113 176 136 144 q 63 263 83 214 q 32 365 42 313 q 29 395 31 376 q 28 434 28 414 q 28 473 28 454 q 31 504 29 492 q 84 672 43 593 q 188 813 125 751 q 329 915 250 875 q 496 968 408 956 q 528 970 510 969 q 565 970 546 971 q 601 968 583 969 q 631 964 618 967 q 754 913 701 950 q 835 819 807 875 m 636 669 q 647 694 643 681 q 651 714 651 707 q 640 739 651 729 q 614 754 629 749 q 582 761 599 760 q 554 763 565 763 q 466 749 508 763 q 387 710 424 735 q 320 651 350 685 q 269 579 290 618 q 261 561 263 567 q 260 547 260 556 q 262 533 260 536 q 274 526 264 529 q 308 524 282 524 q 354 526 335 524 q 431 542 390 531 q 509 572 471 554 q 581 615 547 590 q 636 669 614 639 z "},"":{"ha":496,"x_min":31,"x_max":488,"o":"m 171 1167 q 155 1179 164 1171 q 137 1197 146 1188 q 122 1215 128 1206 q 115 1232 115 1225 q 121 1256 115 1244 q 167 1276 138 1279 q 186 1265 171 1275 q 219 1243 201 1256 q 251 1219 236 1231 q 269 1204 265 1208 q 282 1172 282 1189 q 278 1160 282 1168 q 272 1149 275 1153 q 258 1137 268 1142 q 238 1132 249 1132 q 230 1131 233 1131 q 219 1135 226 1132 q 209 1139 211 1138 q 201 1144 207 1140 q 181 1160 186 1156 q 171 1167 175 1164 m 460 151 q 483 110 479 133 q 481 67 488 88 q 455 31 474 47 q 408 8 436 15 q 380 5 401 7 q 335 0 358 3 q 257 -10 294 -6 q 188 -19 219 -14 q 148 -24 172 -22 q 117 -24 124 -25 q 97 -17 110 -22 q 78 -8 85 -12 q 42 36 53 8 q 40 90 31 64 q 89 144 54 129 q 108 153 104 151 q 114 160 111 156 q 119 179 119 167 q 113 228 118 192 q 103 733 71 481 q 105 756 104 744 q 106 775 106 768 q 85 814 106 800 q 46 885 46 840 q 47 903 46 899 q 53 919 47 908 q 108 965 69 953 q 232 978 147 978 q 335 973 299 976 q 388 963 371 969 q 431 928 415 951 q 443 878 446 906 q 411 820 440 843 q 342 797 382 797 q 307 782 322 797 q 300 771 301 776 q 296 742 299 765 q 282 596 286 671 q 281 457 278 521 q 290 332 283 393 q 306 226 296 271 q 314 198 310 207 q 326 183 318 189 q 341 177 333 178 q 376 179 349 176 q 460 151 429 183 z "},"":{"ha":496,"x_min":31,"x_max":488,"o":"m 261 1132 q 242 1137 251 1132 q 226 1149 232 1142 q 221 1160 224 1153 q 218 1172 218 1168 q 221 1188 218 1179 q 231 1204 224 1197 q 254 1224 238 1211 q 282 1244 271 1238 q 292 1251 285 1246 q 308 1261 300 1256 q 324 1272 317 1267 q 333 1276 331 1276 q 358 1272 346 1278 q 378 1256 371 1267 q 385 1232 385 1246 q 378 1215 385 1225 q 363 1197 372 1206 q 345 1179 354 1188 q 329 1167 336 1171 q 319 1160 324 1164 q 299 1144 314 1156 q 291 1139 293 1140 q 281 1135 289 1138 q 269 1131 272 1132 q 261 1132 267 1131 m 460 151 q 483 110 479 133 q 481 67 488 88 q 455 31 474 47 q 408 8 436 15 q 380 5 401 7 q 335 0 358 3 q 257 -10 294 -6 q 188 -19 219 -14 q 148 -24 172 -22 q 117 -24 124 -25 q 97 -17 110 -22 q 78 -8 85 -12 q 42 36 53 8 q 40 90 31 64 q 89 144 54 129 q 108 153 104 151 q 114 160 111 156 q 119 179 119 167 q 113 228 118 192 q 103 733 71 481 q 105 756 104 744 q 106 775 106 768 q 85 814 106 800 q 46 885 46 840 q 47 903 46 899 q 53 919 47 908 q 108 965 69 953 q 232 978 147 978 q 335 973 299 976 q 388 963 371 969 q 431 928 415 951 q 443 878 446 906 q 411 820 440 843 q 342 797 382 797 q 307 782 322 797 q 300 771 301 776 q 296 742 299 765 q 282 596 286 671 q 281 457 278 521 q 290 332 283 393 q 306 226 296 271 q 314 198 310 207 q 326 183 318 189 q 341 177 333 178 q 376 179 349 176 q 460 151 429 183 z "},"":{"ha":496,"x_min":31,"x_max":488,"o":"m 128 1131 q 124 1158 113 1142 q 138 1183 126 1164 q 161 1221 150 1203 q 191 1267 176 1246 q 217 1297 206 1288 q 260 1311 232 1311 q 295 1303 282 1311 q 319 1279 308 1296 q 335 1259 325 1272 q 350 1240 344 1246 q 358 1232 353 1238 q 368 1219 363 1226 q 392 1190 379 1204 q 421 1165 406 1176 q 431 1149 431 1156 q 418 1131 431 1139 q 386 1124 404 1124 q 348 1135 363 1124 q 318 1163 333 1147 q 301 1179 307 1174 q 288 1196 296 1185 q 269 1217 276 1207 q 260 1225 261 1226 q 250 1208 256 1217 q 241 1192 246 1201 q 231 1175 236 1183 q 223 1161 226 1168 q 217 1151 219 1154 q 213 1146 214 1149 q 210 1140 211 1143 q 192 1125 206 1131 q 174 1121 185 1122 q 156 1121 164 1119 q 128 1131 138 1124 m 460 151 q 483 110 479 133 q 481 67 488 88 q 455 31 474 47 q 408 8 436 15 q 380 5 401 7 q 335 0 358 3 q 257 -10 294 -6 q 188 -19 219 -14 q 148 -24 172 -22 q 117 -24 124 -25 q 97 -17 110 -22 q 78 -8 85 -12 q 42 36 53 8 q 40 90 31 64 q 89 144 54 129 q 108 153 104 151 q 114 160 111 156 q 119 179 119 167 q 113 228 118 192 q 103 733 71 481 q 105 756 104 744 q 106 775 106 768 q 85 814 106 800 q 46 885 46 840 q 47 903 46 899 q 53 919 47 908 q 108 965 69 953 q 232 978 147 978 q 335 973 299 976 q 388 963 371 969 q 431 928 415 951 q 443 878 446 906 q 411 820 440 843 q 342 797 382 797 q 307 782 322 797 q 300 771 301 776 q 296 742 299 765 q 282 596 286 671 q 281 457 278 521 q 290 332 283 393 q 306 226 296 271 q 314 198 310 207 q 326 183 318 189 q 341 177 333 178 q 376 179 349 176 q 460 151 429 183 z "},"":{"ha":496,"x_min":31,"x_max":488,"o":"m 294 1167 q 265 1187 276 1172 q 254 1221 254 1201 q 270 1260 254 1244 q 310 1276 286 1276 q 344 1265 329 1276 q 364 1233 358 1253 q 358 1192 369 1211 q 322 1167 346 1174 q 294 1167 310 1161 m 140 1161 q 113 1178 125 1165 q 99 1207 101 1192 q 104 1242 96 1225 q 128 1265 113 1258 q 154 1271 139 1271 q 192 1256 176 1271 q 203 1189 221 1226 q 193 1176 200 1183 q 179 1167 186 1169 q 140 1161 160 1157 m 460 151 q 483 110 479 133 q 481 67 488 88 q 455 31 474 47 q 408 8 436 15 q 380 5 401 7 q 335 0 358 3 q 257 -10 294 -6 q 188 -19 219 -14 q 148 -24 172 -22 q 117 -24 124 -25 q 97 -17 110 -22 q 78 -8 85 -12 q 42 36 53 8 q 40 90 31 64 q 89 144 54 129 q 108 153 104 151 q 114 160 111 156 q 119 179 119 167 q 113 228 118 192 q 103 733 71 481 q 105 756 104 744 q 106 775 106 768 q 85 814 106 800 q 46 885 46 840 q 47 903 46 899 q 53 919 47 908 q 108 965 69 953 q 232 978 147 978 q 335 973 299 976 q 388 963 371 969 q 431 928 415 951 q 443 878 446 906 q 411 820 440 843 q 342 797 382 797 q 307 782 322 797 q 300 771 301 776 q 296 742 299 765 q 282 596 286 671 q 281 457 278 521 q 290 332 283 393 q 306 226 296 271 q 314 198 310 207 q 326 183 318 189 q 341 177 333 178 q 376 179 349 176 q 460 151 429 183 z "},"":{"ha":856,"x_min":53,"x_max":811,"o":"m 206 1144 q 183 1157 192 1147 q 174 1181 174 1167 q 194 1219 174 1199 q 235 1244 213 1235 q 282 1254 258 1254 q 319 1251 301 1256 q 376 1233 338 1247 q 404 1224 396 1226 q 421 1222 413 1222 q 457 1232 446 1221 q 461 1243 460 1236 q 472 1265 465 1258 q 515 1272 493 1283 q 532 1258 528 1267 q 536 1236 536 1249 q 526 1199 536 1215 q 499 1171 515 1182 q 464 1154 483 1160 q 425 1149 444 1149 q 386 1153 406 1149 q 369 1159 379 1156 q 335 1171 358 1163 q 301 1181 314 1178 q 279 1182 289 1183 q 270 1179 274 1181 q 260 1175 267 1178 q 250 1169 254 1172 q 239 1157 246 1165 q 206 1144 226 1144 m 800 797 q 784 703 790 746 q 774 622 778 660 q 767 551 769 585 q 764 482 764 517 q 764 435 764 456 q 765 394 764 415 q 767 347 765 372 q 774 281 769 321 q 781 179 781 218 q 776 122 781 140 q 689 33 757 51 q 658 31 678 31 q 626 33 639 31 q 556 69 592 42 q 487 134 521 96 q 421 217 453 172 q 362 307 389 263 q 313 392 335 351 q 275 463 290 433 q 257 496 263 486 q 250 504 251 506 q 247 479 247 501 q 244 410 246 457 q 254 254 244 335 q 279 114 264 174 q 286 60 288 81 q 272 21 285 40 q 214 -19 251 -11 q 171 -19 193 -25 q 128 3 147 -14 q 100 43 110 19 q 88 83 94 58 q 76 141 82 108 q 66 210 71 174 q 57 286 61 247 q 54 331 56 303 q 53 389 53 358 q 53 449 53 419 q 54 500 53 479 q 60 597 57 553 q 69 681 64 640 q 81 760 75 722 q 96 839 88 799 q 126 909 104 879 q 196 939 149 939 q 267 910 244 939 q 304 842 290 882 q 315 816 310 828 q 328 785 319 804 q 353 733 338 765 q 396 647 369 701 q 445 549 426 586 q 477 488 464 513 q 503 442 490 463 q 535 392 517 421 q 553 363 547 371 q 563 354 560 356 q 569 356 568 354 q 572 457 572 358 q 573 523 572 497 q 575 572 574 549 q 580 622 576 594 q 589 692 583 649 q 597 752 592 717 q 608 821 603 788 q 619 880 614 854 q 626 910 625 906 q 653 949 635 933 q 694 969 671 965 q 708 972 700 971 q 724 971 717 972 q 740 969 735 971 q 756 963 746 968 q 792 935 778 953 q 810 893 807 917 q 811 881 811 888 q 810 863 811 874 q 807 837 810 853 q 800 797 804 821 z "},"":{"ha":908,"x_min":31,"x_max":875,"o":"m 429 1167 q 413 1179 422 1171 q 395 1197 404 1188 q 380 1215 386 1206 q 374 1232 374 1225 q 381 1256 374 1246 q 400 1272 388 1267 q 425 1276 413 1278 q 435 1272 428 1276 q 451 1261 443 1267 q 467 1251 460 1256 q 476 1244 474 1246 q 504 1224 488 1238 q 528 1204 521 1211 q 538 1188 535 1197 q 540 1172 540 1179 q 538 1160 540 1168 q 532 1149 535 1153 q 517 1137 526 1142 q 497 1132 507 1132 q 489 1131 492 1131 q 478 1135 486 1132 q 467 1139 469 1138 q 460 1144 465 1140 q 440 1160 444 1156 q 429 1167 435 1164 m 872 550 q 874 515 874 538 q 875 469 875 493 q 874 425 875 446 q 872 393 874 404 q 828 253 860 318 q 742 126 796 188 q 588 14 675 51 q 411 -14 500 -24 q 271 25 335 -7 q 158 108 207 57 q 78 224 110 158 q 35 363 46 289 q 32 396 33 375 q 31 438 31 417 q 32 481 31 460 q 35 514 33 501 q 60 621 43 567 q 105 725 78 675 q 169 818 132 775 q 253 890 207 861 q 357 949 307 926 q 475 971 407 971 q 658 921 574 971 q 794 788 742 871 q 844 678 824 739 q 872 550 864 617 m 699 435 q 700 490 701 460 q 694 551 699 521 q 681 611 689 582 q 663 663 674 640 q 521 782 615 758 q 476 785 501 786 q 435 779 450 785 q 422 774 425 776 q 414 764 418 771 q 394 742 404 749 q 368 728 383 735 q 353 722 357 724 q 346 713 350 719 q 336 683 338 699 q 342 640 335 668 q 351 611 346 621 q 363 596 356 601 q 378 576 369 589 q 390 550 388 563 q 394 517 396 535 q 386 485 393 499 q 354 447 375 461 q 310 433 333 433 q 274 441 293 433 q 239 463 254 449 q 213 468 218 479 q 210 455 211 465 q 210 431 210 444 q 210 405 210 418 q 213 383 211 392 q 289 231 229 288 q 375 179 326 194 q 472 172 424 164 l 471 172 q 554 206 515 181 q 623 269 593 232 q 673 349 653 306 q 699 435 693 392 z "},"":{"ha":908,"x_min":31,"x_max":875,"o":"m 451 1132 q 431 1137 440 1132 q 417 1149 421 1142 q 410 1160 414 1153 q 407 1172 407 1168 q 414 1196 407 1185 q 431 1216 421 1207 q 452 1233 440 1225 q 472 1244 464 1240 q 482 1251 475 1246 q 497 1261 489 1256 q 513 1272 506 1267 q 522 1276 521 1276 q 568 1256 551 1279 q 572 1244 571 1251 q 574 1232 574 1238 q 567 1215 574 1225 q 553 1197 561 1206 q 535 1179 544 1188 q 519 1167 526 1171 q 508 1160 514 1164 q 488 1144 503 1156 q 480 1139 482 1140 q 469 1135 478 1138 q 459 1131 463 1132 q 451 1132 456 1131 m 872 550 q 874 515 874 538 q 875 469 875 493 q 874 425 875 446 q 872 393 874 404 q 828 253 860 318 q 742 126 796 188 q 588 14 675 51 q 411 -14 500 -24 q 271 25 335 -7 q 158 108 207 57 q 78 224 110 158 q 35 363 46 289 q 32 396 33 375 q 31 438 31 417 q 32 481 31 460 q 35 514 33 501 q 60 621 43 567 q 105 725 78 675 q 169 818 132 775 q 253 890 207 861 q 357 949 307 926 q 475 971 407 971 q 658 921 574 971 q 794 788 742 871 q 844 678 824 739 q 872 550 864 617 m 699 435 q 700 490 701 460 q 694 551 699 521 q 681 611 689 582 q 663 663 674 640 q 521 782 615 758 q 476 785 501 786 q 435 779 450 785 q 422 774 425 776 q 414 764 418 771 q 394 742 404 749 q 368 728 383 735 q 353 722 357 724 q 346 713 350 719 q 336 683 338 699 q 342 640 335 668 q 351 611 346 621 q 363 596 356 601 q 378 576 369 589 q 390 550 388 563 q 394 517 396 535 q 386 485 393 499 q 354 447 375 461 q 310 433 333 433 q 274 441 293 433 q 239 463 254 449 q 213 468 218 479 q 210 455 211 465 q 210 431 210 444 q 210 405 210 418 q 213 383 211 392 q 289 231 229 288 q 375 179 326 194 q 472 172 424 164 l 471 172 q 554 206 515 181 q 623 269 593 232 q 673 349 653 306 q 699 435 693 392 z "},"":{"ha":908,"x_min":31,"x_max":875,"o":"m 350 1131 q 346 1158 333 1142 q 360 1183 349 1164 q 383 1221 372 1203 q 413 1267 399 1246 q 438 1297 428 1288 q 458 1308 446 1304 q 482 1311 469 1311 q 517 1303 504 1311 q 542 1279 531 1296 q 557 1259 547 1272 q 572 1240 567 1246 q 606 1200 583 1224 q 643 1165 628 1176 q 653 1149 653 1156 q 640 1131 653 1139 q 608 1124 626 1124 q 580 1131 594 1124 q 553 1148 565 1138 q 529 1172 540 1158 q 510 1196 518 1185 q 491 1217 499 1207 q 482 1225 483 1226 q 472 1208 476 1217 q 463 1192 468 1201 q 451 1175 457 1183 q 444 1161 449 1168 q 439 1151 440 1154 q 435 1146 436 1149 q 432 1140 433 1143 q 414 1125 428 1131 q 397 1121 407 1122 q 378 1121 386 1119 q 350 1131 360 1124 m 872 550 q 874 515 874 538 q 875 469 875 493 q 874 425 875 446 q 872 393 874 404 q 828 253 860 318 q 742 126 796 188 q 588 14 675 51 q 411 -14 500 -24 q 271 25 335 -7 q 158 108 207 57 q 78 224 110 158 q 35 363 46 289 q 32 396 33 375 q 31 438 31 417 q 32 481 31 460 q 35 514 33 501 q 60 621 43 567 q 105 725 78 675 q 169 818 132 775 q 253 890 207 861 q 357 949 307 926 q 475 971 407 971 q 658 921 574 971 q 794 788 742 871 q 844 678 824 739 q 872 550 864 617 m 699 435 q 700 490 701 460 q 694 551 699 521 q 681 611 689 582 q 663 663 674 640 q 521 782 615 758 q 476 785 501 786 q 435 779 450 785 q 422 774 425 776 q 414 764 418 771 q 394 742 404 749 q 368 728 383 735 q 353 722 357 724 q 346 713 350 719 q 336 683 338 699 q 342 640 335 668 q 351 611 346 621 q 363 596 356 601 q 378 576 369 589 q 390 550 388 563 q 394 517 396 535 q 386 485 393 499 q 354 447 375 461 q 310 433 333 433 q 274 441 293 433 q 239 463 254 449 q 213 468 218 479 q 210 455 211 465 q 210 431 210 444 q 210 405 210 418 q 213 383 211 392 q 289 231 229 288 q 375 179 326 194 q 472 172 424 164 l 471 172 q 554 206 515 181 q 623 269 593 232 q 673 349 653 306 q 699 435 693 392 z "},"":{"ha":908,"x_min":31,"x_max":875,"o":"m 333 1144 q 310 1157 319 1147 q 301 1181 301 1167 q 313 1210 301 1196 q 342 1233 325 1224 q 377 1249 358 1243 q 410 1254 396 1254 q 448 1251 429 1256 q 506 1233 467 1247 q 533 1224 525 1226 q 550 1222 540 1222 q 585 1232 574 1221 q 590 1243 589 1236 q 601 1265 592 1256 q 644 1272 619 1283 q 663 1251 658 1265 q 665 1236 665 1246 q 653 1199 663 1213 q 610 1160 638 1171 q 554 1149 583 1149 q 514 1153 533 1149 q 497 1159 508 1156 q 463 1171 486 1163 q 429 1181 442 1178 q 408 1182 417 1183 q 398 1179 401 1181 q 388 1175 394 1178 q 378 1169 382 1172 q 368 1157 375 1165 q 362 1153 364 1154 q 356 1149 360 1151 q 345 1145 350 1146 q 333 1144 340 1144 m 872 550 q 874 515 874 538 q 875 469 875 493 q 874 425 875 446 q 872 393 874 404 q 828 253 860 318 q 742 126 796 188 q 588 14 675 51 q 411 -14 500 -24 q 271 25 335 -7 q 158 108 207 57 q 78 224 110 158 q 35 363 46 289 q 32 396 33 375 q 31 438 31 417 q 32 481 31 460 q 35 514 33 501 q 60 621 43 567 q 105 725 78 675 q 169 818 132 775 q 253 890 207 861 q 357 949 307 926 q 475 971 407 971 q 658 921 574 971 q 794 788 742 871 q 844 678 824 739 q 872 550 864 617 m 699 435 q 700 490 701 460 q 694 551 699 521 q 681 611 689 582 q 663 663 674 640 q 521 782 615 758 q 476 785 501 786 q 435 779 450 785 q 422 774 425 776 q 414 764 418 771 q 394 742 404 749 q 368 728 383 735 q 353 722 357 724 q 346 713 350 719 q 336 683 338 699 q 342 640 335 668 q 351 611 346 621 q 363 596 356 601 q 378 576 369 589 q 390 550 388 563 q 394 517 396 535 q 386 485 393 499 q 354 447 375 461 q 310 433 333 433 q 274 441 293 433 q 239 463 254 449 q 213 468 218 479 q 210 455 211 465 q 210 431 210 444 q 210 405 210 418 q 213 383 211 392 q 289 231 229 288 q 375 179 326 194 q 472 172 424 164 l 471 172 q 554 206 515 181 q 623 269 593 232 q 673 349 653 306 q 699 435 693 392 z "},"":{"ha":908,"x_min":31,"x_max":875,"o":"m 593 1167 q 564 1187 575 1172 q 553 1221 553 1201 q 569 1260 553 1244 q 608 1276 585 1276 q 642 1265 628 1276 q 661 1233 657 1253 q 656 1192 668 1211 q 621 1167 644 1174 q 593 1167 608 1161 m 439 1161 q 412 1178 424 1165 q 397 1207 400 1192 q 403 1242 394 1225 q 426 1265 411 1258 q 451 1271 438 1271 q 490 1256 472 1271 q 500 1189 519 1226 q 491 1176 497 1183 q 478 1167 485 1169 q 458 1160 469 1163 q 439 1161 447 1158 m 872 550 q 874 515 874 538 q 875 469 875 493 q 874 425 875 446 q 872 393 874 404 q 828 253 860 318 q 742 126 796 188 q 588 14 675 51 q 411 -14 500 -24 q 271 25 335 -7 q 158 108 207 57 q 78 224 110 158 q 35 363 46 289 q 32 396 33 375 q 31 438 31 417 q 32 481 31 460 q 35 514 33 501 q 60 621 43 567 q 105 725 78 675 q 169 818 132 775 q 253 890 207 861 q 357 949 307 926 q 475 971 407 971 q 658 921 574 971 q 794 788 742 871 q 844 678 824 739 q 872 550 864 617 m 699 435 q 700 490 701 460 q 694 551 699 521 q 681 611 689 582 q 663 663 674 640 q 521 782 615 758 q 476 785 501 786 q 435 779 450 785 q 422 774 425 776 q 414 764 418 771 q 394 742 404 749 q 368 728 383 735 q 353 722 357 724 q 346 713 350 719 q 336 683 338 699 q 342 640 335 668 q 351 611 346 621 q 363 596 356 601 q 378 576 369 589 q 390 550 388 563 q 394 517 396 535 q 386 485 393 499 q 354 447 375 461 q 310 433 333 433 q 274 441 293 433 q 239 463 254 449 q 213 468 218 479 q 210 455 211 465 q 210 431 210 444 q 210 405 210 418 q 213 383 211 392 q 289 231 229 288 q 375 179 326 194 q 472 172 424 164 l 471 172 q 554 206 515 181 q 623 269 593 232 q 673 349 653 306 q 699 435 693 392 z "},"":{"ha":736,"x_min":36,"x_max":685,"o":"m 675 186 q 684 143 685 165 q 674 102 683 121 q 649 69 665 83 q 608 47 632 54 q 581 44 597 44 q 556 47 565 44 q 533 57 543 51 q 508 74 522 63 q 477 106 494 86 q 432 157 460 126 q 402 192 417 174 q 381 218 388 210 q 369 231 374 225 q 363 236 364 238 q 356 228 361 236 q 345 210 351 221 q 333 190 339 200 q 324 172 326 179 q 319 162 321 168 q 315 150 317 156 q 282 87 311 111 q 215 63 253 63 q 169 74 192 63 q 132 104 147 85 q 122 218 96 154 q 154 284 131 242 q 210 375 178 326 q 222 394 217 386 q 226 404 228 403 q 224 409 226 406 q 214 422 221 413 q 194 447 207 431 q 158 492 181 464 q 97 572 118 544 q 68 614 76 599 q 61 721 36 669 q 97 762 72 746 q 150 778 122 778 q 201 763 178 778 q 223 744 213 757 q 240 721 233 732 q 248 708 243 715 q 257 694 253 700 q 275 670 261 689 q 306 631 289 651 q 335 593 322 610 q 350 574 349 576 q 366 590 353 571 q 411 654 379 608 q 465 728 447 708 q 501 758 483 749 q 553 769 528 769 q 599 756 578 768 q 632 724 619 743 q 648 681 644 706 q 642 633 651 657 q 628 606 636 618 q 610 582 621 594 q 592 560 603 575 q 571 531 581 546 q 533 477 554 506 q 492 422 513 449 q 483 411 485 414 q 485 406 482 408 q 502 385 486 404 q 539 342 518 365 q 580 295 560 318 q 608 261 600 272 q 627 241 617 251 q 643 226 638 231 q 663 207 656 215 q 675 186 669 199 z "},"":{"ha":910,"x_min":31,"x_max":875,"o":"m 872 550 q 874 515 874 538 q 875 469 875 493 q 874 425 875 446 q 872 393 874 404 q 828 253 860 318 q 742 126 796 188 q 596 19 678 56 q 428 -15 514 -18 q 410 -69 417 -50 q 399 -100 403 -89 q 391 -117 394 -111 q 383 -128 388 -122 q 352 -155 369 -146 q 318 -164 335 -164 q 271 -142 288 -164 q 253 -92 254 -119 q 253 -75 253 -82 q 255 -58 253 -68 q 263 -29 257 -47 q 279 21 269 -11 q 113 160 175 69 q 35 363 51 250 q 32 396 33 375 q 31 438 31 417 q 32 481 31 460 q 35 514 33 501 q 60 621 43 567 q 105 725 78 675 q 169 818 132 775 q 253 890 207 861 q 357 949 307 926 q 475 971 407 971 q 540 965 507 971 q 604 946 574 960 q 606 948 606 947 q 607 950 606 949 q 625 995 617 974 q 636 1029 633 1017 q 652 1074 649 1065 q 658 1089 656 1083 q 681 1117 667 1104 q 710 1136 694 1129 q 742 1140 725 1142 q 769 1128 758 1138 q 791 1099 783 1117 q 800 1061 799 1081 q 798 1033 800 1047 q 789 997 796 1019 q 769 942 782 975 q 736 860 757 910 q 830 717 799 797 q 872 550 861 636 m 399 390 q 431 486 418 447 q 453 554 443 525 q 473 608 464 583 q 492 657 482 632 q 517 724 507 696 q 536 776 528 753 q 521 782 529 781 q 476 785 501 786 q 435 779 450 785 q 422 774 425 776 q 414 764 418 771 q 394 742 404 749 q 368 728 383 735 q 353 722 357 724 q 346 713 350 719 q 336 683 338 699 q 342 640 335 668 q 351 611 346 621 q 363 596 356 601 q 378 576 369 589 q 390 550 388 563 q 394 517 396 535 q 386 485 393 499 q 354 447 375 461 q 310 433 333 433 q 274 441 293 433 q 239 463 254 449 q 213 468 218 479 q 210 455 211 465 q 210 431 210 444 q 210 405 210 418 q 213 383 211 392 q 253 276 224 324 q 335 199 282 228 q 363 281 346 231 q 399 390 379 332 m 699 435 q 700 490 701 460 q 694 551 699 521 q 681 611 689 582 q 663 663 674 640 q 660 667 660 665 q 652 647 656 657 q 644 626 649 638 q 625 574 633 597 q 606 519 617 550 q 581 444 596 489 q 542 328 565 400 q 517 253 529 292 q 492 178 504 215 q 569 216 533 190 q 631 277 604 242 q 676 353 658 313 q 699 435 693 393 z "},"":{"ha":858,"x_min":49,"x_max":824,"o":"m 336 1167 q 320 1179 329 1171 q 302 1197 311 1188 q 287 1215 293 1206 q 281 1232 281 1225 q 288 1256 281 1246 q 307 1272 294 1267 q 332 1276 319 1278 q 342 1272 335 1276 q 358 1261 350 1267 q 374 1251 367 1256 q 383 1244 381 1246 q 411 1224 394 1238 q 435 1204 428 1211 q 444 1188 442 1197 q 447 1172 447 1179 q 444 1160 447 1168 q 439 1149 442 1153 q 424 1137 433 1142 q 404 1132 414 1132 q 396 1131 399 1131 q 385 1135 393 1132 q 374 1139 376 1138 q 367 1144 372 1140 q 347 1160 351 1156 q 336 1167 342 1164 m 808 142 q 824 90 824 117 q 796 23 824 50 q 729 -4 768 -4 q 656 28 688 -4 q 618 97 633 49 q 588 233 603 146 q 582 265 585 250 q 579 283 579 279 q 575 293 578 293 q 567 283 571 292 q 546 239 563 275 q 506 155 528 197 q 455 78 485 113 q 387 22 425 44 q 297 -4 349 -1 q 179 34 225 -4 q 107 129 133 72 q 69 252 81 186 q 53 374 57 318 q 50 428 51 394 q 49 499 49 463 q 50 573 49 536 q 53 636 51 610 q 77 812 61 740 q 115 918 93 883 q 156 958 131 944 q 207 971 181 971 q 267 951 242 971 q 298 910 288 936 q 303 857 308 885 q 293 833 300 846 q 279 813 286 819 q 260 753 268 797 q 249 658 253 710 q 242 560 244 607 q 240 494 240 514 q 249 335 242 399 q 274 226 257 271 q 296 196 286 196 q 319 217 306 196 q 372 317 339 244 q 457 526 404 389 q 494 624 479 583 q 524 698 510 664 q 552 765 538 732 q 585 839 567 797 q 613 889 600 872 q 646 915 626 906 q 688 926 668 926 q 749 904 722 926 q 783 849 775 882 q 785 819 786 838 q 776 754 783 801 q 761 612 767 679 q 757 481 756 544 q 765 356 758 418 q 783 226 771 293 q 796 172 790 190 q 808 142 801 154 z "},"":{"ha":858,"x_min":49,"x_max":824,"o":"m 467 1132 q 447 1137 457 1132 q 432 1149 438 1142 q 426 1160 429 1153 q 424 1172 424 1168 q 426 1188 424 1179 q 436 1204 429 1197 q 460 1224 443 1211 q 488 1244 476 1238 q 498 1251 490 1246 q 514 1261 506 1256 q 529 1272 522 1267 q 539 1276 536 1276 q 564 1272 551 1278 q 583 1256 576 1267 q 590 1232 590 1246 q 584 1215 590 1225 q 569 1197 578 1206 q 551 1179 560 1188 q 535 1167 542 1171 q 524 1160 529 1164 q 504 1144 519 1156 q 497 1139 499 1140 q 486 1135 494 1138 q 475 1131 478 1132 q 467 1132 472 1131 m 808 142 q 824 90 824 117 q 796 23 824 50 q 729 -4 768 -4 q 656 28 688 -4 q 618 97 633 49 q 588 233 603 146 q 582 265 585 250 q 579 283 579 279 q 575 293 578 293 q 567 283 571 292 q 546 239 563 275 q 506 155 528 197 q 455 78 485 113 q 387 22 425 44 q 297 -4 349 -1 q 179 34 225 -4 q 107 129 133 72 q 69 252 81 186 q 53 374 57 318 q 50 428 51 394 q 49 499 49 463 q 50 573 49 536 q 53 636 51 610 q 77 812 61 740 q 115 918 93 883 q 156 958 131 944 q 207 971 181 971 q 267 951 242 971 q 298 910 288 936 q 303 857 308 885 q 293 833 300 846 q 279 813 286 819 q 260 753 268 797 q 249 658 253 710 q 242 560 244 607 q 240 494 240 514 q 249 335 242 399 q 274 226 257 271 q 296 196 286 196 q 319 217 306 196 q 372 317 339 244 q 457 526 404 389 q 494 624 479 583 q 524 698 510 664 q 552 765 538 732 q 585 839 567 797 q 613 889 600 872 q 646 915 626 906 q 688 926 668 926 q 749 904 722 926 q 783 849 775 882 q 785 819 786 838 q 776 754 783 801 q 761 612 767 679 q 757 481 756 544 q 765 356 758 418 q 783 226 771 293 q 796 172 790 190 q 808 142 801 154 z "},"":{"ha":858,"x_min":49,"x_max":824,"o":"m 339 1131 q 333 1158 322 1140 q 349 1183 338 1164 q 371 1221 361 1203 q 401 1267 386 1246 q 426 1297 417 1288 q 447 1308 435 1304 q 471 1311 458 1311 q 531 1279 508 1311 q 546 1259 536 1272 q 561 1240 556 1246 q 569 1232 564 1238 q 578 1219 574 1226 q 603 1190 590 1204 q 631 1165 617 1176 q 642 1149 642 1156 q 629 1131 642 1139 q 597 1124 615 1124 q 563 1132 578 1124 q 528 1162 544 1146 q 497 1196 511 1178 q 480 1217 488 1207 q 471 1225 472 1226 q 460 1208 469 1225 q 440 1175 451 1192 q 433 1161 438 1168 q 426 1151 429 1154 l 421 1140 q 403 1125 417 1131 q 367 1121 386 1118 q 339 1131 349 1124 m 808 142 q 824 90 824 117 q 796 23 824 50 q 729 -4 768 -4 q 656 28 688 -4 q 618 97 633 49 q 588 233 603 146 q 582 265 585 250 q 579 283 579 279 q 575 293 578 293 q 567 283 571 292 q 546 239 563 275 q 506 155 528 197 q 455 78 485 113 q 387 22 425 44 q 297 -4 349 -1 q 179 34 225 -4 q 107 129 133 72 q 69 252 81 186 q 53 374 57 318 q 50 428 51 394 q 49 499 49 463 q 50 573 49 536 q 53 636 51 610 q 77 812 61 740 q 115 918 93 883 q 156 958 131 944 q 207 971 181 971 q 267 951 242 971 q 298 910 288 936 q 303 857 308 885 q 293 833 300 846 q 279 813 286 819 q 260 753 268 797 q 249 658 253 710 q 242 560 244 607 q 240 494 240 514 q 249 335 242 399 q 274 226 257 271 q 296 196 286 196 q 319 217 306 196 q 372 317 339 244 q 457 526 404 389 q 494 624 479 583 q 524 698 510 664 q 552 765 538 732 q 585 839 567 797 q 613 889 600 872 q 646 915 626 906 q 688 926 668 926 q 749 904 722 926 q 783 849 775 882 q 785 819 786 838 q 776 754 783 801 q 761 612 767 679 q 757 481 756 544 q 765 356 758 418 q 783 226 771 293 q 796 172 790 190 q 808 142 801 154 z "},"":{"ha":858,"x_min":49,"x_max":824,"o":"m 447 1167 q 417 1187 428 1172 q 406 1221 406 1201 q 422 1260 406 1244 q 461 1276 438 1276 q 495 1265 481 1276 q 515 1233 510 1253 q 509 1192 521 1211 q 475 1167 497 1174 q 447 1167 460 1161 m 292 1161 q 265 1178 276 1165 q 250 1207 253 1192 q 256 1242 247 1225 q 281 1265 264 1258 q 306 1271 292 1271 q 344 1256 326 1271 q 354 1189 372 1226 q 344 1176 351 1183 q 332 1167 338 1169 q 292 1161 313 1157 m 808 142 q 824 90 824 117 q 796 23 824 50 q 729 -4 768 -4 q 656 28 688 -4 q 618 97 633 49 q 588 233 603 146 q 582 265 585 250 q 579 283 579 279 q 575 293 578 293 q 567 283 571 292 q 546 239 563 275 q 506 155 528 197 q 455 78 485 113 q 387 22 425 44 q 297 -4 349 -1 q 179 34 225 -4 q 107 129 133 72 q 69 252 81 186 q 53 374 57 318 q 50 428 51 394 q 49 499 49 463 q 50 573 49 536 q 53 636 51 610 q 77 812 61 740 q 115 918 93 883 q 156 958 131 944 q 207 971 181 971 q 267 951 242 971 q 298 910 288 936 q 303 857 308 885 q 293 833 300 846 q 279 813 286 819 q 260 753 268 797 q 249 658 253 710 q 242 560 244 607 q 240 494 240 514 q 249 335 242 399 q 274 226 257 271 q 296 196 286 196 q 319 217 306 196 q 372 317 339 244 q 457 526 404 389 q 494 624 479 583 q 524 698 510 664 q 552 765 538 732 q 585 839 567 797 q 613 889 600 872 q 646 915 626 906 q 688 926 668 926 q 749 904 722 926 q 783 849 775 882 q 785 819 786 838 q 776 754 783 801 q 761 612 767 679 q 757 481 756 544 q 765 356 758 418 q 783 226 771 293 q 796 172 790 190 q 808 142 801 154 z "},"":{"ha":699,"x_min":14,"x_max":701,"o":"m 317 1132 q 296 1137 306 1132 q 282 1149 286 1142 q 276 1160 279 1153 q 272 1172 272 1168 q 279 1196 272 1185 q 296 1216 286 1207 q 317 1233 306 1225 q 338 1244 329 1240 q 347 1251 340 1246 q 363 1261 354 1256 q 378 1272 371 1267 q 388 1276 386 1276 q 433 1256 417 1279 q 438 1244 436 1251 q 439 1232 439 1238 q 433 1215 439 1225 q 418 1197 426 1206 q 401 1179 410 1188 q 385 1167 392 1171 q 374 1160 379 1164 q 353 1144 368 1156 q 346 1139 349 1140 q 335 1135 343 1138 q 324 1131 328 1132 q 317 1132 321 1131 m 674 929 q 697 882 693 910 q 689 828 701 854 q 665 790 683 817 q 618 722 647 763 q 549 621 581 669 q 490 523 517 572 q 438 422 463 474 q 390 313 414 371 q 368 253 379 286 q 349 191 357 221 q 335 138 340 161 q 331 107 329 115 q 332 96 332 104 q 333 81 332 88 q 334 63 335 69 q 331 49 333 57 q 296 4 319 21 q 240 -11 272 -12 q 215 -8 226 -11 q 154 58 167 10 q 196 289 140 115 q 203 314 203 308 q 203 329 204 319 q 198 344 201 336 q 188 365 194 353 q 159 423 174 390 q 131 490 144 456 q 106 560 118 525 q 85 628 93 596 q 79 647 82 636 q 75 661 76 657 q 69 680 72 667 q 61 707 65 693 q 51 747 58 722 q 36 793 43 771 q 18 855 22 839 q 14 886 14 871 q 38 949 14 924 q 101 975 63 975 q 161 952 138 975 q 189 894 185 929 q 194 873 190 888 q 203 844 199 858 q 210 821 207 832 q 218 795 214 810 q 228 760 222 781 q 244 704 235 739 q 266 633 256 667 q 286 572 276 599 q 298 553 292 558 q 308 553 304 547 q 313 561 310 556 q 319 574 317 567 q 469 813 385 696 q 501 859 485 835 q 525 894 518 883 q 542 917 533 906 q 554 932 550 929 q 613 956 581 956 q 674 929 647 956 z "},"":{"ha":813,"x_min":46,"x_max":782,"o":"m 744 385 q 774 317 765 354 q 775 243 782 279 q 737 151 765 189 q 667 89 708 113 q 578 54 626 65 q 481 43 529 43 q 431 51 451 44 q 393 75 410 58 q 364 146 364 106 q 394 215 364 186 q 427 238 410 232 q 471 244 444 244 q 519 248 496 244 q 553 257 542 251 q 575 276 578 268 q 511 318 569 286 q 414 381 458 346 q 351 476 369 415 q 348 495 349 488 q 347 522 347 503 q 349 549 347 542 q 353 569 350 557 q 417 679 369 622 q 445 710 424 688 q 490 756 467 732 q 545 815 533 800 q 554 835 557 829 q 534 849 551 840 q 503 861 517 857 q 463 865 486 865 q 425 861 440 865 q 369 823 396 850 q 325 760 343 796 q 292 663 307 724 q 261 513 276 603 q 254 467 257 485 q 250 433 251 449 q 249 397 249 417 q 249 344 249 376 q 249 295 249 315 q 249 258 249 275 q 252 224 250 242 q 257 182 254 207 q 259 167 258 175 q 260 151 260 158 q 262 137 261 144 q 264 125 263 129 q 264 100 267 114 q 238 39 263 65 q 192 12 218 19 q 138 11 165 4 q 90 38 110 18 q 64 85 71 57 q 62 100 63 90 q 60 121 61 110 q 58 152 60 131 q 54 193 57 174 q 48 267 50 229 q 46 344 46 306 q 47 417 46 382 q 53 478 49 451 q 83 658 64 563 q 142 838 103 754 q 244 984 181 922 q 410 1064 308 1046 q 491 1067 450 1071 q 576 1049 532 1064 q 749 893 713 1003 q 733 738 772 815 q 719 712 726 724 q 702 687 713 700 q 676 658 692 674 q 636 617 660 642 q 556 526 556 535 q 567 517 556 524 q 615 490 579 510 q 695 440 668 463 q 744 385 722 417 z "},"":{"ha":854,"x_min":32,"x_max":808,"o":"m 343 1167 q 327 1179 336 1171 q 309 1197 318 1188 q 294 1215 300 1206 q 288 1232 288 1225 q 294 1256 288 1246 q 339 1276 308 1279 q 349 1272 342 1276 q 365 1261 357 1267 q 381 1251 374 1256 q 390 1244 388 1246 q 431 1215 408 1235 q 454 1172 454 1196 q 451 1160 454 1168 q 446 1149 449 1153 q 431 1137 440 1142 q 410 1132 421 1132 q 402 1131 406 1131 q 392 1135 399 1132 q 381 1139 383 1138 q 374 1144 379 1140 q 353 1160 358 1156 q 343 1167 347 1164 m 782 624 q 796 549 790 592 q 805 459 801 507 q 808 360 808 411 q 806 261 808 310 q 802 201 803 236 q 801 140 801 165 q 801 92 801 108 q 799 71 800 76 q 762 19 789 39 q 703 -1 735 -1 q 647 15 671 -1 q 610 60 624 32 q 599 81 603 75 q 583 88 594 88 q 567 85 576 88 q 542 81 557 83 q 475 71 504 74 q 406 68 446 68 q 322 74 365 68 q 239 93 279 79 q 163 128 199 107 q 100 183 128 150 q 54 306 56 240 q 96 431 53 371 q 177 508 128 476 q 283 561 226 540 q 400 591 340 582 q 513 600 460 600 q 537 601 528 600 q 550 602 546 601 q 556 603 554 603 q 560 606 558 604 q 568 618 565 610 q 569 627 569 624 q 565 639 568 631 q 551 669 561 650 q 533 701 542 689 q 478 749 508 735 q 406 765 447 764 q 247 707 300 769 l 238 696 l 238 676 q 222 619 238 643 q 174 581 204 592 q 115 576 144 569 q 53 619 75 588 q 32 692 32 651 q 50 771 32 733 q 96 840 68 808 q 159 897 124 872 q 229 938 194 922 q 308 960 267 953 q 390 968 349 968 q 541 942 476 968 q 652 871 606 917 q 730 762 699 825 q 782 624 761 699 m 563 293 q 596 312 588 301 q 604 346 604 322 q 590 379 604 367 q 526 397 576 393 q 476 397 504 400 q 418 389 447 394 q 361 375 389 383 q 314 356 333 367 q 263 318 279 338 l 257 310 l 263 304 q 299 285 275 293 q 353 274 324 278 q 376 272 363 272 q 406 271 390 271 q 435 271 421 271 q 463 272 450 271 q 515 281 488 275 q 563 293 542 286 z "},"":{"ha":854,"x_min":32,"x_max":808,"o":"m 411 1132 q 392 1137 401 1132 q 376 1149 382 1142 q 371 1160 374 1153 q 368 1172 368 1168 q 371 1188 368 1179 q 381 1204 374 1197 q 404 1224 388 1211 q 432 1244 421 1238 q 442 1251 435 1246 q 458 1261 450 1256 q 474 1272 467 1267 q 483 1276 481 1276 q 508 1272 496 1278 q 528 1256 521 1267 q 535 1232 535 1246 q 528 1215 535 1225 q 513 1197 522 1206 q 495 1179 504 1188 q 479 1167 486 1171 q 469 1160 474 1164 q 449 1144 464 1156 q 441 1139 443 1140 q 431 1135 439 1138 q 419 1131 422 1132 q 411 1132 417 1131 m 782 624 q 796 549 790 592 q 805 459 801 507 q 808 360 808 411 q 806 261 808 310 q 802 201 803 236 q 801 140 801 165 q 801 92 801 108 q 799 71 800 76 q 762 19 789 39 q 703 -1 735 -1 q 647 15 671 -1 q 610 60 624 32 q 599 81 603 75 q 583 88 594 88 q 567 85 576 88 q 542 81 557 83 q 475 71 504 74 q 406 68 446 68 q 322 74 365 68 q 239 93 279 79 q 163 128 199 107 q 100 183 128 150 q 54 306 56 240 q 96 431 53 371 q 177 508 128 476 q 283 561 226 540 q 400 591 340 582 q 513 600 460 600 q 537 601 528 600 q 550 602 546 601 q 556 603 554 603 q 560 606 558 604 q 568 618 565 610 q 569 627 569 624 q 565 639 568 631 q 551 669 561 650 q 533 701 542 689 q 478 749 508 735 q 406 765 447 764 q 247 707 300 769 l 238 696 l 238 676 q 222 619 238 643 q 174 581 204 592 q 115 576 144 569 q 53 619 75 588 q 32 692 32 651 q 50 771 32 733 q 96 840 68 808 q 159 897 124 872 q 229 938 194 922 q 308 960 267 953 q 390 968 349 968 q 541 942 476 968 q 652 871 606 917 q 730 762 699 825 q 782 624 761 699 m 563 293 q 596 312 588 301 q 604 346 604 322 q 590 379 604 367 q 526 397 576 393 q 476 397 504 400 q 418 389 447 394 q 361 375 389 383 q 314 356 333 367 q 263 318 279 338 l 257 310 l 263 304 q 299 285 275 293 q 353 274 324 278 q 376 272 363 272 q 406 271 390 271 q 435 271 421 271 q 463 272 450 271 q 515 281 488 275 q 563 293 542 286 z "},"":{"ha":854,"x_min":32,"x_max":808,"o":"m 254 1131 q 250 1158 239 1142 q 265 1183 253 1164 q 288 1221 276 1203 q 317 1267 303 1246 q 343 1297 332 1288 q 386 1311 358 1311 q 447 1279 425 1311 q 463 1259 453 1272 q 478 1240 472 1246 q 510 1200 492 1219 q 547 1165 528 1181 q 557 1149 557 1156 q 546 1131 558 1139 q 513 1124 529 1124 q 458 1149 483 1124 q 414 1196 432 1174 q 396 1217 404 1207 q 388 1225 388 1226 q 376 1208 386 1225 q 357 1175 367 1192 q 349 1161 353 1168 q 343 1151 346 1154 q 338 1140 338 1146 q 318 1125 333 1132 q 283 1121 303 1118 q 256 1131 263 1124 l 254 1131 m 782 624 q 796 549 790 592 q 805 459 801 507 q 808 360 808 411 q 806 261 808 310 q 802 201 803 236 q 801 140 801 165 q 801 92 801 108 q 799 71 800 76 q 762 19 789 39 q 703 -1 735 -1 q 647 15 671 -1 q 610 60 624 32 q 599 81 603 75 q 583 88 594 88 q 567 85 576 88 q 542 81 557 83 q 475 71 504 74 q 406 68 446 68 q 322 74 365 68 q 239 93 279 79 q 163 128 199 107 q 100 183 128 150 q 54 306 56 240 q 96 431 53 371 q 177 508 128 476 q 283 561 226 540 q 400 591 340 582 q 513 600 460 600 q 537 601 528 600 q 550 602 546 601 q 556 603 554 603 q 560 606 558 604 q 568 618 565 610 q 569 627 569 624 q 565 639 568 631 q 551 669 561 650 q 533 701 542 689 q 478 749 508 735 q 406 765 447 764 q 247 707 300 769 l 238 696 l 238 676 q 222 619 238 643 q 174 581 204 592 q 115 576 144 569 q 53 619 75 588 q 32 692 32 651 q 50 771 32 733 q 96 840 68 808 q 159 897 124 872 q 229 938 194 922 q 308 960 267 953 q 390 968 349 968 q 541 942 476 968 q 652 871 606 917 q 730 762 699 825 q 782 624 761 699 m 563 293 q 596 312 588 301 q 604 346 604 322 q 590 379 604 367 q 526 397 576 393 q 476 397 504 400 q 418 389 447 394 q 361 375 389 383 q 314 356 333 367 q 263 318 279 338 l 257 310 l 263 304 q 299 285 275 293 q 353 274 324 278 q 376 272 363 272 q 406 271 390 271 q 435 271 421 271 q 463 272 450 271 q 515 281 488 275 q 563 293 542 286 z "},"":{"ha":854,"x_min":32,"x_max":808,"o":"m 281 1144 q 258 1157 267 1147 q 249 1181 249 1167 q 260 1210 249 1196 q 289 1233 272 1224 q 324 1249 306 1243 q 357 1254 343 1254 q 395 1251 376 1256 q 453 1233 414 1247 q 480 1224 472 1226 q 497 1222 488 1222 q 532 1232 521 1221 q 538 1243 536 1236 q 549 1265 539 1256 q 592 1272 567 1283 q 610 1251 606 1265 q 611 1236 613 1246 q 600 1199 611 1214 q 558 1160 585 1171 q 501 1149 531 1149 q 461 1153 481 1149 q 444 1159 456 1156 q 410 1171 433 1163 q 376 1181 389 1178 q 356 1182 364 1183 q 345 1179 349 1181 q 335 1175 342 1178 q 326 1169 329 1172 q 315 1157 322 1165 q 309 1153 311 1154 q 303 1149 307 1151 q 292 1145 297 1146 q 281 1144 288 1144 m 782 624 q 796 549 790 592 q 805 459 801 507 q 808 360 808 411 q 806 261 808 310 q 802 201 803 236 q 801 140 801 165 q 801 92 801 108 q 799 71 800 76 q 762 19 789 39 q 703 -1 735 -1 q 647 15 671 -1 q 610 60 624 32 q 599 81 603 75 q 583 88 594 88 q 567 85 576 88 q 542 81 557 83 q 475 71 504 74 q 406 68 446 68 q 322 74 365 68 q 239 93 279 79 q 163 128 199 107 q 100 183 128 150 q 54 306 56 240 q 96 431 53 371 q 177 508 128 476 q 283 561 226 540 q 400 591 340 582 q 513 600 460 600 q 537 601 528 600 q 550 602 546 601 q 556 603 554 603 q 560 606 558 604 q 568 618 565 610 q 569 627 569 624 q 565 639 568 631 q 551 669 561 650 q 533 701 542 689 q 478 749 508 735 q 406 765 447 764 q 247 707 300 769 l 238 696 l 238 676 q 222 619 238 643 q 174 581 204 592 q 115 576 144 569 q 53 619 75 588 q 32 692 32 651 q 50 771 32 733 q 96 840 68 808 q 159 897 124 872 q 229 938 194 922 q 308 960 267 953 q 390 968 349 968 q 541 942 476 968 q 652 871 606 917 q 730 762 699 825 q 782 624 761 699 m 563 293 q 596 312 588 301 q 604 346 604 322 q 590 379 604 367 q 526 397 576 393 q 476 397 504 400 q 418 389 447 394 q 361 375 389 383 q 314 356 333 367 q 263 318 279 338 l 257 310 l 263 304 q 299 285 275 293 q 353 274 324 278 q 376 272 363 272 q 406 271 390 271 q 435 271 421 271 q 463 272 450 271 q 515 281 488 275 q 563 293 542 286 z "},"":{"ha":854,"x_min":32,"x_max":808,"o":"m 493 1167 q 463 1187 474 1172 q 451 1221 451 1201 q 467 1260 451 1244 q 507 1276 483 1276 q 541 1265 526 1276 q 561 1233 556 1253 q 555 1192 567 1211 q 521 1167 543 1174 q 493 1167 506 1161 m 338 1161 q 310 1178 322 1165 q 296 1207 299 1192 q 302 1242 293 1225 q 326 1265 311 1258 q 351 1271 338 1271 q 390 1256 372 1271 q 400 1189 418 1226 q 390 1176 397 1183 q 378 1167 383 1169 q 338 1161 358 1157 m 782 624 q 796 549 790 592 q 805 459 801 507 q 808 360 808 411 q 806 261 808 310 q 802 201 803 236 q 801 140 801 165 q 801 92 801 108 q 799 71 800 76 q 762 19 789 39 q 703 -1 735 -1 q 647 15 671 -1 q 610 60 624 32 q 599 81 603 75 q 583 88 594 88 q 567 85 576 88 q 542 81 557 83 q 475 71 504 74 q 406 68 446 68 q 322 74 365 68 q 239 93 279 79 q 163 128 199 107 q 100 183 128 150 q 54 306 56 240 q 96 431 53 371 q 177 508 128 476 q 283 561 226 540 q 400 591 340 582 q 513 600 460 600 q 537 601 528 600 q 550 602 546 601 q 556 603 554 603 q 560 606 558 604 q 568 618 565 610 q 569 627 569 624 q 565 639 568 631 q 551 669 561 650 q 533 701 542 689 q 478 749 508 735 q 406 765 447 764 q 247 707 300 769 l 238 696 l 238 676 q 222 619 238 643 q 174 581 204 592 q 115 576 144 569 q 53 619 75 588 q 32 692 32 651 q 50 771 32 733 q 96 840 68 808 q 159 897 124 872 q 229 938 194 922 q 308 960 267 953 q 390 968 349 968 q 541 942 476 968 q 652 871 606 917 q 730 762 699 825 q 782 624 761 699 m 563 293 q 596 312 588 301 q 604 346 604 322 q 590 379 604 367 q 526 397 576 393 q 476 397 504 400 q 418 389 447 394 q 361 375 389 383 q 314 356 333 367 q 263 318 279 338 l 257 310 l 263 304 q 299 285 275 293 q 353 274 324 278 q 376 272 363 272 q 406 271 390 271 q 435 271 421 271 q 463 272 450 271 q 515 281 488 275 q 563 293 542 286 z "},"":{"ha":854,"x_min":32,"x_max":808,"o":"m 433 1071 q 359 1113 390 1078 q 319 1196 328 1147 q 318 1219 318 1206 q 319 1243 318 1233 q 364 1319 328 1292 q 395 1334 376 1329 q 426 1336 414 1339 q 433 1335 429 1336 q 440 1335 438 1335 q 503 1299 475 1331 q 540 1238 531 1268 q 548 1167 553 1201 q 524 1108 543 1133 q 472 1074 503 1082 q 453 1070 465 1071 q 433 1071 440 1069 m 400 1225 q 408 1196 393 1215 q 433 1178 418 1183 q 460 1176 447 1172 q 469 1188 469 1181 q 457 1213 469 1203 q 433 1231 444 1224 q 426 1233 428 1232 q 417 1232 424 1233 q 400 1225 404 1232 m 782 624 q 796 549 790 592 q 805 459 801 507 q 808 360 808 411 q 806 261 808 310 q 802 201 803 236 q 801 140 801 165 q 801 92 801 108 q 799 71 800 76 q 762 19 789 39 q 703 -1 735 -1 q 647 15 671 -1 q 610 60 624 32 q 599 81 603 75 q 583 88 594 88 q 567 85 576 88 q 542 81 557 83 q 475 71 504 74 q 406 68 446 68 q 322 74 365 68 q 239 93 279 79 q 163 128 199 107 q 100 183 128 150 q 54 306 56 240 q 96 431 53 371 q 177 508 128 476 q 283 561 226 540 q 400 591 340 582 q 513 600 460 600 q 537 601 528 600 q 550 602 546 601 q 556 603 554 603 q 560 606 558 604 q 568 618 565 610 q 569 627 569 624 q 565 639 568 631 q 551 669 561 650 q 533 701 542 689 q 478 749 508 735 q 406 765 447 764 q 247 707 300 769 l 238 696 l 238 676 q 222 619 238 643 q 174 581 204 592 q 115 576 144 569 q 53 619 75 588 q 32 692 32 651 q 50 771 32 733 q 96 840 68 808 q 159 897 124 872 q 229 938 194 922 q 308 960 267 953 q 390 968 349 968 q 541 942 476 968 q 652 871 606 917 q 730 762 699 825 q 782 624 761 699 m 563 293 q 596 312 588 301 q 604 346 604 322 q 590 379 604 367 q 526 397 576 393 q 476 397 504 400 q 418 389 447 394 q 361 375 389 383 q 314 356 333 367 q 263 318 279 338 l 257 310 l 263 304 q 299 285 275 293 q 353 274 324 278 q 376 272 363 272 q 406 271 390 271 q 435 271 421 271 q 463 272 450 271 q 515 281 488 275 q 563 293 542 286 z "},"":{"ha":1425,"x_min":32,"x_max":1413,"o":"m 1383 819 q 1406 690 1413 760 q 1357 554 1399 619 q 1265 456 1321 499 q 1142 382 1208 413 q 1005 335 1075 351 q 869 315 935 318 q 842 313 847 314 q 835 308 838 313 q 840 283 828 297 q 877 253 856 267 q 922 231 899 240 q 969 218 946 222 q 1014 217 993 214 q 1056 227 1038 219 q 1110 254 1075 235 q 1164 268 1136 268 q 1236 238 1207 268 q 1267 164 1268 206 q 1232 90 1265 122 q 1173 51 1213 71 q 1093 21 1133 32 q 1021 10 1058 13 q 951 11 983 7 q 871 28 911 14 q 794 61 831 43 q 758 16 783 33 q 703 -1 733 -1 q 647 15 671 -1 q 610 60 624 32 q 599 81 603 75 q 583 88 594 88 q 567 85 576 88 q 542 81 557 83 q 475 71 504 74 q 406 68 446 68 q 322 74 365 68 q 239 93 279 79 q 163 128 199 107 q 100 183 128 150 q 54 306 56 240 q 96 431 53 371 q 177 508 128 476 q 283 561 226 540 q 400 591 340 582 q 513 600 460 600 q 537 601 528 600 q 550 602 546 601 q 556 603 554 603 q 560 606 558 604 q 568 618 565 610 q 569 627 569 624 q 565 639 568 631 q 551 669 561 650 q 533 701 542 689 q 478 749 508 735 q 406 765 447 764 q 247 707 300 769 l 238 696 l 238 676 q 222 619 238 643 q 174 581 204 592 q 115 576 144 569 q 53 619 75 588 q 32 692 32 651 q 50 771 32 733 q 96 840 68 808 q 159 897 124 872 q 229 938 194 922 q 308 960 267 953 q 390 968 349 968 q 578 925 501 968 q 715 792 656 882 q 865 908 778 861 q 1044 968 953 956 q 1076 970 1058 969 q 1113 970 1094 971 q 1149 968 1132 969 q 1179 964 1167 967 q 1303 913 1250 950 q 1383 819 1356 875 m 1185 669 q 1196 694 1192 681 q 1200 714 1200 707 q 1189 739 1200 729 q 1163 754 1178 749 q 1131 761 1147 760 q 1103 763 1114 763 q 1015 749 1057 763 q 935 710 972 735 q 869 651 899 685 q 818 579 839 618 q 810 561 811 567 q 808 547 808 556 q 810 533 808 536 q 822 526 813 529 q 857 524 831 524 q 903 526 883 524 q 979 542 939 531 q 1058 572 1019 554 q 1129 615 1096 590 q 1185 669 1163 639 m 563 293 q 594 310 586 301 q 587 337 590 324 q 581 365 583 350 q 580 375 581 369 q 579 388 579 381 q 558 393 569 390 q 526 397 546 396 q 476 397 504 400 q 418 389 447 394 q 361 375 389 383 q 314 356 333 367 q 263 318 279 338 l 257 310 l 263 304 q 299 285 275 293 q 353 274 324 278 q 376 272 363 272 q 406 271 390 271 q 435 271 421 271 q 463 272 450 271 q 515 281 488 275 q 563 293 542 286 z "},"":{"ha":839,"x_min":28,"x_max":803,"o":"m 222 453 q 242 362 225 408 q 288 276 258 315 q 359 213 318 238 q 449 189 400 189 q 540 215 501 189 q 596 290 578 242 q 630 337 607 319 q 685 354 653 354 q 742 335 717 354 q 778 285 768 317 q 781 253 782 271 q 776 221 781 236 q 738 142 764 178 q 678 78 713 106 q 603 31 643 50 q 519 3 563 11 q 495 -1 511 1 q 463 -3 479 -3 q 431 -3 446 -4 q 407 -1 415 -3 q 399 0 401 -1 q 399 -19 399 -10 q 400 -37 399 -28 l 400 -40 q 413 -47 408 -46 q 447 -73 432 -60 q 469 -94 463 -86 q 480 -133 481 -110 q 465 -171 479 -157 q 461 -174 464 -172 q 456 -179 458 -176 q 439 -191 449 -183 q 425 -203 429 -199 q 418 -210 422 -206 q 410 -217 414 -214 q 388 -237 399 -226 q 368 -260 378 -249 q 356 -268 360 -268 q 342 -258 347 -268 q 336 -231 336 -247 q 343 -204 336 -215 q 365 -177 349 -193 q 392 -151 381 -161 q 408 -137 401 -143 q 415 -129 415 -131 l 378 -104 q 367 -98 372 -101 q 360 -93 363 -94 q 351 -87 354 -87 q 340 -72 344 -83 q 339 -68 339 -71 q 333 -56 336 -64 q 330 -30 331 -47 q 331 -1 329 -12 l 331 17 q 206 88 263 42 q 110 192 150 133 q 49 322 71 251 q 28 464 28 392 q 65 649 28 557 q 167 813 103 740 q 316 929 231 885 q 499 974 401 974 q 637 944 569 974 q 747 856 704 914 q 781 798 767 832 q 800 733 796 764 q 802 710 801 725 q 803 678 803 694 q 802 647 803 661 q 800 625 801 632 q 728 550 786 565 q 659 560 693 540 q 613 617 625 581 q 610 634 611 619 q 610 668 610 649 l 608 713 l 601 726 q 574 758 593 744 q 531 776 554 771 q 514 780 522 779 q 490 779 506 781 q 403 755 446 779 q 328 703 360 731 q 249 589 275 657 q 222 453 222 521 z "},"":{"ha":878,"x_min":28,"x_max":864,"o":"m 392 1167 q 376 1179 385 1171 q 358 1197 367 1188 q 344 1215 350 1206 q 338 1232 338 1225 q 343 1256 335 1244 q 389 1276 360 1279 q 408 1265 393 1275 q 441 1243 424 1256 q 473 1219 458 1231 q 492 1204 488 1208 q 504 1172 504 1189 q 490 1144 500 1156 q 460 1132 479 1132 q 451 1131 454 1131 q 442 1135 449 1132 q 431 1139 433 1138 q 422 1144 428 1140 q 402 1160 407 1156 q 392 1167 397 1164 m 835 819 q 857 690 864 760 q 808 554 850 619 q 716 456 772 499 q 593 382 660 413 q 456 335 526 351 q 321 315 386 318 q 294 313 299 314 q 286 308 289 313 q 293 283 279 297 q 329 253 308 267 q 374 231 350 240 q 421 218 397 222 q 465 217 444 214 q 508 227 489 219 q 561 254 528 235 q 615 268 588 268 q 688 238 658 268 q 718 164 719 206 q 685 90 717 122 q 625 51 665 71 q 544 21 585 32 q 473 10 510 13 q 403 11 436 7 q 321 28 363 14 q 240 65 279 42 q 169 116 201 88 q 113 176 136 144 q 63 263 83 214 q 32 365 42 313 q 29 395 31 376 q 28 434 28 414 q 28 473 28 454 q 31 504 29 492 q 84 672 43 593 q 188 813 125 751 q 329 915 250 875 q 496 968 408 956 q 528 970 510 969 q 565 970 546 971 q 601 968 583 969 q 631 964 618 967 q 754 913 701 950 q 835 819 807 875 m 636 669 q 647 694 643 681 q 651 714 651 707 q 640 739 651 729 q 614 754 629 749 q 582 761 599 760 q 554 763 565 763 q 466 749 508 763 q 387 710 424 735 q 320 651 350 685 q 269 579 290 618 q 261 561 263 567 q 260 547 260 556 q 262 533 260 536 q 274 526 264 529 q 308 524 282 524 q 354 526 335 524 q 431 542 390 531 q 509 572 471 554 q 581 615 547 590 q 636 669 614 639 z "},"":{"ha":878,"x_min":28,"x_max":864,"o":"m 494 1132 q 474 1137 483 1132 q 460 1149 464 1142 q 453 1160 457 1153 q 450 1172 450 1168 q 457 1196 450 1185 q 474 1216 464 1207 q 495 1233 483 1225 q 515 1244 507 1240 q 525 1251 518 1246 q 540 1261 532 1256 q 556 1272 549 1267 q 565 1276 564 1276 q 611 1256 594 1279 q 617 1232 617 1244 q 610 1215 617 1225 q 596 1197 604 1206 q 578 1179 588 1188 q 563 1167 569 1171 q 551 1160 557 1164 q 531 1144 546 1156 q 523 1139 525 1140 q 513 1135 521 1138 q 502 1131 506 1132 q 494 1132 499 1131 m 835 819 q 857 690 864 760 q 808 554 850 619 q 716 456 772 499 q 593 382 660 413 q 456 335 526 351 q 321 315 386 318 q 294 313 299 314 q 286 308 289 313 q 293 283 279 297 q 329 253 308 267 q 374 231 350 240 q 421 218 397 222 q 465 217 444 214 q 508 227 489 219 q 561 254 528 235 q 615 268 588 268 q 688 238 658 268 q 718 164 719 206 q 685 90 717 122 q 625 51 665 71 q 544 21 585 32 q 473 10 510 13 q 403 11 436 7 q 321 28 363 14 q 240 65 279 42 q 169 116 201 88 q 113 176 136 144 q 63 263 83 214 q 32 365 42 313 q 29 395 31 376 q 28 434 28 414 q 28 473 28 454 q 31 504 29 492 q 84 672 43 593 q 188 813 125 751 q 329 915 250 875 q 496 968 408 956 q 528 970 510 969 q 565 970 546 971 q 601 968 583 969 q 631 964 618 967 q 754 913 701 950 q 835 819 807 875 m 636 669 q 647 694 643 681 q 651 714 651 707 q 640 739 651 729 q 614 754 629 749 q 582 761 599 760 q 554 763 565 763 q 466 749 508 763 q 387 710 424 735 q 320 651 350 685 q 269 579 290 618 q 261 561 263 567 q 260 547 260 556 q 262 533 260 536 q 274 526 264 529 q 308 524 282 524 q 354 526 335 524 q 431 542 390 531 q 509 572 471 554 q 581 615 547 590 q 636 669 614 639 z "},"":{"ha":878,"x_min":28,"x_max":864,"o":"m 321 1131 q 317 1158 304 1142 q 331 1183 319 1164 q 354 1221 343 1203 q 384 1267 369 1246 q 410 1297 399 1288 q 453 1311 425 1311 q 488 1303 475 1311 q 513 1279 501 1296 q 528 1259 518 1272 q 543 1240 538 1246 q 551 1232 546 1238 q 561 1219 556 1226 q 585 1190 572 1204 q 614 1165 599 1176 q 624 1149 624 1156 q 611 1131 624 1139 q 579 1124 597 1124 q 551 1131 565 1124 q 524 1148 536 1138 q 500 1172 511 1158 q 481 1196 489 1185 q 462 1217 469 1207 q 453 1225 454 1226 q 443 1208 449 1217 q 434 1192 439 1201 q 424 1175 429 1183 q 415 1161 419 1168 q 410 1151 411 1154 q 406 1146 407 1149 q 403 1140 404 1143 q 385 1125 399 1131 q 367 1121 378 1122 q 349 1121 357 1119 q 321 1131 331 1124 m 835 819 q 857 690 864 760 q 808 554 850 619 q 716 456 772 499 q 593 382 660 413 q 456 335 526 351 q 321 315 386 318 q 294 313 299 314 q 286 308 289 313 q 293 283 279 297 q 329 253 308 267 q 374 231 350 240 q 421 218 397 222 q 465 217 444 214 q 508 227 489 219 q 561 254 528 235 q 615 268 588 268 q 688 238 658 268 q 718 164 719 206 q 685 90 717 122 q 625 51 665 71 q 544 21 585 32 q 473 10 510 13 q 403 11 436 7 q 321 28 363 14 q 240 65 279 42 q 169 116 201 88 q 113 176 136 144 q 63 263 83 214 q 32 365 42 313 q 29 395 31 376 q 28 434 28 414 q 28 473 28 454 q 31 504 29 492 q 84 672 43 593 q 188 813 125 751 q 329 915 250 875 q 496 968 408 956 q 528 970 510 969 q 565 970 546 971 q 601 968 583 969 q 631 964 618 967 q 754 913 701 950 q 835 819 807 875 m 636 669 q 647 694 643 681 q 651 714 651 707 q 640 739 651 729 q 614 754 629 749 q 582 761 599 760 q 554 763 565 763 q 466 749 508 763 q 387 710 424 735 q 320 651 350 685 q 269 579 290 618 q 261 561 263 567 q 260 547 260 556 q 262 533 260 536 q 274 526 264 529 q 308 524 282 524 q 354 526 335 524 q 431 542 390 531 q 509 572 471 554 q 581 615 547 590 q 636 669 614 639 z "},"":{"ha":878,"x_min":28,"x_max":864,"o":"m 526 1167 q 496 1187 507 1172 q 485 1221 485 1201 q 501 1260 485 1244 q 540 1276 517 1276 q 574 1265 560 1276 q 594 1233 589 1253 q 588 1192 600 1211 q 554 1167 576 1174 q 526 1167 539 1161 m 371 1161 q 344 1178 356 1165 q 329 1207 332 1192 q 335 1242 326 1225 q 358 1265 343 1258 q 385 1271 369 1271 q 424 1256 406 1271 q 433 1189 451 1226 q 424 1176 431 1183 q 411 1167 417 1169 q 371 1161 392 1157 m 835 819 q 857 690 864 760 q 808 554 850 619 q 716 456 772 499 q 593 382 660 413 q 456 335 526 351 q 321 315 386 318 q 294 313 299 314 q 286 308 289 313 q 293 283 279 297 q 329 253 308 267 q 374 231 350 240 q 421 218 397 222 q 465 217 444 214 q 508 227 489 219 q 561 254 528 235 q 615 268 588 268 q 688 238 658 268 q 718 164 719 206 q 685 90 717 122 q 625 51 665 71 q 544 21 585 32 q 473 10 510 13 q 403 11 436 7 q 321 28 363 14 q 240 65 279 42 q 169 116 201 88 q 113 176 136 144 q 63 263 83 214 q 32 365 42 313 q 29 395 31 376 q 28 434 28 414 q 28 473 28 454 q 31 504 29 492 q 84 672 43 593 q 188 813 125 751 q 329 915 250 875 q 496 968 408 956 q 528 970 510 969 q 565 970 546 971 q 601 968 583 969 q 631 964 618 967 q 754 913 701 950 q 835 819 807 875 m 636 669 q 647 694 643 681 q 651 714 651 707 q 640 739 651 729 q 614 754 629 749 q 582 761 599 760 q 554 763 565 763 q 466 749 508 763 q 387 710 424 735 q 320 651 350 685 q 269 579 290 618 q 261 561 263 567 q 260 547 260 556 q 262 533 260 536 q 274 526 264 529 q 308 524 282 524 q 354 526 335 524 q 431 542 390 531 q 509 572 471 554 q 581 615 547 590 q 636 669 614 639 z "},"":{"ha":499,"x_min":32,"x_max":489,"o":"m 172 1167 q 156 1179 165 1171 q 138 1197 147 1188 q 123 1215 129 1206 q 117 1232 117 1225 q 122 1256 117 1244 q 168 1276 139 1279 q 188 1265 172 1275 q 220 1243 203 1256 q 252 1219 238 1231 q 271 1204 267 1208 q 283 1172 283 1189 q 280 1160 283 1168 q 274 1149 276 1153 q 260 1137 269 1142 q 239 1132 250 1132 q 231 1131 235 1131 q 221 1135 228 1132 q 210 1139 213 1138 q 203 1144 208 1140 q 182 1160 188 1156 q 172 1167 176 1164 m 461 151 q 485 110 481 133 q 482 67 489 88 q 456 31 475 47 q 410 8 438 15 q 381 5 403 7 q 336 0 360 3 q 258 -10 296 -6 q 189 -19 221 -14 q 149 -24 174 -22 q 118 -24 125 -25 q 99 -17 111 -22 q 79 -8 86 -12 q 43 36 54 8 q 42 90 32 64 q 90 144 56 129 q 109 153 106 151 q 115 160 113 156 q 120 179 121 167 q 114 228 119 192 q 104 733 72 481 q 106 756 106 744 q 107 775 107 768 q 86 814 107 800 q 47 885 47 840 q 48 903 47 899 q 54 919 49 908 q 110 965 71 953 q 233 978 149 978 q 336 973 300 976 q 389 963 372 969 q 432 928 417 951 q 444 878 447 906 q 413 820 442 843 q 343 797 383 797 q 308 782 324 797 q 301 771 303 776 q 297 742 300 765 q 283 596 288 671 q 282 457 279 521 q 291 332 285 393 q 307 226 297 271 q 315 198 311 207 q 328 183 319 189 q 342 177 335 178 q 378 179 350 176 q 461 151 431 183 z "},"":{"ha":499,"x_min":32,"x_max":489,"o":"m 263 1132 q 243 1137 253 1132 q 228 1149 233 1142 q 222 1160 225 1153 q 219 1172 219 1168 q 222 1188 219 1179 q 232 1204 225 1197 q 256 1224 239 1211 q 283 1244 272 1238 q 294 1251 286 1246 q 310 1261 301 1256 q 325 1272 318 1267 q 335 1276 332 1276 q 360 1272 347 1278 q 379 1256 372 1267 q 386 1232 386 1246 q 380 1215 386 1225 q 365 1197 374 1206 q 347 1179 356 1188 q 331 1167 338 1171 q 320 1160 325 1164 q 300 1144 315 1156 q 292 1139 294 1140 q 282 1135 290 1138 q 271 1131 274 1132 q 263 1132 268 1131 m 461 151 q 485 110 481 133 q 482 67 489 88 q 456 31 475 47 q 410 8 438 15 q 381 5 403 7 q 336 0 360 3 q 258 -10 296 -6 q 189 -19 221 -14 q 149 -24 174 -22 q 118 -24 125 -25 q 99 -17 111 -22 q 79 -8 86 -12 q 43 36 54 8 q 42 90 32 64 q 90 144 56 129 q 109 153 106 151 q 115 160 113 156 q 120 179 121 167 q 114 228 119 192 q 104 733 72 481 q 106 756 106 744 q 107 775 107 768 q 86 814 107 800 q 47 885 47 840 q 48 903 47 899 q 54 919 49 908 q 110 965 71 953 q 233 978 149 978 q 336 973 300 976 q 389 963 372 969 q 432 928 417 951 q 444 878 447 906 q 413 820 442 843 q 343 797 383 797 q 308 782 324 797 q 301 771 303 776 q 297 742 300 765 q 283 596 288 671 q 282 457 279 521 q 291 332 285 393 q 307 226 297 271 q 315 198 311 207 q 328 183 319 189 q 342 177 335 178 q 378 179 350 176 q 461 151 431 183 z "},"":{"ha":499,"x_min":32,"x_max":489,"o":"m 129 1131 q 125 1158 114 1142 q 140 1183 128 1164 q 163 1221 151 1203 q 192 1267 178 1246 q 218 1297 207 1288 q 261 1311 233 1311 q 297 1303 283 1311 q 321 1279 310 1296 q 336 1259 326 1272 q 351 1240 346 1246 q 359 1232 354 1238 q 369 1219 364 1226 q 394 1190 381 1204 q 422 1165 407 1176 q 432 1149 432 1156 q 419 1131 432 1139 q 388 1124 406 1124 q 349 1135 364 1124 q 319 1163 335 1147 q 303 1179 308 1174 q 289 1196 297 1185 q 270 1217 278 1207 q 261 1225 263 1226 q 251 1208 257 1217 q 242 1192 247 1201 q 232 1175 238 1183 q 224 1161 228 1168 q 218 1151 221 1154 q 214 1146 215 1149 q 211 1140 213 1143 q 193 1125 207 1131 q 176 1121 186 1122 q 157 1121 165 1119 q 129 1131 139 1124 m 461 151 q 485 110 481 133 q 482 67 489 88 q 456 31 475 47 q 410 8 438 15 q 381 5 403 7 q 336 0 360 3 q 258 -10 296 -6 q 189 -19 221 -14 q 149 -24 174 -22 q 118 -24 125 -25 q 99 -17 111 -22 q 79 -8 86 -12 q 43 36 54 8 q 42 90 32 64 q 90 144 56 129 q 109 153 106 151 q 115 160 113 156 q 120 179 121 167 q 114 228 119 192 q 104 733 72 481 q 106 756 106 744 q 107 775 107 768 q 86 814 107 800 q 47 885 47 840 q 48 903 47 899 q 54 919 49 908 q 110 965 71 953 q 233 978 149 978 q 336 973 300 976 q 389 963 372 969 q 432 928 417 951 q 444 878 447 906 q 413 820 442 843 q 343 797 383 797 q 308 782 324 797 q 301 771 303 776 q 297 742 300 765 q 283 596 288 671 q 282 457 279 521 q 291 332 285 393 q 307 226 297 271 q 315 198 311 207 q 328 183 319 189 q 342 177 335 178 q 378 179 350 176 q 461 151 431 183 z "},"":{"ha":499,"x_min":32,"x_max":489,"o":"m 296 1167 q 267 1187 278 1172 q 256 1221 256 1201 q 272 1260 256 1244 q 311 1276 288 1276 q 345 1265 331 1276 q 365 1233 360 1253 q 359 1192 371 1211 q 324 1167 347 1174 q 296 1167 311 1161 m 142 1161 q 115 1178 126 1165 q 100 1207 103 1192 q 106 1242 97 1225 q 129 1265 114 1258 q 156 1271 140 1271 q 193 1256 178 1271 q 204 1189 222 1226 q 194 1176 201 1183 q 181 1167 188 1169 q 142 1161 161 1157 m 461 151 q 485 110 481 133 q 482 67 489 88 q 456 31 475 47 q 410 8 438 15 q 381 5 403 7 q 336 0 360 3 q 258 -10 296 -6 q 189 -19 221 -14 q 149 -24 174 -22 q 118 -24 125 -25 q 99 -17 111 -22 q 79 -8 86 -12 q 43 36 54 8 q 42 90 32 64 q 90 144 56 129 q 109 153 106 151 q 115 160 113 156 q 120 179 121 167 q 114 228 119 192 q 104 733 72 481 q 106 756 106 744 q 107 775 107 768 q 86 814 107 800 q 47 885 47 840 q 48 903 47 899 q 54 919 49 908 q 110 965 71 953 q 233 978 149 978 q 336 973 300 976 q 389 963 372 969 q 432 928 417 951 q 444 878 447 906 q 413 820 442 843 q 343 797 383 797 q 308 782 324 797 q 301 771 303 776 q 297 742 300 765 q 283 596 288 671 q 282 457 279 521 q 291 332 285 393 q 307 226 297 271 q 315 198 311 207 q 328 183 319 189 q 342 177 335 178 q 378 179 350 176 q 461 151 431 183 z "},"":{"ha":856,"x_min":53,"x_max":811,"o":"m 206 1144 q 183 1157 192 1147 q 174 1181 174 1167 q 194 1219 174 1199 q 235 1244 213 1235 q 282 1254 258 1254 q 319 1251 301 1256 q 376 1233 338 1247 q 404 1224 396 1226 q 421 1222 413 1222 q 457 1232 446 1221 q 461 1243 460 1236 q 472 1265 465 1258 q 515 1272 493 1283 q 532 1258 528 1267 q 536 1236 536 1249 q 526 1199 536 1215 q 499 1171 515 1182 q 464 1154 483 1160 q 425 1149 444 1149 q 386 1153 406 1149 q 369 1159 379 1156 q 335 1171 358 1163 q 301 1181 314 1178 q 279 1182 289 1183 q 270 1179 274 1181 q 260 1175 267 1178 q 250 1169 254 1172 q 239 1157 246 1165 q 206 1144 226 1144 m 800 797 q 784 703 790 746 q 774 622 778 660 q 767 551 769 585 q 764 482 764 517 q 764 435 764 456 q 765 394 764 415 q 767 347 765 372 q 774 281 769 321 q 781 179 781 218 q 776 122 781 140 q 689 33 757 51 q 658 31 678 31 q 626 33 639 31 q 556 69 592 42 q 487 134 521 96 q 421 217 453 172 q 362 307 389 263 q 313 392 335 351 q 275 463 290 433 q 257 496 263 486 q 250 504 251 506 q 247 479 247 501 q 244 410 246 457 q 254 254 244 335 q 279 114 264 174 q 286 60 288 81 q 272 21 285 40 q 214 -19 251 -11 q 171 -19 193 -25 q 128 3 147 -14 q 100 43 110 19 q 88 83 94 58 q 76 141 82 108 q 66 210 71 174 q 57 286 61 247 q 54 331 56 303 q 53 389 53 358 q 53 449 53 419 q 54 500 53 479 q 60 597 57 553 q 69 681 64 640 q 81 760 75 722 q 96 839 88 799 q 126 909 104 879 q 196 939 149 939 q 267 910 244 939 q 304 842 290 882 q 315 816 310 828 q 328 785 319 804 q 353 733 338 765 q 396 647 369 701 q 445 549 426 586 q 477 488 464 513 q 503 442 490 463 q 535 392 517 421 q 553 363 547 371 q 563 354 560 356 q 569 356 568 354 q 572 457 572 358 q 573 523 572 497 q 575 572 574 549 q 580 622 576 594 q 589 692 583 649 q 597 752 592 717 q 608 821 603 788 q 619 880 614 854 q 626 910 625 906 q 653 949 635 933 q 694 969 671 965 q 708 972 700 971 q 724 971 717 972 q 740 969 735 971 q 756 963 746 968 q 792 935 778 953 q 810 893 807 917 q 811 881 811 888 q 810 863 811 874 q 807 837 810 853 q 800 797 804 821 z "},"":{"ha":908,"x_min":31,"x_max":875,"o":"m 429 1167 q 413 1179 422 1171 q 395 1197 404 1188 q 380 1215 386 1206 q 374 1232 374 1225 q 381 1256 374 1246 q 400 1272 388 1267 q 425 1276 413 1278 q 435 1272 428 1276 q 451 1261 443 1267 q 467 1251 460 1256 q 476 1244 474 1246 q 504 1224 488 1238 q 528 1204 521 1211 q 538 1188 535 1197 q 540 1172 540 1179 q 538 1160 540 1168 q 532 1149 535 1153 q 517 1137 526 1142 q 497 1132 507 1132 q 489 1131 492 1131 q 478 1135 486 1132 q 467 1139 469 1138 q 460 1144 465 1140 q 440 1160 444 1156 q 429 1167 435 1164 m 872 550 q 874 515 874 538 q 875 469 875 493 q 874 425 875 446 q 872 393 874 404 q 828 253 860 318 q 742 126 796 188 q 588 14 675 51 q 411 -14 500 -24 q 271 25 335 -7 q 158 108 207 57 q 78 224 110 158 q 35 363 46 289 q 32 396 33 375 q 31 438 31 417 q 32 481 31 460 q 35 514 33 501 q 60 621 43 567 q 105 725 78 675 q 169 818 132 775 q 253 890 207 861 q 357 949 307 926 q 475 971 407 971 q 658 921 574 971 q 794 788 742 871 q 844 678 824 739 q 872 550 864 617 m 699 435 q 700 490 701 460 q 694 551 699 521 q 681 611 689 582 q 663 663 674 640 q 521 782 615 758 q 476 785 501 786 q 435 779 450 785 q 422 774 425 776 q 414 764 418 771 q 394 742 404 749 q 368 728 383 735 q 353 722 357 724 q 346 713 350 719 q 336 683 338 699 q 342 640 335 668 q 351 611 346 621 q 363 596 356 601 q 378 576 369 589 q 390 550 388 563 q 394 517 396 535 q 386 485 393 499 q 354 447 375 461 q 310 433 333 433 q 274 441 293 433 q 239 463 254 449 q 213 468 218 479 q 210 455 211 465 q 210 431 210 444 q 210 405 210 418 q 213 383 211 392 q 289 231 229 288 q 375 179 326 194 q 472 172 424 164 l 471 172 q 554 206 515 181 q 623 269 593 232 q 673 349 653 306 q 699 435 693 392 z "}}}
